SplineFontDB: 3.0
FontName: Muli-Medium-Italic
FullName: Muli Medium Italic
FamilyName: Muli
Weight: Medium
Copyright: 2013 (c) vernon adams
Version: 1
ItalicAngle: -5
UnderlinePosition: 0
UnderlineWidth: 0
Ascent: 1638
Descent: 410
sfntRevision: 0x00010000
LayerCount: 2
Layer: 0 1 "Back"  1
Layer: 1 1 "Fore"  0
XUID: [1021 913 -2060267417 8696429]
FSType: 0
OS2Version: 4
OS2_WeightWidthSlopeOnly: 0
OS2_UseTypoMetrics: 1
CreationTime: 1363068013
ModificationTime: 1363239971
PfmFamily: 17
TTFWeight: 500
TTFWidth: 5
LineGap: 0
VLineGap: 0
Panose: 2 0 6 3 0 0 0 0 0 0
OS2TypoAscent: 1978
OS2TypoAOffset: 0
OS2TypoDescent: -679
OS2TypoDOffset: 0
OS2TypoLinegap: 0
OS2WinAscent: 1978
OS2WinAOffset: 0
OS2WinDescent: 679
OS2WinDOffset: 0
HheadAscent: 1978
HheadAOffset: 0
HheadDescent: -679
HheadDOffset: 0
OS2SubXSize: 1331
OS2SubYSize: 1433
OS2SubXOff: 24
OS2SubYOff: 286
OS2SupXSize: 1331
OS2SupYSize: 1433
OS2SupXOff: -85
OS2SupYOff: 983
OS2StrikeYSize: 102
OS2StrikeYPos: 530
OS2Vendor: 'newt'
OS2CodePages: 20000093.00000000
OS2UnicodeRanges: a00000ef.4000204b.00000000.00000000
Lookup: 4 0 1 "'liga' Standard Ligatures lookup 0"  {"'liga' Standard Ligatures lookup 0 subtable"  } ['liga' ('DFLT' <'dflt' > 'grek' <'dflt' > 'latn' <'dflt' > ) ]
Lookup: 260 0 0 "'mark' Mark Positioning lookup 0"  {"'mark' Mark Positioning lookup 0 subtable"  } ['mark' ('DFLT' <'dflt' > 'grek' <'dflt' > 'latn' <'dflt' > ) ]
Lookup: 258 0 0 "'kern' Horizontal Kerning in Latin lookup 1"  {"'kern' Horizontal Kerning in Latin lookup 1 per glyph data 0"  "'kern' Horizontal Kerning in Latin lookup 1 kerning class 1"  } ['kern' ('DFLT' <'dflt' > 'latn' <'dflt' > ) ]
MarkAttachClasses: 1
DEI: 91125
KernClass2: 18 25 "'kern' Horizontal Kerning in Latin lookup 1 kerning class 1" 
 89 A Agrave Aacute Acircumflex Atilde Adieresis Aring Amacron Abreve Aogonek uni0200 uni0202
 16 D Dcaron uni1E0A
 9 F uni1E1E
 14 K Kcommaaccent
 28 L Lacute Lcommaaccent Lcaron
 9 P uni1E56

StartChar: .notdef
Encoding: 65536 -1 0
Width: 748
Flags: W
LayerCount: 2
UndoRedoHistory
Layer: 1
Undoes
EndUndoes
Redoes
EndRedoes
EndUndoRedoHistory
Fore
SplineSet
68 0 m 1,0,-1
 68 1365 l 1,1,-1
 612 1365 l 1,2,-1
 612 0 l 1,3,-1
 68 0 l 1,0,-1
136 68 m 1,4,-1
 544 68 l 1,5,-1
 544 1297 l 1,6,-1
 136 1297 l 1,7,-1
 136 68 l 1,4,-1
EndSplineSet
EndChar

StartChar: exclam
Encoding: 33 33 4
Width: 590
GlyphClass: 2
Flags: W
LayerCount: 2
UndoRedoHistory
Layer: 1
Undoes
EndUndoes
Redoes
EndRedoes
EndUndoRedoHistory
Fore
SplineSet
188 -15 m 1,0,-1
 208 211 l 1,1,-1
 446 211 l 1,2,-1
 426 -15 l 1,3,-1
 188 -15 l 1,0,-1
287 377 m 1,4,-1
 325 1456 l 1,5,-1
 550 1456 l 1,6,-1
 398 377 l 1,7,-1
 287 377 l 1,4,-1
EndSplineSet
EndChar

StartChar: quotedbl
Encoding: 34 34 5
Width: 784
GlyphClass: 2
Flags: W
LayerCount: 2
UndoRedoHistory
Layer: 1
Undoes
EndUndoes
Redoes
EndRedoes
EndUndoRedoHistory
Fore
SplineSet
247 924 m 1,0,-1
 258 1456 l 1,1,-1
 458 1456 l 1,2,-1
 346 924 l 1,3,-1
 247 924 l 1,0,-1
562 924 m 1,4,-1
 573 1456 l 1,5,-1
 773 1456 l 1,6,-1
 661 924 l 1,7,-1
 562 924 l 1,4,-1
EndSplineSet
EndChar

StartChar: numbersign
Encoding: 35 35 6
Width: 1294
GlyphClass: 2
Flags: W
LayerCount: 2
UndoRedoHistory
Layer: 1
Undoes
EndUndoes
Redoes
EndRedoes
EndUndoRedoHistory
Fore
SplineSet
239 81 m 1,0,-1
 358 497 l 1,1,-1
 109 497 l 1,2,-1
 132 633 l 1,3,-1
 394 633 l 1,4,5
 402 666 402 666 432.5 771 c 128,-1,6
 463 876 463 876 469 900 c 1,7,-1
 211 900 l 1,8,-1
 235 1033 l 1,9,-1
 502 1033 l 1,10,-1
 617 1433 l 1,11,-1
 774 1433 l 1,12,-1
 665 1033 l 1,13,-1
 903 1033 l 1,14,-1
 1013 1433 l 1,15,-1
 1172 1433 l 1,16,-1
 1061 1033 l 1,17,-1
 1301 1033 l 1,18,-1
 1276 900 l 1,19,-1
 1024 900 l 1,20,-1
 949 633 l 1,21,-1
 1201 633 l 1,22,-1
 1178 497 l 1,23,-1
 916 497 l 1,24,-1
 798 81 l 1,25,-1
 640 81 l 1,26,-1
 754 497 l 1,27,-1
 515 497 l 1,28,-1
 400 81 l 1,29,-1
 239 81 l 1,0,-1
551 633 m 1,30,-1
 791 633 l 1,31,-1
 866 900 l 1,32,-1
 627 900 l 1,33,-1
 551 633 l 1,30,-1
EndSplineSet
EndChar

StartChar: dollar
Encoding: 36 36 7
Width: 1200
GlyphClass: 2
Flags: W
LayerCount: 2
UndoRedoHistory
Layer: 1
Undoes
EndUndoes
Redoes
EndRedoes
EndUndoRedoHistory
Fore
SplineSet
567 -187 m 1,0,-1
 726 1619 l 1,1,-1
 814 1619 l 1,2,-1
 656 -187 l 1,3,-1
 567 -187 l 1,0,-1
617 -23 m 0,4,5
 530 -23 530 -23 449.5 -6 c 128,-1,6
 369 11 369 11 315.5 35 c 128,-1,7
 262 59 262 59 221.5 83.5 c 128,-1,8
 181 108 181 108 162 125 c 2,9,-1
 143 142 l 1,10,-1
 244 287 l 1,11,12
 251 281 251 281 263.5 271.5 c 128,-1,13
 276 262 276 262 316.5 238 c 128,-1,14
 357 214 357 214 399.5 195 c 128,-1,15
 442 176 442 176 504.5 161 c 128,-1,16
 567 146 567 146 627 146 c 0,17,18
 913 146 913 146 933 381 c 0,19,20
 934 393 934 393 934 405 c 0,21,22
 934 446 934 446 920 480 c 0,23,24
 902 522 902 522 854.5 557.5 c 128,-1,25
 807 593 807 593 750.5 618 c 128,-1,26
 694 643 694 643 599 677 c 0,27,28
 508 709 508 709 444.5 742.5 c 128,-1,29
 381 776 381 776 326 825.5 c 128,-1,30
 271 875 271 875 247 943 c 0,31,32
 229 994 229 994 229 1056 c 0,33,34
 229 1077 229 1077 231 1099 c 0,35,36
 242 1224 242 1224 315 1312.5 c 128,-1,37
 388 1401 388 1401 499 1442 c 128,-1,38
 610 1483 610 1483 749 1483 c 0,39,40
 838 1483 838 1483 915.5 1467 c 128,-1,41
 993 1451 993 1451 1040 1428.5 c 128,-1,42
 1087 1406 1087 1406 1121 1383.5 c 128,-1,43
 1155 1361 1155 1361 1169 1345 c 2,44,-1
 1183 1329 l 1,45,-1
 1072 1196 l 1,46,47
 1068 1201 1068 1201 1060 1209 c 128,-1,48
 1052 1217 1052 1217 1023 1237 c 128,-1,49
 994 1257 994 1257 961.5 1272.5 c 128,-1,50
 929 1288 929 1288 875.5 1300.5 c 128,-1,51
 822 1313 822 1313 765 1313 c 0,52,53
 705 1313 705 1313 652 1302.5 c 128,-1,54
 599 1292 599 1292 552.5 1269 c 128,-1,55
 506 1246 506 1246 476.5 1205 c 128,-1,56
 447 1164 447 1164 442 1108 c 0,57,58
 441 1096 441 1096 441 1085 c 0,59,60
 440 1050 440 1050 450 1022 c 0,61,62
 462 984 462 984 487 957 c 128,-1,63
 512 930 512 930 557 906 c 128,-1,64
 602 882 602 882 649.5 863 c 128,-1,65
 697 844 697 844 768 819 c 0,66,67
 769 819 769 819 770 818.5 c 128,-1,68
 771 818 771 818 772 818 c 0,69,70
 866 785 866 785 932 748.5 c 128,-1,71
 998 712 998 712 1050.5 661 c 128,-1,72
 1103 610 1103 610 1126 540 c 0,73,74
 1143 488 1143 488 1143 427 c 0,75,76
 1143 405 1143 405 1141 382 c 0,77,78
 1122 176 1122 176 979 76.5 c 128,-1,79
 836 -23 836 -23 617 -23 c 0,4,5
EndSplineSet
EndChar

StartChar: percent
Encoding: 37 37 8
Width: 1793
GlyphClass: 2
Flags: W
LayerCount: 2
UndoRedoHistory
Layer: 1
Undoes
EndUndoes
Redoes
EndRedoes
EndUndoRedoHistory
Fore
SplineSet
525 845 m 0,0,1
 617 845 617 845 667.5 917 c 128,-1,2
 718 989 718 989 728 1100 c 0,3,4
 730 1125 730 1125 730 1147 c 0,5,6
 730 1190 730 1190 722 1226 c 0,7,8
 710 1280 710 1280 672 1316 c 128,-1,9
 634 1352 634 1352 570 1352 c 0,10,11
 476 1352 476 1352 426 1279.5 c 128,-1,12
 376 1207 376 1207 367 1097 c 0,13,14
 365 1073 365 1073 365 1051 c 0,15,16
 364 968 364 968 394 914 c 0,17,18
 432 844 432 844 525 845 c 0,0,1
512 719 m 0,19,20
 350 719 350 719 268 825 c 0,21,22
 199 915 199 915 200 1047 c 0,23,24
 200 1071 200 1071 202 1097 c 0,25,26
 217 1263 217 1263 318.5 1370.5 c 128,-1,27
 420 1478 420 1478 582 1478 c 0,28,29
 745 1478 745 1478 826 1372 c 0,30,31
 894 1283 894 1283 894 1150 c 0,32,33
 894 1125 894 1125 892 1099 c 0,34,35
 877 934 877 934 775 826.5 c 128,-1,36
 673 719 673 719 512 719 c 0,19,20
388 0 m 1,37,-1
 1369 1456 l 1,38,-1
 1532 1456 l 1,39,-1
 550 0 l 1,40,-1
 388 0 l 1,37,-1
1359 101 m 0,41,42
 1422 101 1422 101 1467 138 c 128,-1,43
 1512 175 1512 175 1533.5 230 c 128,-1,44
 1555 285 1555 285 1561 357 c 0,45,46
 1563 381 1563 381 1563 403 c 0,47,48
 1562 484 1562 484 1534 539 c 0,49,50
 1498 609 1498 609 1405 609 c 0,51,52
 1340 609 1340 609 1294.5 571 c 128,-1,53
 1249 533 1249 533 1227.5 477.5 c 128,-1,54
 1206 422 1206 422 1200 352 c 0,55,56
 1198 329 1198 329 1198 307 c 0,57,58
 1198 224 1198 224 1228 170 c 0,59,60
 1266 100 1266 100 1359 101 c 0,41,42
1346 -25 m 0,61,62
 1184 -24 1184 -24 1102 82 c 0,63,64
 1033 172 1033 172 1034 303 c 0,65,66
 1034 327 1034 327 1036 353 c 0,67,68
 1051 519 1051 519 1153 627 c 128,-1,69
 1255 735 1255 735 1416 735 c 0,70,71
 1580 736 1580 736 1660 630 c 0,72,73
 1728 541 1728 541 1727 407 c 0,74,75
 1727 382 1727 382 1725 356 c 0,76,77
 1710 191 1710 191 1608.5 83 c 128,-1,78
 1507 -25 1507 -25 1346 -25 c 0,61,62
EndSplineSet
EndChar

StartChar: ampersand
Encoding: 38 38 9
Width: 1550
GlyphClass: 2
Flags: W
LayerCount: 2
UndoRedoHistory
Layer: 1
Undoes
EndUndoes
Redoes
EndRedoes
EndUndoRedoHistory
Fore
SplineSet
649 -27 m 0,0,1
 430 -26 430 -26 301 90 c 0,2,3
 188 192 188 192 188 358 c 0,4,5
 188 381 188 381 190 406 c 0,6,7
 197 486 197 486 224 551 c 128,-1,8
 251 616 251 616 299.5 669.5 c 128,-1,9
 348 723 348 723 403 764.5 c 128,-1,10
 458 806 458 806 537 852 c 1,11,12
 493 905 493 905 474.5 930.5 c 128,-1,13
 456 956 456 956 428.5 1001.5 c 128,-1,14
 401 1047 401 1047 392 1089 c 0,15,16
 386 1118 386 1118 386 1150 c 0,17,18
 386 1164 386 1164 387 1178 c 0,19,20
 395 1272 395 1272 453.5 1341.5 c 128,-1,21
 512 1411 512 1411 595.5 1444 c 128,-1,22
 679 1477 679 1477 774 1477 c 0,23,24
 841 1477 841 1477 902.5 1458.5 c 128,-1,25
 964 1440 964 1440 1012.5 1405.5 c 0,26,27
 1061 1372 1061 1372 1087 1314 c 0,28,29
 1108 1267 1108 1267 1108 1210 c 0,30,31
 1108 1197 1108 1197 1107 1184 c 0,32,33
 1097 1074 1097 1074 1017.5 988 c 128,-1,34
 938 902 938 902 783 811 c 1,35,-1
 1130 408 l 1,36,37
 1194 500 1194 500 1233 630.5 c 128,-1,38
 1272 761 1272 761 1284 897 c 1,39,-1
 1460 867 l 1,40,41
 1442 705 1442 705 1387 547.5 c 128,-1,42
 1332 390 1332 390 1246 279 c 1,43,44
 1375 141 1375 141 1553 99 c 1,45,-1
 1402 -16 l 1,46,47
 1272 5 1272 5 1126 164 c 1,48,49
 925 -27 925 -27 649 -27 c 0,0,1
662 132 m 0,50,51
 856 132 856 132 1018 284 c 1,52,-1
 633 734 l 1,53,54
 576 701 576 701 536 670.5 c 128,-1,55
 496 640 496 640 461 601 c 128,-1,56
 426 562 426 562 406.5 513.5 c 128,-1,57
 387 465 387 465 383 407 c 0,58,59
 382 395 382 395 382 383 c 0,60,61
 382 280 382 280 452 210 c 0,62,63
 530 132 530 132 662 132 c 0,50,51
687 923 m 1,64,65
 798 987 798 987 856 1045.5 c 128,-1,66
 914 1104 914 1104 921 1176 c 1,67,68
 922 1184 922 1184 922 1192 c 0,69,70
 922 1253 922 1253 880 1286 c 0,71,72
 833 1323 833 1323 768 1323 c 0,73,74
 695 1323 695 1323 636.5 1283.5 c 128,-1,75
 578 1244 578 1244 572 1174 c 0,76,77
 571 1166 571 1166 571 1157 c 0,78,79
 571 1051 571 1051 687 923 c 1,64,65
EndSplineSet
EndChar

StartChar: quotesingle
Encoding: 39 39 10
Width: 554
GlyphClass: 2
Flags: W
LayerCount: 2
UndoRedoHistory
Layer: 1
Undoes
EndUndoes
Redoes
EndRedoes
EndUndoRedoHistory
Fore
SplineSet
289 981 m 1,0,-1
 293 1456 l 1,1,-1
 505 1456 l 1,2,-1
 440 981 l 1,3,-1
 289 981 l 1,0,-1
EndSplineSet
EndChar

StartChar: parenleft
Encoding: 40 40 11
Width: 629
GlyphClass: 2
Flags: W
LayerCount: 2
UndoRedoHistory
Layer: 1
Undoes
EndUndoes
Redoes
EndRedoes
EndUndoRedoHistory
Fore
SplineSet
382 -189 m 1,0,1
 272 5 272 5 214 221 c 0,2,3
 170 386 170 386 170 549 c 0,4,5
 170 600 170 600 174 650 c 0,6,7
 211 1069 211 1069 526 1506 c 1,8,-1
 703 1506 l 1,9,10
 402 1087 402 1087 363 651 c 0,11,12
 358 600 358 600 358 547 c 0,13,14
 358 393 358 393 398 228 c 0,15,16
 450 6 450 6 555 -189 c 1,17,-1
 382 -189 l 1,0,1
EndSplineSet
EndChar

StartChar: parenright
Encoding: 41 41 12
Width: 626
GlyphClass: 2
Flags: W
LayerCount: 2
UndoRedoHistory
Layer: 1
Undoes
EndUndoes
Redoes
EndRedoes
EndUndoRedoHistory
Fore
SplineSet
37 -189 m 1,0,1
 336 233 336 233 373 668 c 0,2,3
 377 717 377 717 377 768 c 0,4,5
 378 920 378 920 340 1086 c 0,6,7
 290 1308 290 1308 181 1506 c 1,8,-1
 356 1506 l 1,9,10
 466 1310 466 1310 523 1092 c 0,11,12
 566 928 566 928 566 767 c 0,13,14
 566 713 566 713 561 660 c 0,15,16
 524 243 524 243 217 -189 c 1,17,-1
 37 -189 l 1,0,1
EndSplineSet
EndChar

StartChar: asterisk
Encoding: 42 42 13
Width: 1107
GlyphClass: 2
Flags: W
LayerCount: 2
UndoRedoHistory
Layer: 1
Undoes
EndUndoes
Redoes
EndRedoes
EndUndoRedoHistory
Fore
SplineSet
783 710 m 1,0,-1
 646 968 l 1,1,-1
 467 715 l 1,2,-1
 332 807 l 1,3,-1
 549 1041 l 1,4,-1
 284 1130 l 1,5,-1
 339 1279 l 1,6,-1
 599 1158 l 1,7,-1
 592 1456 l 1,8,-1
 768 1456 l 1,9,-1
 722 1161 l 1,10,-1
 971 1280 l 1,11,-1
 1029 1139 l 1,12,-1
 755 1043 l 1,13,-1
 936 800 l 1,14,-1
 783 710 l 1,0,-1
EndSplineSet
EndChar

StartChar: plus
Encoding: 43 43 14
Width: 1205
GlyphClass: 2
Flags: W
LayerCount: 2
UndoRedoHistory
Layer: 1
Undoes
EndUndoes
Redoes
EndRedoes
EndUndoRedoHistory
Fore
SplineSet
533 118 m 1,0,-1
 570 531 l 1,1,-1
 174 531 l 1,2,-1
 187 691 l 1,3,-1
 585 691 l 1,4,-1
 623 1105 l 1,5,-1
 798 1105 l 1,6,-1
 761 691 l 1,7,-1
 1159 691 l 1,8,-1
 1145 531 l 1,9,-1
 747 531 l 1,10,-1
 709 118 l 1,11,-1
 533 118 l 1,0,-1
EndSplineSet
EndChar

StartChar: comma
Encoding: 44 44 15
Width: 517
GlyphClass: 2
Flags: W
LayerCount: 2
UndoRedoHistory
Layer: 1
Undoes
EndUndoes
Redoes
EndRedoes
EndUndoRedoHistory
Fore
SplineSet
52 -285 m 1,0,-1
 215 244 l 1,1,-1
 418 244 l 1,2,-1
 207 -285 l 1,3,-1
 52 -285 l 1,0,-1
EndSplineSet
EndChar

StartChar: hyphen
Encoding: 45 45 16
Width: 732
GlyphClass: 2
Flags: W
LayerCount: 2
UndoRedoHistory
Layer: 1
Undoes
EndUndoes
Redoes
EndRedoes
EndUndoRedoHistory
Fore
SplineSet
133 478 m 1,0,-1
 146 631 l 1,1,-1
 700 631 l 1,2,-1
 687 478 l 1,3,-1
 133 478 l 1,0,-1
EndSplineSet
EndChar

StartChar: period
Encoding: 46 46 17
Width: 543
GlyphClass: 2
Flags: W
LayerCount: 2
UndoRedoHistory
Layer: 1
Undoes
EndUndoes
Redoes
EndRedoes
EndUndoRedoHistory
Fore
SplineSet
152 0 m 1,0,-1
 171 229 l 1,1,-1
 410 229 l 1,2,-1
 391 0 l 1,3,-1
 152 0 l 1,0,-1
EndSplineSet
EndChar

StartChar: slash
Encoding: 47 47 18
Width: 1053
GlyphClass: 2
Flags: W
LayerCount: 2
UndoRedoHistory
Layer: 1
Undoes
EndUndoes
Redoes
EndRedoes
EndUndoRedoHistory
Fore
SplineSet
149 -99 m 1,0,-1
 839 1456 l 1,1,-1
 1022 1456 l 1,2,-1
 328 -99 l 1,3,-1
 149 -99 l 1,0,-1
EndSplineSet
EndChar

StartChar: zero
Encoding: 48 48 19
Width: 1230
GlyphClass: 2
Flags: W
LayerCount: 2
UndoRedoHistory
Layer: 1
Undoes
EndUndoes
Redoes
EndRedoes
EndUndoRedoHistory
Fore
SplineSet
640 146 m 0,0,1
 921 146 921 146 972 732 c 0,2,3
 980 820 980 820 980 895 c 0,4,5
 980 1313 980 1313 742 1313 c 0,6,7
 662 1313 662 1313 599.5 1269 c 128,-1,8
 537 1225 537 1225 496 1144.5 c 128,-1,9
 455 1064 455 1064 430 962 c 128,-1,10
 405 860 405 860 394 733 c 1,11,12
 386 657 386 657 386 588 c 0,13,14
 386 543 386 543 390 500 c 0,15,16
 398 393 398 393 424 314 c 128,-1,17
 450 235 450 235 505 190.5 c 128,-1,18
 560 146 560 146 640 146 c 0,0,1
622 -23 m 0,19,20
 461 -23 461 -23 356 74 c 0,21,22
 251 172 251 172 211 340 c 0,23,24
 184 452 184 452 184 589 c 0,25,26
 184 658 184 658 191 733 c 0,27,28
 222 1089 222 1089 366.5 1286 c 128,-1,29
 511 1483 511 1483 756 1483 c 0,30,31
 998 1484 998 1484 1104 1286 c 0,32,33
 1185 1134 1185 1134 1185 890 c 0,34,35
 1185 816 1185 816 1178 733 c 0,36,37
 1158 506 1158 506 1091.5 339 c 128,-1,38
 1025 172 1025 172 905 74.5 c 128,-1,39
 785 -23 785 -23 622 -23 c 0,19,20
EndSplineSet
EndChar

StartChar: one
Encoding: 49 49 20
Width: 1230
GlyphClass: 2
Flags: W
LayerCount: 2
UndoRedoHistory
Layer: 1
Undoes
EndUndoes
Redoes
EndRedoes
EndUndoRedoHistory
Fore
SplineSet
318 0 m 1,0,-1
 332 161 l 1,1,-1
 586 161 l 1,2,-1
 681 1241 l 1,3,4
 550 1172 550 1172 396 1115 c 1,5,-1
 412 1294 l 1,6,7
 540 1339 540 1339 741 1452 c 1,8,-1
 901 1466 l 1,9,-1
 786 160 l 1,10,-1
 1029 160 l 1,11,-1
 1015 0 l 1,12,-1
 318 0 l 1,0,-1
EndSplineSet
EndChar

StartChar: two
Encoding: 50 50 21
Width: 1230
GlyphClass: 2
Flags: W
LayerCount: 2
UndoRedoHistory
Layer: 1
Undoes
EndUndoes
Redoes
EndRedoes
EndUndoRedoHistory
Fore
SplineSet
182 0 m 1,0,-1
 196 158 l 1,1,-1
 690 654 l 2,2,3
 733 696 733 696 755.5 719 c 128,-1,4
 778 742 778 742 812 779.5 c 128,-1,5
 846 817 846 817 864 841.5 c 128,-1,6
 882 866 882 866 904.5 901.5 c 128,-1,7
 927 937 927 937 937.5 966.5 c 128,-1,8
 948 996 948 996 956 1032.5 c 128,-1,9
 964 1069 964 1069 964 1106 c 0,10,11
 964 1212 964 1212 901.5 1263 c 128,-1,12
 839 1314 839 1314 726 1314 c 0,13,14
 612 1314 612 1314 514 1261 c 128,-1,15
 416 1208 416 1208 356 1109 c 1,16,-1
 251 1222 l 1,17,18
 318 1345 318 1345 448.5 1413.5 c 128,-1,19
 579 1482 579 1482 742 1482 c 0,20,21
 934 1482 934 1482 1047.5 1390 c 128,-1,22
 1161 1298 1161 1298 1161 1124 c 0,23,24
 1161 1073 1161 1073 1150.5 1023 c 128,-1,25
 1140 973 1140 973 1124.5 931 c 128,-1,26
 1109 889 1109 889 1080.5 842 c 128,-1,27
 1052 795 1052 795 1026.5 760 c 128,-1,28
 1001 725 1001 725 959.5 679 c 128,-1,29
 918 633 918 633 887.5 601.5 c 128,-1,30
 857 570 857 570 809 522 c 2,31,-1
 451 164 l 1,32,-1
 1083 164 l 1,33,-1
 1068 0 l 1,34,-1
 182 0 l 1,0,-1
EndSplineSet
EndChar

StartChar: three
Encoding: 51 51 22
Width: 1230
GlyphClass: 2
Flags: W
LayerCount: 2
UndoRedoHistory
Layer: 1
Undoes
EndUndoes
Redoes
EndRedoes
EndUndoRedoHistory
Fore
SplineSet
602 -23 m 0,0,1
 436 -23 436 -23 318 34.5 c 128,-1,2
 200 92 200 92 157 196 c 1,3,-1
 275 324 l 1,4,5
 321 239 321 239 411.5 192.5 c 128,-1,6
 502 146 502 146 619 146 c 0,7,8
 753 146 753 146 844 217.5 c 128,-1,9
 935 289 935 289 945 410 c 0,10,11
 946 426 946 426 946 441 c 0,12,13
 946 557 946 557 864 613 c 0,14,15
 771 677 771 677 586 677 c 0,16,17
 540 677 540 677 495 674 c 1,18,-1
 507 843 l 1,19,20
 532 842 532 842 585 842 c 0,21,22
 761 842 761 842 855.5 902.5 c 128,-1,23
 950 963 950 963 962 1107 c 0,24,25
 963 1119 963 1119 963 1131 c 0,26,27
 962 1216 962 1216 904 1262 c 0,28,29
 838 1314 838 1314 719 1314 c 0,30,31
 487 1314 487 1314 358 1148 c 1,32,-1
 254 1267 l 1,33,34
 404 1483 404 1483 746 1483 c 0,35,36
 835 1483 835 1483 914.5 1458 c 128,-1,37
 994 1433 994 1433 1054.5 1386.5 c 128,-1,38
 1115 1340 1115 1340 1147 1267 c 0,39,40
 1173 1209 1173 1209 1173 1140 c 0,41,42
 1173 1123 1173 1123 1171 1105 c 0,43,44
 1160 977 1160 977 1077 888.5 c 128,-1,45
 994 800 994 800 855 768 c 1,46,47
 1000 738 1000 738 1080 642 c 0,48,49
 1149 558 1149 558 1150 442 c 0,50,51
 1150 425 1150 425 1148 406 c 0,52,53
 1137 276 1137 276 1059 177 c 128,-1,54
 981 78 981 78 862 27.5 c 128,-1,55
 743 -23 743 -23 602 -23 c 0,0,1
EndSplineSet
EndChar

StartChar: four
Encoding: 52 52 23
Width: 1230
GlyphClass: 2
Flags: W
LayerCount: 2
UndoRedoHistory
Layer: 1
Undoes
EndUndoes
Redoes
EndRedoes
EndUndoRedoHistory
Fore
SplineSet
741 0 m 1,0,-1
 775 402 l 1,1,-1
 143 402 l 1,2,-1
 155 534 l 1,3,-1
 824 1456 l 1,4,-1
 1067 1456 l 1,5,-1
 986 541 l 1,6,-1
 1196 541 l 1,7,-1
 1182 402 l 1,8,-1
 974 402 l 1,9,-1
 940 0 l 1,10,-1
 741 0 l 1,0,-1
347 541 m 1,11,-1
 790 541 l 1,12,-1
 855 1256 l 1,13,-1
 731 1075 l 1,14,-1
 347 541 l 1,11,-1
EndSplineSet
EndChar

StartChar: five
Encoding: 53 53 24
Width: 1230
GlyphClass: 2
Flags: W
LayerCount: 2
UndoRedoHistory
Layer: 1
Undoes
EndUndoes
Redoes
EndRedoes
EndUndoRedoHistory
Fore
SplineSet
1164 525 m 0,0,1
 1164 283 1164 283 1010.5 130 c 128,-1,2
 857 -23 857 -23 619 -23 c 0,3,4
 495 -23 495 -23 382 23 c 128,-1,5
 269 69 269 69 189 159 c 1,6,-1
 298 296 l 1,7,8
 419 146 419 146 631 146 c 0,9,10
 781 146 781 146 871 249 c 128,-1,11
 961 352 961 352 961 511 c 0,12,13
 961 652 961 652 886.5 729 c 128,-1,14
 812 806 812 806 707 806 c 0,15,16
 545 806 545 806 467 657 c 1,17,-1
 295 690 l 1,18,-1
 378 1456 l 1,19,-1
 1164 1456 l 1,20,-1
 1150 1287 l 1,21,-1
 545 1287 l 1,22,-1
 477 851 l 1,23,24
 522 906 522 906 593 932 c 128,-1,25
 664 958 664 958 742 958 c 0,26,27
 940 958 940 958 1052 836.5 c 128,-1,28
 1164 715 1164 715 1164 525 c 0,0,1
EndSplineSet
EndChar

StartChar: six
Encoding: 54 54 25
Width: 1230
GlyphClass: 2
Flags: W
LayerCount: 2
UndoRedoHistory
Layer: 1
Undoes
EndUndoes
Redoes
EndRedoes
EndUndoRedoHistory
Fore
SplineSet
668 -23 m 0,0,1
 539 -23 539 -23 444 29 c 128,-1,2
 349 81 349 81 294.5 176.5 c 128,-1,3
 240 272 240 272 220 402 c 0,4,5
 208 479 208 479 207 568 c 0,6,7
 207 628 207 628 213 694 c 0,8,9
 227 858 227 858 276 1000 c 128,-1,10
 325 1142 325 1142 403.5 1250.5 c 128,-1,11
 482 1359 482 1359 597.5 1421 c 128,-1,12
 713 1483 713 1483 852 1483 c 0,13,14
 1062 1483 1062 1483 1186 1366 c 1,15,-1
 1106 1222 l 1,16,17
 999 1313 999 1313 838 1313 c 0,18,19
 754 1313 754 1313 684 1274 c 128,-1,20
 614 1235 614 1235 564.5 1166.5 c 128,-1,21
 515 1098 515 1098 482.5 1011.5 c 128,-1,22
 450 925 450 925 433 823 c 0,23,24
 429 803 429 803 425 761 c 1,25,26
 559 942 559 942 788 942 c 0,27,28
 984 942 984 942 1098 812 c 0,29,30
 1195 701 1195 701 1195 528 c 0,31,32
 1195 499 1195 499 1192 468 c 0,33,34
 1174 254 1174 254 1030.5 115.5 c 128,-1,35
 887 -23 887 -23 668 -23 c 0,0,1
685 146 m 0,36,37
 813 146 813 146 894.5 235 c 128,-1,38
 976 324 976 324 988 463 c 0,39,40
 990 487 990 487 990 509 c 0,41,42
 990 619 990 619 938 693 c 0,43,44
 874 782 874 782 739 782 c 0,45,46
 609 782 609 782 519.5 702.5 c 128,-1,47
 430 623 430 623 419 499 c 0,48,49
 417 472 417 472 417 446 c 0,50,51
 418 318 418 318 476 240 c 0,52,53
 546 146 546 146 685 146 c 0,36,37
EndSplineSet
EndChar

StartChar: seven
Encoding: 55 55 26
Width: 1230
GlyphClass: 2
Flags: W
LayerCount: 2
UndoRedoHistory
Layer: 1
Undoes
EndUndoes
Redoes
EndRedoes
EndUndoRedoHistory
Fore
SplineSet
333 0 m 1,0,-1
 966 1292 l 1,1,-1
 265 1292 l 1,2,-1
 280 1456 l 1,3,-1
 1202 1456 l 1,4,-1
 1190 1308 l 1,5,-1
 547 0 l 1,6,-1
 333 0 l 1,0,-1
EndSplineSet
EndChar

StartChar: eight
Encoding: 56 56 27
Width: 1230
GlyphClass: 2
Flags: W
LayerCount: 2
UndoRedoHistory
Layer: 1
Undoes
EndUndoes
Redoes
EndRedoes
EndUndoRedoHistory
Fore
SplineSet
634 -23 m 0,0,1
 498 -23 498 -23 391.5 23 c 0,2,3
 284 68 284 68 224 162 c 0,4,5
 173 241 173 241 173 343 c 0,6,7
 173 361 173 361 175 381 c 0,8,9
 187 515 187 515 272 614 c 128,-1,10
 357 713 357 713 503 763 c 1,11,12
 383 811 383 811 322 899 c 0,13,14
 270 974 270 974 270 1073 c 0,15,16
 270 1091 270 1091 272 1109 c 0,17,18
 287 1281 287 1281 425.5 1382 c 128,-1,19
 564 1483 564 1483 764 1483 c 0,20,21
 968 1484 968 1484 1087 1382 c 0,22,23
 1193 1292 1193 1292 1193 1144 c 0,24,25
 1193 1125 1193 1125 1191 1106 c 0,26,27
 1180 983 1180 983 1104.5 895 c 128,-1,28
 1029 807 1029 807 902 762 c 1,29,30
 1036 713 1036 713 1104 612 c 0,31,32
 1163 525 1163 525 1163 415 c 0,33,34
 1163 397 1163 397 1161 379 c 0,35,36
 1150 254 1150 254 1072.5 161 c 128,-1,37
 995 68 995 68 881 22.5 c 128,-1,38
 767 -23 767 -23 634 -23 c 0,0,1
648 140 m 128,-1,40
 780 140 780 140 866.5 206.5 c 128,-1,41
 953 273 953 273 963 394 c 0,42,43
 964 406 964 406 964 417 c 0,44,45
 964 510 964 510 898 578 c 0,46,47
 824 654 824 654 696 683 c 1,48,49
 560 656 560 656 473 580.5 c 128,-1,50
 386 505 386 505 377 393 c 0,51,52
 376 379 376 379 376 366 c 0,53,54
 376 267 376 267 442 207 c 0,55,39
 516 140 516 140 648 140 c 128,-1,40
708 843 m 1,56,57
 837 870 837 870 911.5 937 c 128,-1,58
 986 1004 986 1004 995 1106 c 0,59,60
 996 1117 996 1117 996 1128 c 0,61,62
 996 1213 996 1213 932 1265 c 0,63,64
 860 1324 860 1324 750 1324 c 0,65,66
 637 1324 637 1324 557 1265 c 128,-1,67
 477 1206 477 1206 468 1103 c 0,68,69
 467 1090 467 1090 467 1078 c 0,70,71
 468 994 468 994 522 936 c 0,72,73
 584 869 584 869 708 843 c 1,56,57
EndSplineSet
EndChar

StartChar: nine
Encoding: 57 57 28
Width: 1230
GlyphClass: 2
Flags: W
LayerCount: 2
UndoRedoHistory
Layer: 1
Undoes
EndUndoes
Redoes
EndRedoes
EndUndoRedoHistory
Fore
SplineSet
562 -24 m 0,0,1
 392 -24 392 -24 199 78 c 1,2,-1
 281 233 l 1,3,4
 429 146 429 146 562 146 c 0,5,6
 722 146 722 146 829.5 274.5 c 128,-1,7
 937 403 937 403 959 648 c 1,8,-1
 962 701 l 1,9,10
 856 536 856 536 631 536 c 0,11,12
 428 536 428 536 320 664 c 0,13,14
 227 774 227 774 227 942 c 0,15,16
 227 970 227 970 230 1000 c 0,17,18
 248 1210 248 1210 389.5 1346.5 c 128,-1,19
 531 1483 531 1483 748 1483 c 0,20,21
 985 1483 985 1483 1093 1300 c 0,22,23
 1178 1157 1178 1157 1178 915 c 0,24,25
 1178 848 1178 848 1171 773 c 0,26,27
 1154 576 1154 576 1100 422 c 128,-1,28
 1046 268 1046 268 964.5 171.5 c 128,-1,29
 883 75 883 75 781 25.5 c 128,-1,30
 679 -24 679 -24 562 -24 c 0,0,1
433 1006 m 0,31,32
 431 982 431 982 431 960 c 0,33,34
 430 854 430 854 478 784 c 0,35,36
 536 700 536 700 670 700 c 0,37,38
 796 700 796 700 881.5 780 c 128,-1,39
 967 860 967 860 979 999 c 0,40,41
 981 1018 981 1018 981 1037 c 0,42,43
 981 1144 981 1144 926 1222 c 0,44,45
 862 1314 862 1314 731 1313 c 0,46,47
 606 1313 606 1313 525 1227.5 c 128,-1,48
 444 1142 444 1142 433 1006 c 0,31,32
EndSplineSet
EndChar

StartChar: colon
Encoding: 58 58 29
Width: 543
GlyphClass: 2
Flags: W
LayerCount: 2
UndoRedoHistory
Layer: 1
Undoes
EndUndoes
Redoes
EndRedoes
EndUndoRedoHistory
Fore
SplineSet
152 -4 m 1,0,-1
 172 225 l 1,1,-1
 415 225 l 1,2,-1
 395 -4 l 1,3,-1
 152 -4 l 1,0,-1
228 862 m 1,4,-1
 247 1090 l 1,5,-1
 490 1090 l 1,6,-1
 470 862 l 1,7,-1
 228 862 l 1,4,-1
EndSplineSet
EndChar

StartChar: semicolon
Encoding: 59 59 30
Width: 543
GlyphClass: 2
Flags: W
LayerCount: 2
UndoRedoHistory
Layer: 1
Undoes
EndUndoes
Redoes
EndRedoes
EndUndoRedoHistory
Fore
SplineSet
51 -250 m 1,0,-1
 199 226 l 1,1,-1
 415 226 l 1,2,-1
 207 -250 l 1,3,-1
 51 -250 l 1,0,-1
223 855 m 1,4,-1
 243 1083 l 1,5,-1
 471 1083 l 1,6,-1
 451 855 l 1,7,-1
 223 855 l 1,4,-1
EndSplineSet
EndChar

StartChar: less
Encoding: 60 60 31
Width: 1274
GlyphClass: 2
Flags: W
LayerCount: 2
UndoRedoHistory
Layer: 1
Undoes
EndUndoes
Redoes
EndRedoes
EndUndoRedoHistory
Fore
SplineSet
1079 45 m 1,0,-1
 180 525 l 1,1,-1
 188 622 l 1,2,-1
 1176 1082 l 1,3,-1
 1160 905 l 1,4,-1
 416 570 l 1,5,-1
 1095 219 l 1,6,-1
 1079 45 l 1,0,-1
EndSplineSet
EndChar

StartChar: equal
Encoding: 61 61 32
Width: 1275
GlyphClass: 2
Flags: W
LayerCount: 2
UndoRedoHistory
Layer: 1
Undoes
EndUndoes
Redoes
EndRedoes
EndUndoRedoHistory
Fore
SplineSet
201 674 m 1,0,-1
 215 831 l 1,1,-1
 1193 831 l 1,2,-1
 1179 674 l 1,3,-1
 201 674 l 1,0,-1
167 277 m 1,4,-1
 181 434 l 1,5,-1
 1159 434 l 1,6,-1
 1146 277 l 1,7,-1
 167 277 l 1,4,-1
EndSplineSet
EndChar

StartChar: greater
Encoding: 62 62 33
Width: 1274
GlyphClass: 2
Flags: W
LayerCount: 2
UndoRedoHistory
Layer: 1
Undoes
EndUndoes
Redoes
EndRedoes
EndUndoRedoHistory
Fore
SplineSet
204 48 m 1,0,-1
 220 226 l 1,1,-1
 959 556 l 1,2,-1
 284 911 l 1,3,-1
 300 1086 l 1,4,-1
 1200 598 l 1,5,-1
 1191 498 l 1,6,-1
 204 48 l 1,0,-1
EndSplineSet
EndChar

StartChar: question
Encoding: 63 63 34
Width: 1057
GlyphClass: 2
Flags: W
LayerCount: 2
UndoRedoHistory
Layer: 1
Undoes
EndUndoes
Redoes
EndRedoes
EndUndoRedoHistory
Fore
SplineSet
392 377 m 1,0,-1
 400 535 l 1,1,2
 404 585 404 585 429 633.5 c 128,-1,3
 454 682 454 682 490.5 721 c 128,-1,4
 527 760 527 760 570.5 798.5 c 128,-1,5
 614 837 614 837 657.5 874.5 c 128,-1,6
 701 912 701 912 737.5 949.5 c 128,-1,7
 774 987 774 987 798.5 1031.5 c 128,-1,8
 823 1076 823 1076 827 1122 c 0,9,10
 828 1132 828 1132 828 1142 c 0,11,12
 828 1226 828 1226 767 1268 c 0,13,14
 699 1316 699 1316 587 1315 c 0,15,16
 448 1315 448 1315 302 1242 c 1,17,-1
 316 1412 l 1,18,19
 468 1480 468 1480 625 1480 c 0,20,21
 814 1480 814 1480 925 1390 c 0,22,23
 1024 1310 1024 1310 1024 1167 c 0,24,25
 1024 1149 1024 1149 1022 1130 c 0,26,27
 1017 1073 1017 1073 990.5 1020.5 c 128,-1,28
 964 968 964 968 925.5 925.5 c 128,-1,29
 887 883 887 883 841.5 842 c 128,-1,30
 796 801 796 801 750 761.5 c 128,-1,31
 704 722 704 722 665.5 681.5 c 128,-1,32
 627 641 627 641 601 591.5 c 128,-1,33
 575 542 575 542 570 490 c 0,34,35
 569 487 569 487 564.5 433.5 c 128,-1,36
 560 380 560 380 560 377 c 1,37,-1
 392 377 l 1,0,-1
332 -7 m 1,38,-1
 352 222 l 1,39,-1
 591 222 l 1,40,-1
 571 -7 l 1,41,-1
 332 -7 l 1,38,-1
EndSplineSet
EndChar

StartChar: at
Encoding: 64 64 35
Width: 1648
GlyphClass: 2
Flags: W
LayerCount: 2
UndoRedoHistory
Layer: 1
Undoes
EndUndoes
Redoes
EndRedoes
EndUndoRedoHistory
Fore
SplineSet
793 431 m 0,0,1
 865 431 865 431 931 490 c 128,-1,2
 997 549 997 549 1039 642.5 c 128,-1,3
 1081 736 1081 736 1090 837 c 0,4,5
 1092 854 1092 854 1092 870 c 0,6,7
 1092 1003 1092 1003 976 1003 c 0,8,9
 899 1003 899 1003 829 941 c 128,-1,10
 759 879 759 879 717 789 c 128,-1,11
 675 699 675 699 667 608 c 0,12,13
 666 594 666 594 666 580 c 0,14,15
 666 518 666 518 692 479 c 0,16,17
 724 431 724 431 793 431 c 0,0,1
864 -67 m 0,18,19
 700 -67 700 -67 562.5 -10.5 c 128,-1,20
 425 46 425 46 332 146 c 0,21,22
 240 246 240 246 194 388 c 0,23,24
 159 497 159 497 159 619 c 0,25,26
 159 657 159 657 162 695 c 0,27,28
 182 920 182 920 302.5 1100 c 128,-1,29
 423 1280 423 1280 609 1379 c 128,-1,30
 795 1478 795 1478 1009 1478 c 0,31,32
 1156 1478 1156 1478 1278 1428 c 128,-1,33
 1400 1378 1400 1378 1482 1290.5 c 0,34,35
 1564 1202 1564 1202 1604 1078 c 0,36,37
 1634 984 1634 984 1634 879 c 0,38,39
 1634 845 1634 845 1631 809 c 0,40,41
 1619 666 1619 666 1559 541.5 c 128,-1,42
 1499 417 1499 417 1406 342 c 128,-1,43
 1313 267 1313 267 1210 267 c 0,44,45
 1124 267 1124 267 1077.5 310 c 128,-1,46
 1031 353 1031 353 1026 431 c 1,47,48
 1026 463 1026 463 1027 470 c 1,49,50
 974 385 974 385 903.5 336 c 128,-1,51
 833 287 833 287 753 287 c 0,52,53
 636 287 636 287 560 379 c 0,54,55
 496 457 496 457 497 586 c 0,56,57
 497 610 497 610 499 636 c 0,58,59
 508 738 508 738 554.5 834.5 c 128,-1,60
 601 931 601 931 668 1000.5 c 128,-1,61
 735 1070 735 1070 816.5 1112 c 128,-1,62
 898 1154 898 1154 975 1154 c 0,63,64
 1045 1154 1045 1154 1095 1119.5 c 128,-1,65
 1145 1085 1145 1085 1164 1020 c 1,66,-1
 1191 1120 l 1,67,-1
 1348 1120 l 1,68,-1
 1253 792 l 2,69,70
 1244 760 1244 760 1228 706.5 c 128,-1,71
 1212 653 1212 653 1205 629.5 c 128,-1,72
 1198 606 1198 606 1189.5 573.5 c 128,-1,73
 1181 541 1181 541 1177 522 c 128,-1,74
 1173 503 1173 503 1172 489 c 0,75,76
 1171 479 1171 479 1171 470 c 0,77,78
 1171 388 1171 388 1238 388 c 0,79,80
 1328 388 1328 388 1407 514 c 128,-1,81
 1486 640 1486 640 1502 814 c 1,82,83
 1505 846 1505 846 1505 876 c 0,84,85
 1505 1078 1505 1078 1383 1206 c 0,86,87
 1243 1354 1243 1354 1004 1354 c 0,88,89
 829 1354 829 1354 678 1271 c 128,-1,90
 527 1188 527 1188 429.5 1036 c 128,-1,91
 332 884 332 884 315 693 c 0,92,93
 312 659 312 659 312 627 c 0,94,95
 312 524 312 524 341 433 c 0,96,97
 379 314 379 314 455.5 233 c 128,-1,98
 532 152 532 152 643 107 c 128,-1,99
 754 62 754 62 885 62 c 0,100,101
 1146 62 1146 62 1358 222 c 1,102,-1
 1420 142 l 1,103,104
 1312 43 1312 43 1166 -12 c 128,-1,105
 1020 -67 1020 -67 864 -67 c 0,18,19
EndSplineSet
EndChar

StartChar: A
Encoding: 65 65 36
Width: 1396
GlyphClass: 2
Flags: W
AnchorPoint: "Anchor-2" 1260 0 basechar 0
AnchorPoint: "Anchor-1" 736 0 basechar 0
AnchorPoint: "Anchor-0" 814 1456 basechar 0
LayerCount: 2
UndoRedoHistory
Layer: 1
Undoes
EndUndoes
Redoes
EndRedoes
EndUndoRedoHistory
Fore
SplineSet
494 552 m 1,0,-1
 986 552 l 1,1,-1
 858 1054 l 1,2,-1
 803 1255 l 1,3,-1
 714 1053 l 1,4,-1
 494 552 l 1,0,-1
27 0 m 1,5,-1
 717 1456 l 1,6,-1
 924 1456 l 1,7,-1
 1373 0 l 1,8,-1
 1156 0 l 1,9,-1
 1036 382 l 1,10,-1
 422 382 l 1,11,-1
 246 0 l 1,12,-1
 27 0 l 1,5,-1
EndSplineSet
EndChar

StartChar: B
Encoding: 66 66 37
Width: 1337
GlyphClass: 2
Flags: W
AnchorPoint: "Anchor-1" 676 0 basechar 0
AnchorPoint: "Anchor-0" 700 1456 basechar 0
LayerCount: 2
UndoRedoHistory
Layer: 1
Undoes
EndUndoes
Redoes
EndRedoes
EndUndoRedoHistory
Fore
SplineSet
189 0 m 1,0,-1
 317 1456 l 1,1,-1
 656 1456 l 2,2,3
 723 1456 723 1456 773.5 1454 c 128,-1,4
 824 1452 824 1452 893 1444 c 128,-1,5
 962 1436 962 1436 1012 1422 c 128,-1,6
 1062 1408 1062 1408 1114 1381.5 c 128,-1,7
 1166 1355 1166 1355 1197.5 1318 c 128,-1,8
 1229 1281 1229 1281 1246 1225 c 0,9,10
 1259 1184 1259 1184 1259 1135 c 0,11,12
 1259 1118 1259 1118 1257 1099 c 0,13,14
 1247 986 1247 986 1175 898 c 128,-1,15
 1103 810 1103 810 986 771 c 1,16,17
 1130 742 1130 742 1204 646 c 0,18,19
 1267 564 1267 564 1267 448 c 0,20,21
 1267 428 1267 428 1265 407 c 0,22,23
 1258 325 1258 325 1219.5 252.5 c 128,-1,24
 1181 180 1181 180 1115.5 123 c 128,-1,25
 1050 66 1050 66 950 33 c 128,-1,26
 850 0 850 0 728 0 c 2,27,-1
 189 0 l 1,0,-1
402 169 m 1,28,-1
 681 169 l 2,29,30
 853 169 853 169 949.5 230 c 128,-1,31
 1046 291 1046 291 1056 412 c 0,32,33
 1057 429 1057 429 1057 445 c 0,34,35
 1058 563 1058 563 980 614 c 0,36,37
 892 671 892 671 685 671 c 2,38,-1
 446 671 l 1,39,-1
 402 169 l 1,28,-1
460 837 m 1,40,-1
 676 837 l 2,41,42
 746 837 746 837 806 848 c 128,-1,43
 866 859 866 859 920 884.5 c 128,-1,44
 974 910 974 910 1007.5 957 c 128,-1,45
 1041 1004 1041 1004 1047 1070 c 0,46,47
 1048 1084 1048 1084 1048 1097 c 0,48,49
 1048 1145 1048 1145 1031 1180 c 0,50,51
 1009 1224 1009 1224 960 1247 c 128,-1,52
 911 1270 911 1270 851.5 1278.5 c 128,-1,53
 792 1287 792 1287 706 1287 c 2,54,-1
 500 1287 l 1,55,-1
 460 837 l 1,40,-1
EndSplineSet
EndChar

StartChar: C
Encoding: 67 67 38
Width: 1393
GlyphClass: 2
Flags: W
AnchorPoint: "Anchor-1" 826 0 basechar 0
AnchorPoint: "Anchor-0" 920 1456 basechar 0
LayerCount: 2
UndoRedoHistory
Layer: 1
Undoes
EndUndoes
Redoes
EndRedoes
EndUndoRedoHistory
Fore
SplineSet
800 -23 m 0,0,1
 635 -18 635 -18 507 42.5 c 128,-1,2
 379 103 379 103 302.5 203 c 128,-1,3
 226 303 226 303 192 433 c 0,4,5
 166 532 166 532 165 641 c 0,6,7
 165 676 165 676 168 712 c 0,8,9
 177 833 177 833 216 947 c 128,-1,10
 255 1061 255 1061 323 1158 c 128,-1,11
 391 1255 391 1255 481 1327.5 c 128,-1,12
 571 1400 571 1400 688 1441.5 c 128,-1,13
 805 1483 805 1483 936 1483 c 0,14,15
 1222 1483 1222 1483 1391 1321 c 1,16,-1
 1304 1189 l 1,17,18
 1144 1313 1144 1313 943 1313 c 0,19,20
 818 1313 818 1313 713 1263 c 128,-1,21
 608 1213 608 1213 538.5 1128 c 128,-1,22
 469 1043 469 1043 427 936.5 c 128,-1,23
 385 830 385 830 376 712 c 0,24,25
 373 678 373 678 373 646 c 0,26,27
 373 592 373 592 381 540 c 0,28,29
 393 458 393 458 427.5 386.5 c 128,-1,30
 462 315 462 315 515.5 262.5 c 128,-1,31
 569 210 569 210 650.5 179 c 128,-1,32
 732 148 732 148 834 146 c 0,33,34
 839 146 839 146 845 146 c 0,35,36
 950 146 950 146 1062 183 c 0,37,38
 1180 222 1180 222 1271 294 c 1,39,-1
 1323 132 l 1,40,41
 1114 -24 1114 -24 834 -24 c 0,42,43
 817 -24 817 -24 800 -23 c 0,0,1
EndSplineSet
EndChar

StartChar: D
Encoding: 68 68 39
Width: 1526
GlyphClass: 2
Flags: W
AnchorPoint: "Anchor-1" 676 0 basechar 0
AnchorPoint: "Anchor-0" 750 1456 basechar 0
LayerCount: 2
UndoRedoHistory
Layer: 1
Undoes
EndUndoes
Redoes
EndRedoes
EndUndoRedoHistory
Fore
SplineSet
402 169 m 1,0,-1
 641 169 l 2,1,2
 934 169 934 169 1093.5 316 c 128,-1,3
 1253 463 1253 463 1275 724 c 0,4,5
 1279 768 1279 768 1279 809 c 0,6,7
 1280 1042 1280 1042 1152 1154 c 0,8,9
 1002 1286 1002 1286 654 1287 c 2,10,-1
 500 1287 l 1,11,-1
 402 169 l 1,0,-1
189 0 m 1,12,-1
 317 1456 l 1,13,-1
 648 1456 l 2,14,15
 814 1456 814 1456 948 1431 c 128,-1,16
 1082 1406 1082 1406 1190 1351 c 128,-1,17
 1298 1296 1298 1296 1367 1212 c 128,-1,18
 1436 1128 1436 1128 1467 1005 c 0,19,20
 1488 920 1488 920 1488 819 c 0,21,22
 1488 773 1488 773 1484 725 c 0,23,24
 1454 382 1454 382 1227 191 c 128,-1,25
 1000 0 1000 0 611 0 c 2,26,-1
 189 0 l 1,12,-1
EndSplineSet
EndChar

StartChar: E
Encoding: 69 69 40
Width: 1184
GlyphClass: 2
Flags: W
AnchorPoint: "Anchor-2" 770 0 basechar 0
AnchorPoint: "Anchor-1" 658 0 basechar 0
AnchorPoint: "Anchor-0" 734 1456 basechar 0
LayerCount: 2
UndoRedoHistory
Layer: 1
Undoes
EndUndoes
Redoes
EndRedoes
EndUndoRedoHistory
Fore
SplineSet
189 0 m 1,0,-1
 317 1456 l 1,1,-1
 1193 1456 l 1,2,-1
 1179 1287 l 1,3,-1
 500 1287 l 1,4,-1
 460 830 l 1,5,-1
 1101 830 l 1,6,-1
 1086 661 l 1,7,-1
 445 661 l 1,8,-1
 402 169 l 1,9,-1
 1110 169 l 1,10,-1
 1095 0 l 1,11,-1
 189 0 l 1,0,-1
EndSplineSet
EndChar

StartChar: F
Encoding: 70 70 41
Width: 1115
GlyphClass: 2
Flags: W
AnchorPoint: "Anchor-1" 676 0 basechar 0
AnchorPoint: "Anchor-0" 743 1456 basechar 0
LayerCount: 2
UndoRedoHistory
Layer: 1
Undoes
EndUndoes
Redoes
EndRedoes
EndUndoRedoHistory
Fore
SplineSet
189 0 m 1,0,-1
 317 1456 l 1,1,-1
 1157 1456 l 1,2,-1
 1143 1287 l 1,3,-1
 500 1287 l 1,4,-1
 460 827 l 1,5,-1
 1064 827 l 1,6,-1
 1049 659 l 1,7,-1
 445 659 l 1,8,-1
 387 0 l 1,9,-1
 189 0 l 1,0,-1
EndSplineSet
EndChar

StartChar: G
Encoding: 71 71 42
Width: 1514
GlyphClass: 2
Flags: W
AnchorPoint: "Anchor-1" 826 0 basechar 0
AnchorPoint: "Anchor-0" 903 1456 basechar 0
LayerCount: 2
UndoRedoHistory
Layer: 1
Undoes
EndUndoes
Redoes
EndRedoes
EndUndoRedoHistory
Fore
SplineSet
841 -23 m 0,0,1
 604 -23 604 -23 444.5 68 c 0,2,3
 284 159 284 159 216 321 c 0,4,5
 162 448 162 448 163 610 c 0,6,7
 163 655 163 655 167 702 c 0,8,9
 181 862 181 862 245 1004 c 128,-1,10
 309 1146 309 1146 413.5 1252.5 c 128,-1,11
 518 1359 518 1359 667.5 1421 c 128,-1,12
 817 1483 817 1483 991 1483 c 0,13,14
 1076 1483 1076 1483 1155 1468 c 128,-1,15
 1234 1453 1234 1453 1286 1431.5 c 128,-1,16
 1338 1410 1338 1410 1378 1388 c 128,-1,17
 1418 1366 1418 1366 1436 1351 c 2,18,-1
 1455 1336 l 1,19,-1
 1370 1189 l 1,20,21
 1365 1194 1365 1194 1354.5 1202.5 c 128,-1,22
 1344 1211 1344 1211 1307 1232.5 c 128,-1,23
 1270 1254 1270 1254 1228.5 1270 c 128,-1,24
 1187 1286 1187 1286 1119.5 1299.5 c 128,-1,25
 1052 1313 1052 1313 979 1313 c 0,26,27
 848 1313 848 1313 736.5 1263 c 128,-1,28
 625 1213 625 1213 550.5 1128.5 c 128,-1,29
 476 1044 476 1044 430 937.5 c 128,-1,30
 384 831 384 831 374 714 c 0,31,32
 370 674 370 674 370 636 c 0,33,34
 370 430 370 430 476 300 c 0,35,36
 602 146 602 146 869 146 c 0,37,38
 1042 146 1042 146 1186 198 c 1,39,-1
 1221 598 l 1,40,-1
 850 598 l 1,41,-1
 865 768 l 1,42,-1
 1426 768 l 1,43,-1
 1368 85 l 1,44,45
 1131 -23 1131 -23 841 -23 c 0,0,1
EndSplineSet
EndChar

StartChar: H
Encoding: 72 72 43
Width: 1533
GlyphClass: 2
Flags: W
AnchorPoint: "Anchor-1" 788 0 basechar 0
AnchorPoint: "Anchor-0" 866 1456 basechar 0
LayerCount: 2
UndoRedoHistory
Layer: 1
Undoes
EndUndoes
Redoes
EndRedoes
EndUndoRedoHistory
Fore
SplineSet
189 0 m 1,0,-1
 317 1456 l 1,1,-1
 514 1456 l 1,2,-1
 460 832 l 1,3,-1
 1220 832 l 1,4,-1
 1275 1456 l 1,5,-1
 1471 1456 l 1,6,-1
 1343 0 l 1,7,-1
 1148 0 l 1,8,-1
 1206 663 l 1,9,-1
 446 663 l 1,10,-1
 388 0 l 1,11,-1
 189 0 l 1,0,-1
EndSplineSet
EndChar

StartChar: I
Encoding: 73 73 44
Width: 578
GlyphClass: 2
Flags: W
AnchorPoint: "Anchor-1" 286 1 basechar 0
AnchorPoint: "Anchor-0" 409 1456 basechar 0
LayerCount: 2
UndoRedoHistory
Layer: 1
Undoes
EndUndoes
Redoes
EndRedoes
EndUndoRedoHistory
Fore
SplineSet
189 0 m 1,0,-1
 317 1456 l 1,1,-1
 513 1456 l 1,2,-1
 385 0 l 1,3,-1
 189 0 l 1,0,-1
EndSplineSet
EndChar

StartChar: J
Encoding: 74 74 45
Width: 719
GlyphClass: 2
Flags: W
AnchorPoint: "Anchor-0" 550 1456 basechar 0
LayerCount: 2
UndoRedoHistory
Layer: 1
Undoes
EndUndoes
Redoes
EndRedoes
EndUndoRedoHistory
Fore
SplineSet
158 -343 m 0,0,1
 34 -343 34 -343 -91 -295 c 1,2,-1
 -49 -138 l 1,3,4
 65 -175 65 -175 146 -175 c 0,5,6
 246 -175 246 -175 287 -108.5 c 128,-1,7
 328 -42 328 -42 341 107 c 2,8,-1
 458 1456 l 1,9,-1
 658 1456 l 1,10,-1
 539 105 l 2,11,12
 520 -118 520 -118 423.5 -230.5 c 128,-1,13
 327 -343 327 -343 158 -343 c 0,0,1
EndSplineSet
EndChar

StartChar: K
Encoding: 75 75 46
Width: 1286
GlyphClass: 2
Flags: W
AnchorPoint: "Anchor-1" 726 0 basechar 0
AnchorPoint: "Anchor-0" 757 1456 basechar 0
LayerCount: 2
UndoRedoHistory
Layer: 1
Undoes
EndUndoes
Redoes
EndRedoes
EndUndoRedoHistory
Fore
SplineSet
189 0 m 1,0,-1
 317 1456 l 1,1,-1
 514 1456 l 1,2,-1
 456 798 l 1,3,-1
 1130 1456 l 1,4,-1
 1377 1456 l 1,5,-1
 652 748 l 1,6,-1
 1297 0 l 1,7,-1
 1037 0 l 1,8,-1
 448 685 l 1,9,-1
 387 0 l 1,10,-1
 189 0 l 1,0,-1
EndSplineSet
EndChar

StartChar: L
Encoding: 76 76 47
Width: 1098
GlyphClass: 2
Flags: W
AnchorPoint: "Anchor-1" 596 0 basechar 0
AnchorPoint: "Anchor-0" 580 1456 basechar 0
LayerCount: 2
UndoRedoHistory
Layer: 1
Undoes
EndUndoes
Redoes
EndRedoes
EndUndoRedoHistory
Fore
SplineSet
187 0 m 1,0,-1
 315 1456 l 1,1,-1
 512 1456 l 1,2,-1
 399 169 l 1,3,-1
 1075 169 l 1,4,-1
 1060 0 l 1,5,-1
 187 0 l 1,0,-1
EndSplineSet
EndChar

StartChar: M
Encoding: 77 77 48
Width: 1907
GlyphClass: 2
Flags: W
AnchorPoint: "Anchor-1" 976 0 basechar 0
AnchorPoint: "Anchor-0" 1051 1456 basechar 0
LayerCount: 2
UndoRedoHistory
Layer: 1
Undoes
EndUndoes
Redoes
EndRedoes
EndUndoRedoHistory
Fore
SplineSet
189 0 m 1,0,-1
 317 1456 l 1,1,-1
 555 1456 l 1,2,-1
 904 482 l 1,3,-1
 979 275 l 1,4,-1
 1091 487 l 1,5,-1
 1614 1456 l 1,6,-1
 1845 1456 l 1,7,-1
 1717 0 l 1,8,-1
 1528 0 l 1,9,-1
 1629 1130 l 1,10,-1
 1537 959 l 1,11,-1
 1026 0 l 1,12,-1
 886 0 l 1,13,-1
 538 980 l 1,14,-1
 483 1145 l 1,15,-1
 382 0 l 1,16,-1
 189 0 l 1,0,-1
EndSplineSet
EndChar

StartChar: N
Encoding: 78 78 49
Width: 1574
GlyphClass: 2
Flags: W
AnchorPoint: "Anchor-1" 754 0 basechar 0
AnchorPoint: "Anchor-0" 877 1456 basechar 0
LayerCount: 2
UndoRedoHistory
Layer: 1
Undoes
EndUndoes
Redoes
EndRedoes
EndUndoRedoHistory
Fore
SplineSet
189 0 m 1,0,-1
 317 1456 l 1,1,-1
 531 1456 l 1,2,-1
 1137 424 l 1,3,-1
 1218 284 l 1,4,-1
 1321 1456 l 1,5,-1
 1513 1456 l 1,6,-1
 1385 0 l 1,7,-1
 1170 0 l 1,8,-1
 561 1030 l 1,9,-1
 482 1169 l 1,10,-1
 380 0 l 1,11,-1
 189 0 l 1,0,-1
EndSplineSet
EndChar

StartChar: O
Encoding: 79 79 50
Width: 1628
GlyphClass: 2
Flags: W
AnchorPoint: "Anchor-1" 826 0 basechar 0
AnchorPoint: "Anchor-0" 932 1456 basechar 0
LayerCount: 2
UndoRedoHistory
Layer: 1
Undoes
EndUndoes
Redoes
EndRedoes
EndUndoRedoHistory
Fore
SplineSet
826 146 m 0,0,1
 949 146 949 146 1048.5 190.5 c 128,-1,2
 1148 235 1148 235 1215 314.5 c 128,-1,3
 1282 394 1282 394 1321.5 500 c 128,-1,4
 1361 606 1361 606 1372 734 c 0,5,6
 1376 777 1376 777 1376 817 c 0,7,8
 1376 894 1376 894 1362 963 c 0,9,10
 1341 1067 1341 1067 1288.5 1146 c 128,-1,11
 1236 1225 1236 1225 1144.5 1269.5 c 128,-1,12
 1053 1314 1053 1314 931 1314 c 0,13,14
 834 1314 834 1314 749 1283 c 128,-1,15
 664 1252 664 1252 601 1197 c 128,-1,16
 538 1142 538 1142 491 1067.5 c 128,-1,17
 444 993 444 993 417 906.5 c 128,-1,18
 390 820 390 820 382 725 c 0,19,20
 378 684 378 684 378 645 c 0,21,22
 378 568 378 568 393 498 c 0,23,24
 415 394 415 394 467.5 314.5 c 128,-1,25
 520 235 520 235 612 190.5 c 128,-1,26
 704 146 704 146 826 146 c 0,0,1
814 -23 m 0,27,28
 480 -23 480 -23 310 180 c 0,29,30
 166 353 166 353 166 629 c 0,31,32
 166 678 166 678 170 730 c 0,33,34
 184 894 184 894 244.5 1032 c 128,-1,35
 305 1170 305 1170 403.5 1270 c 128,-1,36
 502 1370 502 1370 643 1426.5 c 128,-1,37
 784 1483 784 1483 952 1483 c 0,38,39
 1278 1484 1278 1484 1447 1278 c 0,40,41
 1591 1103 1591 1103 1591 826 c 0,42,43
 1591 777 1591 777 1586 725 c 0,44,45
 1572 560 1572 560 1512.5 422.5 c 128,-1,46
 1453 285 1453 285 1355.5 186 c 128,-1,47
 1258 87 1258 87 1119 32 c 128,-1,48
 980 -23 980 -23 814 -23 c 0,27,28
EndSplineSet
EndChar

StartChar: P
Encoding: 80 80 51
Width: 1261
GlyphClass: 2
Flags: W
AnchorPoint: "Anchor-1" 676 0 basechar 0
AnchorPoint: "Anchor-0" 720 1456 basechar 0
LayerCount: 2
UndoRedoHistory
Layer: 1
Undoes
EndUndoes
Redoes
EndRedoes
EndUndoRedoHistory
Fore
SplineSet
189 0 m 1,0,-1
 317 1456 l 1,1,-1
 698 1456 l 2,2,3
 780 1456 780 1456 840 1453 c 128,-1,4
 900 1450 900 1450 967.5 1440.5 c 128,-1,5
 1035 1431 1035 1431 1081 1413.5 c 128,-1,6
 1127 1396 1127 1396 1171 1366.5 c 128,-1,7
 1215 1337 1215 1337 1239 1295 c 128,-1,8
 1263 1253 1263 1253 1275 1193 c 0,9,10
 1283 1155 1283 1155 1283 1110 c 0,11,12
 1283 1084 1283 1084 1280 1056 c 0,13,14
 1270 943 1270 943 1223.5 863.5 c 128,-1,15
 1177 784 1177 784 1097 739.5 c 128,-1,16
 1017 695 1017 695 918.5 675 c 128,-1,17
 820 655 820 655 691 655 c 2,18,-1
 444 655 l 1,19,-1
 389 0 l 1,20,-1
 189 0 l 1,0,-1
460 823 m 1,21,-1
 720 823 l 2,22,23
 800 823 800 823 859 833.5 c 128,-1,24
 918 844 918 844 967 869 c 128,-1,25
 1016 894 1016 894 1043.5 940 c 128,-1,26
 1071 986 1071 986 1077 1054 c 0,27,28
 1078 1071 1078 1071 1078 1086 c 0,29,30
 1078 1113 1078 1113 1074 1136 c 0,31,32
 1067 1172 1067 1172 1053.5 1196.5 c 128,-1,33
 1040 1221 1040 1221 1013 1238 c 128,-1,34
 986 1255 986 1255 959 1264.5 c 128,-1,35
 932 1274 932 1274 888 1279 c 128,-1,36
 844 1284 844 1284 807 1285.5 c 128,-1,37
 770 1287 770 1287 714 1287 c 2,38,-1
 500 1287 l 1,39,-1
 460 823 l 1,21,-1
EndSplineSet
EndChar

StartChar: Q
Encoding: 81 81 52
Width: 1628
GlyphClass: 2
Flags: W
LayerCount: 2
UndoRedoHistory
Layer: 1
Undoes
EndUndoes
Redoes
EndRedoes
EndUndoRedoHistory
Fore
SplineSet
1142 -430 m 1,0,1
 1135 -422 1135 -422 1122 -408 c 128,-1,2
 1109 -394 1109 -394 1072.5 -349.5 c 128,-1,3
 1036 -305 1036 -305 1003.5 -258 c 128,-1,4
 971 -211 971 -211 932 -143 c 128,-1,5
 893 -75 893 -75 867 -9 c 1,6,-1
 1052 25 l 1,7,8
 1083 -54 1083 -54 1138.5 -135.5 c 128,-1,9
 1194 -217 1194 -217 1234 -260 c 2,10,-1
 1273 -302 l 1,11,-1
 1142 -430 l 1,0,1
826 146 m 0,12,13
 949 146 949 146 1048.5 190.5 c 128,-1,14
 1148 235 1148 235 1215 314.5 c 128,-1,15
 1282 394 1282 394 1321.5 500 c 128,-1,16
 1361 606 1361 606 1372 734 c 0,17,18
 1376 777 1376 777 1376 817 c 0,19,20
 1376 894 1376 894 1362 963 c 0,21,22
 1341 1067 1341 1067 1288.5 1146 c 128,-1,23
 1236 1225 1236 1225 1144.5 1269.5 c 128,-1,24
 1053 1314 1053 1314 931 1314 c 0,25,26
 834 1314 834 1314 749 1283 c 128,-1,27
 664 1252 664 1252 601 1197 c 128,-1,28
 538 1142 538 1142 491 1067.5 c 128,-1,29
 444 993 444 993 417 906.5 c 128,-1,30
 390 820 390 820 382 725 c 0,31,32
 378 684 378 684 378 645 c 0,33,34
 378 568 378 568 393 498 c 0,35,36
 415 394 415 394 467.5 314.5 c 128,-1,37
 520 235 520 235 612 190.5 c 128,-1,38
 704 146 704 146 826 146 c 0,12,13
814 -23 m 0,39,40
 480 -23 480 -23 310 180 c 0,41,42
 166 353 166 353 166 629 c 0,43,44
 166 678 166 678 170 730 c 0,45,46
 184 894 184 894 244.5 1032 c 128,-1,47
 305 1170 305 1170 403.5 1270 c 128,-1,48
 502 1370 502 1370 643 1426.5 c 128,-1,49
 784 1483 784 1483 952 1483 c 0,50,51
 1278 1484 1278 1484 1447 1278 c 0,52,53
 1591 1103 1591 1103 1591 826 c 0,54,55
 1591 777 1591 777 1586 725 c 0,56,57
 1572 560 1572 560 1512.5 422.5 c 128,-1,58
 1453 285 1453 285 1355.5 186 c 128,-1,59
 1258 87 1258 87 1119 32 c 128,-1,60
 980 -23 980 -23 814 -23 c 0,39,40
EndSplineSet
EndChar

StartChar: R
Encoding: 82 82 53
Width: 1341
GlyphClass: 2
Flags: W
AnchorPoint: "Anchor-1" 676 0 basechar 0
AnchorPoint: "Anchor-0" 717 1456 basechar 0
LayerCount: 2
UndoRedoHistory
Layer: 1
Undoes
EndUndoes
Redoes
EndRedoes
EndUndoRedoHistory
Fore
SplineSet
189 0 m 1,0,-1
 317 1456 l 1,1,-1
 708 1456 l 2,2,3
 755 1456 755 1456 791 1455 c 128,-1,4
 827 1454 827 1454 876.5 1449.5 c 128,-1,5
 926 1445 926 1445 963 1437 c 128,-1,6
 1000 1429 1000 1429 1043.5 1414.5 c 128,-1,7
 1087 1400 1087 1400 1118 1380 c 128,-1,8
 1149 1360 1149 1360 1178 1330 c 128,-1,9
 1207 1300 1207 1300 1224 1262 c 128,-1,10
 1241 1224 1241 1224 1249 1173 c 0,11,12
 1254 1144 1254 1144 1254 1111 c 0,13,14
 1254 1087 1254 1087 1251 1061 c 0,15,16
 1225 773 1225 773 956 699 c 1,17,18
 961 698 961 698 969 694 c 128,-1,19
 977 690 977 690 1001 670.5 c 128,-1,20
 1025 651 1025 651 1047 622.5 c 128,-1,21
 1069 594 1069 594 1097 538.5 c 128,-1,22
 1125 483 1125 483 1146 412 c 2,23,-1
 1271 0 l 1,24,-1
 1059 0 l 1,25,-1
 934 420 l 2,26,27
 913 490 913 490 897 527 c 128,-1,28
 881 564 881 564 854 593 c 128,-1,29
 827 622 827 622 788.5 632 c 128,-1,30
 750 642 750 642 688 642 c 2,31,-1
 444 642 l 1,32,-1
 388 0 l 1,33,-1
 189 0 l 1,0,-1
458 809 m 1,34,-1
 721 809 l 2,35,36
 863 809 863 809 948.5 864 c 128,-1,37
 1034 919 1034 919 1046 1053 c 0,38,39
 1048 1073 1048 1073 1048 1092 c 0,40,41
 1048 1195 1048 1195 990 1237 c 0,42,43
 922 1287 922 1287 768 1287 c 2,44,-1
 500 1287 l 1,45,-1
 458 809 l 1,34,-1
EndSplineSet
EndChar

StartChar: S
Encoding: 83 83 54
Width: 1221
GlyphClass: 2
Flags: W
AnchorPoint: "Anchor-1" 597 -1 basechar 0
AnchorPoint: "Anchor-0" 664 1456 basechar 0
LayerCount: 2
UndoRedoHistory
Layer: 1
Undoes
EndUndoes
Redoes
EndRedoes
EndUndoRedoHistory
Fore
SplineSet
617 -23 m 0,0,1
 530 -23 530 -23 449.5 -6 c 128,-1,2
 369 11 369 11 315.5 35 c 128,-1,3
 262 59 262 59 221.5 83.5 c 128,-1,4
 181 108 181 108 162 125 c 2,5,-1
 143 142 l 1,6,-1
 244 287 l 1,7,8
 251 281 251 281 263.5 271.5 c 128,-1,9
 276 262 276 262 316.5 238 c 128,-1,10
 357 214 357 214 399.5 195 c 128,-1,11
 442 176 442 176 504.5 161 c 128,-1,12
 567 146 567 146 627 146 c 0,13,14
 913 146 913 146 933 381 c 0,15,16
 934 393 934 393 934 405 c 0,17,18
 934 446 934 446 920 480 c 0,19,20
 902 522 902 522 854.5 557.5 c 128,-1,21
 807 593 807 593 750.5 618 c 128,-1,22
 694 643 694 643 599 677 c 0,23,24
 508 709 508 709 444.5 742.5 c 128,-1,25
 381 776 381 776 326 825.5 c 128,-1,26
 271 875 271 875 247 943 c 0,27,28
 229 994 229 994 229 1056 c 0,29,30
 229 1077 229 1077 231 1099 c 0,31,32
 242 1224 242 1224 315 1312.5 c 128,-1,33
 388 1401 388 1401 499 1442 c 128,-1,34
 610 1483 610 1483 749 1483 c 0,35,36
 838 1483 838 1483 915.5 1467 c 128,-1,37
 993 1451 993 1451 1040 1428.5 c 128,-1,38
 1087 1406 1087 1406 1121 1383.5 c 128,-1,39
 1155 1361 1155 1361 1169 1345 c 2,40,-1
 1183 1329 l 1,41,-1
 1072 1196 l 1,42,43
 1068 1201 1068 1201 1060 1209 c 128,-1,44
 1052 1217 1052 1217 1023 1237 c 128,-1,45
 994 1257 994 1257 961.5 1272.5 c 128,-1,46
 929 1288 929 1288 875.5 1300.5 c 128,-1,47
 822 1313 822 1313 765 1313 c 0,48,49
 705 1313 705 1313 652 1302.5 c 128,-1,50
 599 1292 599 1292 552.5 1269 c 128,-1,51
 506 1246 506 1246 476.5 1205 c 128,-1,52
 447 1164 447 1164 442 1108 c 0,53,54
 441 1096 441 1096 441 1085 c 0,55,56
 440 1050 440 1050 450 1022 c 0,57,58
 462 984 462 984 487 957 c 128,-1,59
 512 930 512 930 557 906 c 128,-1,60
 602 882 602 882 649.5 863 c 128,-1,61
 697 844 697 844 768 819 c 0,62,63
 769 819 769 819 770 818.5 c 128,-1,64
 771 818 771 818 772 818 c 0,65,66
 866 785 866 785 932 748.5 c 128,-1,67
 998 712 998 712 1050.5 661 c 128,-1,68
 1103 610 1103 610 1126 540 c 0,69,70
 1143 488 1143 488 1143 427 c 0,71,72
 1143 405 1143 405 1141 382 c 0,73,74
 1122 176 1122 176 979 76.5 c 128,-1,75
 836 -23 836 -23 617 -23 c 0,0,1
EndSplineSet
EndChar

StartChar: T
Encoding: 84 84 55
Width: 1147
GlyphClass: 2
Flags: W
AnchorPoint: "Anchor-1" 554 0 basechar 0
AnchorPoint: "Anchor-0" 652 1456 basechar 0
LayerCount: 2
UndoRedoHistory
Layer: 1
Undoes
EndUndoes
Redoes
EndRedoes
EndUndoRedoHistory
Fore
SplineSet
474 0 m 1,0,-1
 587 1287 l 1,1,-1
 124 1287 l 1,2,-1
 139 1456 l 1,3,-1
 1266 1456 l 1,4,-1
 1251 1287 l 1,5,-1
 784 1287 l 1,6,-1
 671 0 l 1,7,-1
 474 0 l 1,0,-1
EndSplineSet
EndChar

StartChar: U
Encoding: 85 85 56
Width: 1488
GlyphClass: 2
Flags: W
AnchorPoint: "Anchor-2" 755 0 basechar 0
AnchorPoint: "Anchor-1" 706 0 basechar 0
AnchorPoint: "Anchor-0" 856 1456 basechar 0
LayerCount: 2
UndoRedoHistory
Layer: 1
Undoes
EndUndoes
Redoes
EndRedoes
EndUndoRedoHistory
Fore
SplineSet
739 -23 m 0,0,1
 611 -23 611 -23 514.5 5 c 128,-1,2
 418 33 418 33 357 82.5 c 128,-1,3
 296 132 296 132 260.5 205.5 c 128,-1,4
 225 279 225 279 215 363 c 0,5,6
 210 407 210 407 210 457 c 0,7,8
 210 502 210 502 214 551 c 2,9,-1
 294 1456 l 1,10,-1
 493 1456 l 1,11,-1
 414 549 l 2,12,13
 410 510 410 510 410 475 c 0,14,15
 410 322 410 322 478 243 c 0,16,17
 562 146 562 146 758 146 c 0,18,19
 943 146 943 146 1048 245 c 128,-1,20
 1153 344 1153 344 1170 544 c 2,21,-1
 1251 1456 l 1,22,-1
 1450 1456 l 1,23,-1
 1371 558 l 2,24,25
 1359 424 1359 424 1317 319 c 128,-1,26
 1275 214 1275 214 1199.5 136.5 c 128,-1,27
 1124 59 1124 59 1008 18 c 128,-1,28
 892 -23 892 -23 739 -23 c 0,0,1
EndSplineSet
EndChar

StartChar: V
Encoding: 86 86 57
Width: 1292
GlyphClass: 2
Flags: W
LayerCount: 2
UndoRedoHistory
Layer: 1
Undoes
EndUndoes
Redoes
EndRedoes
EndUndoRedoHistory
Fore
SplineSet
551 0 m 1,0,-1
 150 1456 l 1,1,-1
 366 1456 l 1,2,-1
 627 429 l 1,3,-1
 675 245 l 1,4,-1
 756 430 l 1,5,-1
 1193 1456 l 1,6,-1
 1398 1456 l 1,7,-1
 752 0 l 1,8,-1
 551 0 l 1,0,-1
EndSplineSet
EndChar

StartChar: W
Encoding: 87 87 58
Width: 2000
GlyphClass: 2
Flags: W
AnchorPoint: "Anchor-1" 1017 0 basechar 0
AnchorPoint: "Anchor-0" 1123 1456 basechar 0
LayerCount: 2
UndoRedoHistory
Layer: 1
Undoes
EndUndoes
Redoes
EndRedoes
EndUndoRedoHistory
Fore
SplineSet
422 0 m 1,0,-1
 157 1456 l 1,1,-1
 364 1456 l 1,2,-1
 533 454 l 1,3,-1
 568 226 l 1,4,-1
 646 437 l 1,5,-1
 1033 1456 l 1,6,-1
 1233 1456 l 1,7,-1
 1446 448 l 1,8,-1
 1490 232 l 1,9,-1
 1557 440 l 1,10,-1
 1894 1456 l 1,11,-1
 2094 1456 l 1,12,-1
 1582 0 l 1,13,-1
 1356 0 l 1,14,-1
 1108 1199 l 1,15,-1
 650 0 l 1,16,-1
 422 0 l 1,0,-1
EndSplineSet
EndChar

StartChar: X
Encoding: 88 88 59
Width: 1300
GlyphClass: 2
Flags: W
LayerCount: 2
UndoRedoHistory
Layer: 1
Undoes
EndUndoes
Redoes
EndRedoes
EndUndoRedoHistory
Fore
SplineSet
1047 0 m 1,0,-1
 701 583 l 1,1,-1
 251 0 l 1,2,-1
 28 0 l 1,3,-1
 598 735 l 1,4,-1
 173 1456 l 1,5,-1
 404 1456 l 1,6,-1
 728 898 l 1,7,-1
 1150 1456 l 1,8,-1
 1369 1456 l 1,9,-1
 829 746 l 1,10,-1
 1274 0 l 1,11,-1
 1047 0 l 1,0,-1
EndSplineSet
EndChar

StartChar: Y
Encoding: 89 89 60
Width: 1239
GlyphClass: 2
Flags: W
AnchorPoint: "Anchor-1" 625 0 basechar 0
AnchorPoint: "Anchor-0" 730 1456 basechar 0
LayerCount: 2
UndoRedoHistory
Layer: 1
Undoes
EndUndoes
Redoes
EndRedoes
EndUndoRedoHistory
Fore
SplineSet
518 0 m 1,0,-1
 569 582 l 1,1,-1
 141 1456 l 1,2,-1
 357 1456 l 1,3,-1
 686 760 l 1,4,-1
 1128 1456 l 1,5,-1
 1351 1456 l 1,6,-1
 766 585 l 1,7,-1
 715 0 l 1,8,-1
 518 0 l 1,0,-1
EndSplineSet
EndChar

StartChar: Z
Encoding: 90 90 61
Width: 1188
GlyphClass: 2
Flags: W
AnchorPoint: "Anchor-1" 676 0 basechar 0
AnchorPoint: "Anchor-0" 740 1456 basechar 0
LayerCount: 2
UndoRedoHistory
Layer: 1
Undoes
EndUndoes
Redoes
EndRedoes
EndUndoRedoHistory
Fore
SplineSet
89 0 m 1,0,-1
 99 106 l 1,1,-1
 955 1287 l 1,2,-1
 233 1287 l 1,3,-1
 247 1456 l 1,4,-1
 1236 1456 l 1,5,-1
 1227 1354 l 1,6,-1
 364 169 l 1,7,-1
 1119 169 l 1,8,-1
 1104 0 l 1,9,-1
 89 0 l 1,0,-1
EndSplineSet
EndChar

StartChar: bracketleft
Encoding: 91 91 62
Width: 684
GlyphClass: 2
Flags: W
LayerCount: 2
UndoRedoHistory
Layer: 1
Undoes
EndUndoes
Redoes
EndRedoes
EndUndoRedoHistory
Fore
SplineSet
162 -239 m 1,0,-1
 310 1456 l 1,1,-1
 722 1456 l 1,2,-1
 709 1313 l 1,3,-1
 488 1313 l 1,4,-1
 365 -96 l 1,5,-1
 587 -96 l 1,6,-1
 574 -239 l 1,7,-1
 162 -239 l 1,0,-1
EndSplineSet
EndChar

StartChar: backslash
Encoding: 92 92 63
Width: 799
GlyphClass: 2
Flags: W
LayerCount: 2
UndoRedoHistory
Layer: 1
Undoes
EndUndoes
Redoes
EndRedoes
EndUndoRedoHistory
Fore
SplineSet
620 -29 m 1,0,-1
 158 1456 l 1,1,-1
 355 1456 l 1,2,-1
 815 -29 l 1,3,-1
 620 -29 l 1,0,-1
EndSplineSet
EndChar

StartChar: bracketright
Encoding: 93 93 64
Width: 675
GlyphClass: 2
Flags: W
LayerCount: 2
UndoRedoHistory
Layer: 1
Undoes
EndUndoes
Redoes
EndRedoes
EndUndoRedoHistory
Fore
SplineSet
79 -239 m 1,0,-1
 92 -96 l 1,1,-1
 311 -96 l 1,2,-1
 434 1313 l 1,3,-1
 214 1313 l 1,4,-1
 227 1456 l 1,5,-1
 638 1456 l 1,6,-1
 489 -239 l 1,7,-1
 79 -239 l 1,0,-1
EndSplineSet
EndChar

StartChar: asciicircum
Encoding: 94 94 65
Width: 1235
GlyphClass: 2
Flags: W
LayerCount: 2
UndoRedoHistory
Layer: 1
Undoes
EndUndoes
Redoes
EndRedoes
EndUndoRedoHistory
Fore
SplineSet
132 572 m 1,0,-1
 693 1456 l 1,1,-1
 812 1456 l 1,2,-1
 1225 572 l 1,3,-1
 1040 572 l 1,4,-1
 733 1250 l 1,5,-1
 319 572 l 1,6,-1
 132 572 l 1,0,-1
EndSplineSet
EndChar

StartChar: underscore
Encoding: 95 95 66
Width: 946
GlyphClass: 2
Flags: W
LayerCount: 2
UndoRedoHistory
Layer: 1
Undoes
EndUndoes
Redoes
EndRedoes
EndUndoRedoHistory
Fore
SplineSet
-9 -197 m 1,0,-1
 4 -48 l 1,1,-1
 962 -48 l 1,2,-1
 949 -197 l 1,3,-1
 -9 -197 l 1,0,-1
EndSplineSet
EndChar

StartChar: grave
Encoding: 96 96 67
Width: 598
GlyphClass: 4
Flags: W
AnchorPoint: "Anchor-0" 459 1022 mark 0
LayerCount: 2
UndoRedoHistory
Layer: 1
Undoes
EndUndoes
Redoes
EndRedoes
EndUndoRedoHistory
Fore
SplineSet
405 1171 m 1,0,-1
 95 1489 l 1,1,-1
 341 1489 l 1,2,-1
 564 1171 l 1,3,-1
 405 1171 l 1,0,-1
EndSplineSet
EndChar

StartChar: a
Encoding: 97 97 68
Width: 1264
GlyphClass: 2
Flags: W
AnchorPoint: "Anchor-2" 994 0 basechar 0
AnchorPoint: "Anchor-1" 616 0 basechar 0
AnchorPoint: "Anchor-0" 649 1026 basechar 0
LayerCount: 2
UndoRedoHistory
Layer: 1
Undoes
EndUndoes
Redoes
EndRedoes
EndUndoRedoHistory
Fore
SplineSet
591 -23 m 0,0,1
 468 -23 468 -23 374.5 23.5 c 128,-1,2
 281 70 281 70 229.5 147.5 c 0,3,4
 178 226 178 226 156 320 c 0,5,6
 140 387 140 387 140 458 c 0,7,8
 140 487 140 487 143 517 c 0,9,10
 152 625 152 625 191 720.5 c 128,-1,11
 230 816 230 816 295 891 c 128,-1,12
 360 966 360 966 460 1009 c 0,13,14
 557 1051 557 1051 674 1051 c 0,15,16
 677 1051 677 1051 679 1051 c 0,17,18
 808 1049 808 1049 891.5 985 c 128,-1,19
 975 921 975 921 996 845 c 1,20,-1
 1008 1026 l 1,21,-1
 1193 1026 l 1,22,-1
 1103 0 l 1,23,-1
 914 0 l 1,24,-1
 939 201 l 1,25,26
 899 103 899 103 810 40 c 128,-1,27
 721 -23 721 -23 591 -23 c 0,0,1
684 897 m 0,28,29
 532 897 532 897 441.5 789.5 c 128,-1,30
 351 682 351 682 336 516 c 0,31,32
 333 487 333 487 333 460 c 0,33,34
 333 413 333 413 341 371 c 0,35,36
 353 304 353 304 385.5 249 c 128,-1,37
 418 194 418 194 479 162 c 128,-1,38
 540 130 540 130 624 130 c 0,39,40
 932 130 932 130 966 528 c 0,41,42
 969 558 969 558 969 586 c 0,43,44
 969 718 969 718 910 799 c 0,45,46
 839 897 839 897 684 897 c 0,28,29
EndSplineSet
EndChar

StartChar: b
Encoding: 98 98 69
Width: 1264
GlyphClass: 2
Flags: W
AnchorPoint: "Anchor-1" 826 0 basechar 0
AnchorPoint: "Anchor-0" 736 1249 basechar 0
LayerCount: 2
UndoRedoHistory
Layer: 1
Undoes
EndUndoes
Redoes
EndRedoes
EndUndoRedoHistory
Fore
SplineSet
695 -23 m 1,0,1
 571 -21 571 -21 485.5 45 c 128,-1,2
 400 111 400 111 367 189 c 1,3,-1
 352 0 l 1,4,-1
 158 0 l 1,5,6
 183 200 183 200 189 271 c 2,7,-1
 295 1482 l 1,8,-1
 485 1482 l 1,9,-1
 427 852 l 1,10,11
 472 939 472 939 571 995 c 128,-1,12
 670 1051 670 1051 792 1051 c 0,13,14
 996 1051 996 1051 1114 906 c 0,15,16
 1215 782 1215 782 1215 593 c 0,17,18
 1215 561 1215 561 1212 528 c 0,19,20
 1190 276 1190 276 1045 124 c 0,21,22
 905 -23 905 -23 708 -23 c 0,23,24
 702 -23 702 -23 695 -23 c 1,0,1
685 130 m 0,25,26
 687 130 687 130 690 130 c 0,27,28
 827 130 827 130 912 238 c 0,29,30
 999 348 999 348 1013 537 c 0,31,32
 1015 561 1015 561 1015 584 c 0,33,34
 1015 714 1015 714 956 798 c 0,35,36
 887 896 887 896 748 897 c 0,37,38
 600 897 600 897 505 794.5 c 128,-1,39
 410 692 410 692 396 521 c 0,40,41
 394 491 394 491 394 464 c 0,42,43
 394 324 394 324 458 236 c 0,44,45
 534 132 534 132 685 130 c 0,25,26
EndSplineSet
EndChar

StartChar: c
Encoding: 99 99 70
Width: 1030
GlyphClass: 2
Flags: W
AnchorPoint: "Anchor-1" 576 0 basechar 0
AnchorPoint: "Anchor-0" 638 1026 basechar 0
LayerCount: 2
UndoRedoHistory
Layer: 1
Undoes
EndUndoes
Redoes
EndRedoes
EndUndoRedoHistory
Fore
SplineSet
610 -23 m 0,0,1
 375 -23 375 -23 248 123 c 0,2,3
 138 249 138 249 138 442 c 0,4,5
 138 472 138 472 141 504 c 0,6,7
 162 748 162 748 322 902 c 0,8,9
 476 1051 476 1051 699 1051 c 0,10,11
 706 1051 706 1051 714 1051 c 0,12,13
 819 1049 819 1049 904 1015 c 128,-1,14
 989 981 989 981 1038 920 c 1,15,-1
 948 803 l 1,16,17
 863 897 863 897 707 897 c 0,18,19
 552 897 552 897 454.5 792.5 c 128,-1,20
 357 688 357 688 341 508 c 0,21,22
 339 481 339 481 339 455 c 0,23,24
 338 318 338 318 406 232 c 0,25,26
 486 130 486 130 638 130 c 0,27,28
 718 130 718 130 794.5 157 c 128,-1,29
 871 184 871 184 927 224 c 1,30,-1
 974 88 l 1,31,32
 822 -23 822 -23 610 -23 c 0,0,1
EndSplineSet
EndChar

StartChar: d
Encoding: 100 100 71
Width: 1258
GlyphClass: 2
Flags: W
AnchorPoint: "Anchor-1" 826 0 basechar 0
AnchorPoint: "Anchor-0" 583 1208 basechar 0
LayerCount: 2
UndoRedoHistory
Layer: 1
Undoes
EndUndoes
Redoes
EndRedoes
EndUndoRedoHistory
Fore
SplineSet
572 -23 m 0,0,1
 437 -23 437 -23 335 41 c 0,2,3
 233 104 233 104 180 226 c 0,4,5
 138 322 138 322 138 442 c 0,6,7
 138 474 138 474 141 507 c 0,8,9
 162 750 162 750 306 900.5 c 128,-1,10
 450 1051 450 1051 673 1051 c 0,11,12
 781 1051 781 1051 862.5 1005.5 c 128,-1,13
 944 960 944 960 977 886 c 1,14,-1
 1028 1482 l 1,15,-1
 1218 1482 l 1,16,-1
 1112 262 l 2,17,18
 1107 201 1107 201 1096 0 c 1,19,-1
 902 0 l 1,20,-1
 917 174 l 1,21,22
 876 91 876 91 785.5 34 c 128,-1,23
 695 -23 695 -23 572 -23 c 0,0,1
610 130 m 0,24,25
 755 130 755 130 844 240.5 c 128,-1,26
 933 351 933 351 949 536 c 0,27,28
 952 564 952 564 952 591 c 0,29,30
 952 716 952 716 893 798 c 0,31,32
 822 897 822 897 680 897 c 0,33,34
 537 897 537 897 447 791.5 c 128,-1,35
 357 686 357 686 342 510 c 0,36,37
 339 480 339 480 339 452 c 0,38,39
 340 320 340 320 398 234 c 0,40,41
 468 130 468 130 610 130 c 0,24,25
EndSplineSet
EndChar

StartChar: e
Encoding: 101 101 72
Width: 1145
GlyphClass: 2
Flags: W
AnchorPoint: "Anchor-2" 845 56 basechar 0
AnchorPoint: "Anchor-1" 657 0 basechar 0
AnchorPoint: "Anchor-0" 670 1026 basechar 0
LayerCount: 2
UndoRedoHistory
Layer: 1
Undoes
EndUndoes
Redoes
EndRedoes
EndUndoRedoHistory
Fore
SplineSet
140 453 m 0,0,1
 140 715 140 715 296 883 c 128,-1,2
 452 1051 452 1051 687 1051 c 0,3,4
 880 1051 880 1051 988.5 928.5 c 128,-1,5
 1097 806 1097 806 1097 604 c 0,6,7
 1097 570 1097 570 1094 536 c 0,8,9
 1094 534 1094 534 1093 528.5 c 128,-1,10
 1092 523 1092 523 1090 511.5 c 128,-1,11
 1088 500 1088 500 1086 487 c 1,12,-1
 342 487 l 1,13,14
 342 482 342 482 341.5 472.5 c 128,-1,15
 341 463 341 463 341 459 c 0,16,17
 341 300 341 300 422.5 215 c 128,-1,18
 504 130 504 130 645 130 c 0,19,20
 732 130 732 130 825 164.5 c 128,-1,21
 918 199 918 199 984 249 c 1,22,-1
 1026 107 l 1,23,24
 954 52 954 52 845 14.5 c 128,-1,25
 736 -23 736 -23 616 -23 c 0,26,27
 409 -23 409 -23 274.5 108 c 128,-1,28
 140 239 140 239 140 453 c 0,0,1
359 619 m 1,29,-1
 934 619 l 1,30,31
 932 756 932 756 860.5 828 c 128,-1,32
 789 900 789 900 677 900 c 0,33,34
 561 900 561 900 476.5 824 c 128,-1,35
 392 748 392 748 359 619 c 1,29,-1
EndSplineSet
EndChar

StartChar: f
Encoding: 102 102 73
Width: 715
GlyphClass: 2
Flags: W
AnchorPoint: "Anchor-1" 316 0 basechar 0
AnchorPoint: "Anchor-0" 563 1464 basechar 0
LayerCount: 2
UndoRedoHistory
Layer: 1
Undoes
EndUndoes
Redoes
EndRedoes
EndUndoRedoHistory
Fore
SplineSet
237 0 m 1,0,-1
 316 901 l 1,1,-1
 132 901 l 1,2,-1
 143 1026 l 1,3,-1
 327 1026 l 1,4,-1
 336 1129 l 2,5,6
 346 1234 346 1234 367.5 1297.5 c 128,-1,7
 389 1361 389 1361 438 1406.5 c 128,-1,8
 487 1452 487 1452 568 1470.5 c 128,-1,9
 649 1489 649 1489 778 1489 c 2,10,-1
 812 1489 l 1,11,-1
 797 1341 l 1,12,13
 738 1341 738 1341 701 1338.5 c 128,-1,14
 664 1336 664 1336 633 1327 c 128,-1,15
 602 1318 602 1318 585 1305.5 c 128,-1,16
 568 1293 568 1293 555 1267.5 c 128,-1,17
 542 1242 542 1242 536.5 1211.5 c 128,-1,18
 531 1181 531 1181 526 1133 c 2,19,-1
 517 1026 l 1,20,-1
 760 1026 l 1,21,-1
 749 901 l 1,22,-1
 506 901 l 1,23,-1
 427 0 l 1,24,-1
 237 0 l 1,0,-1
EndSplineSet
EndChar

StartChar: g
Encoding: 103 103 74
Width: 1241
GlyphClass: 2
Flags: W
AnchorPoint: "Anchor-0" 622 1027 basechar 0
LayerCount: 2
UndoRedoHistory
Layer: 1
Undoes
EndUndoes
Redoes
EndRedoes
EndUndoRedoHistory
Fore
SplineSet
138 488 m 0,0,1
 138 748 138 748 287 899.5 c 128,-1,2
 436 1051 436 1051 674 1051 c 0,3,4
 777 1051 777 1051 862.5 998.5 c 128,-1,5
 948 946 948 946 976 868 c 1,6,-1
 993 1026 l 1,7,-1
 1188 1026 l 1,8,9
 1164 862 1164 862 1153 745 c 2,10,-1
 1100 159 l 2,11,12
 1087 19 1087 19 1050.5 -85 c 128,-1,13
 1014 -189 1014 -189 947 -267.5 c 128,-1,14
 880 -346 880 -346 773.5 -386 c 128,-1,15
 667 -426 667 -426 522 -426 c 0,16,17
 307 -426 307 -426 154 -344 c 1,18,-1
 193 -174 l 1,19,20
 343 -267 343 -267 523 -267 c 0,21,22
 702 -267 702 -267 796 -192.5 c 128,-1,23
 890 -118 890 -118 903 41 c 2,24,-1
 915 197 l 1,25,26
 871 115 871 115 782.5 74 c 128,-1,27
 694 33 694 33 576 33 c 0,28,29
 382 33 382 33 260 157.5 c 128,-1,30
 138 282 138 282 138 488 c 0,0,1
683 897 m 0,31,32
 524 897 524 897 431.5 789 c 128,-1,33
 339 681 339 681 339 490 c 0,34,35
 339 347 339 347 407 265 c 128,-1,36
 475 183 475 183 604 183 c 0,37,38
 769 183 769 183 861 291.5 c 128,-1,39
 953 400 953 400 953 590 c 0,40,41
 953 731 953 731 882 814 c 128,-1,42
 811 897 811 897 683 897 c 0,31,32
EndSplineSet
EndChar

StartChar: h
Encoding: 104 104 75
Width: 1230
GlyphClass: 2
Flags: W
AnchorPoint: "Anchor-1" 645 0 basechar 0
AnchorPoint: "Anchor-0" 737 1260 basechar 0
LayerCount: 2
UndoRedoHistory
Layer: 1
Undoes
EndUndoes
Redoes
EndRedoes
EndUndoRedoHistory
Fore
SplineSet
156 0 m 1,0,-1
 286 1482 l 1,1,-1
 476 1482 l 1,2,-1
 423 869 l 1,3,4
 483 960 483 960 578.5 1005.5 c 128,-1,5
 674 1051 674 1051 780 1051 c 0,6,7
 875 1051 875 1051 944.5 1016.5 c 128,-1,8
 1014 982 1014 982 1052.5 921 c 0,9,10
 1090 860 1090 860 1106 783 c 0,11,12
 1116 732 1116 732 1117 676 c 0,13,14
 1117 647 1117 647 1114 616 c 2,15,-1
 1060 0 l 1,16,-1
 869 0 l 1,17,-1
 923 612 l 2,18,19
 926 642 926 642 926 669 c 0,20,21
 926 770 926 770 890 826 c 0,22,23
 846 897 846 897 736 897 c 0,24,25
 604 897 604 897 507 812.5 c 128,-1,26
 410 728 410 728 399 597 c 2,27,-1
 347 0 l 1,28,-1
 156 0 l 1,0,-1
EndSplineSet
EndChar

StartChar: i
Encoding: 105 105 76
Width: 569
GlyphClass: 2
Flags: W
AnchorPoint: "Anchor-1" 261 1 basechar 0
LayerCount: 2
UndoRedoHistory
Layer: 1
Undoes
EndUndoes
Redoes
EndRedoes
EndUndoRedoHistory
Fore
SplineSet
184 0 m 1,0,-1
 274 1026 l 1,1,-1
 462 1026 l 1,2,-1
 372 0 l 1,3,-1
 184 0 l 1,0,-1
301 1282 m 1,4,-1
 317 1456 l 1,5,-1
 497 1456 l 1,6,-1
 482 1282 l 1,7,-1
 301 1282 l 1,4,-1
EndSplineSet
EndChar

StartChar: j
Encoding: 106 106 77
Width: 537
GlyphClass: 2
Flags: W
AnchorPoint: "Anchor-1" 676 0 basechar 0
AnchorPoint: "Anchor-0" 700 1456 basechar 0
LayerCount: 2
UndoRedoHistory
Layer: 1
Undoes
EndUndoes
Redoes
EndRedoes
EndUndoRedoHistory
Fore
SplineSet
25 -390 m 0,0,1
 -61 -390 -61 -390 -132 -372 c 1,2,-1
 -103 -229 l 1,3,4
 -54 -241 -54 -241 4 -241 c 0,5,6
 101 -241 101 -241 140 -176.5 c 128,-1,7
 179 -112 179 -112 192 45 c 2,8,-1
 278 1026 l 1,9,-1
 468 1026 l 1,10,-1
 379 8 l 2,11,12
 362 -183 362 -183 279.5 -286.5 c 128,-1,13
 197 -390 197 -390 25 -390 c 0,0,1
300 1282 m 1,14,-1
 316 1456 l 1,15,-1
 498 1456 l 1,16,-1
 483 1282 l 1,17,-1
 300 1282 l 1,14,-1
EndSplineSet
EndChar

StartChar: k
Encoding: 107 107 78
Width: 1089
GlyphClass: 2
Flags: W
AnchorPoint: "Anchor-1" 616 -1 basechar 0
AnchorPoint: "Anchor-0" 767 1026 basechar 0
LayerCount: 2
UndoRedoHistory
Layer: 1
Undoes
EndUndoes
Redoes
EndRedoes
EndUndoRedoHistory
Fore
SplineSet
157 0 m 1,0,-1
 287 1482 l 1,1,-1
 477 1482 l 1,2,-1
 400 597 l 1,3,-1
 869 1026 l 1,4,-1
 1129 1026 l 1,5,-1
 575 544 l 1,6,7
 629 487 629 487 823.5 272 c 128,-1,8
 1018 57 1018 57 1073 0 c 1,9,-1
 823 0 l 1,10,-1
 390 491 l 1,11,-1
 348 0 l 1,12,-1
 157 0 l 1,0,-1
EndSplineSet
EndChar

StartChar: l
Encoding: 108 108 79
Width: 519
GlyphClass: 2
Flags: W
AnchorPoint: "Anchor-1" 264 0 basechar 0
AnchorPoint: "Anchor-0" 382 1474 basechar 0
LayerCount: 2
UndoRedoHistory
Layer: 1
Undoes
EndUndoes
Redoes
EndRedoes
EndUndoRedoHistory
Fore
SplineSet
170 0 m 1,0,-1
 299 1482 l 1,1,-1
 489 1482 l 1,2,-1
 360 0 l 1,3,-1
 170 0 l 1,0,-1
EndSplineSet
EndChar

StartChar: m
Encoding: 109 109 80
Width: 1872
GlyphClass: 2
Flags: W
AnchorPoint: "Anchor-1" 946 0 basechar 0
AnchorPoint: "Anchor-0" 1035 1024 basechar 0
LayerCount: 2
UndoRedoHistory
Layer: 1
Undoes
EndUndoes
Redoes
EndRedoes
EndUndoRedoHistory
Fore
SplineSet
167 0 m 1,0,-1
 232 741 l 2,1,2
 238 813 238 813 247 1026 c 1,3,-1
 445 1026 l 1,4,-1
 425 842 l 1,5,6
 478 935 478 935 578.5 993 c 128,-1,7
 679 1051 679 1051 788 1051 c 0,8,9
 895 1051 895 1051 969 995 c 128,-1,10
 1043 939 1043 939 1067 835 c 1,11,12
 1125 938 1125 938 1234 996 c 0,13,14
 1339 1052 1339 1052 1455 1051 c 0,15,16
 1459 1051 1459 1051 1463 1051 c 0,17,18
 1628 1049 1628 1049 1706 937 c 0,19,20
 1769 846 1769 846 1769 696 c 0,21,22
 1769 661 1769 661 1766 623 c 2,23,-1
 1710 0 l 1,24,-1
 1520 0 l 1,25,-1
 1569 556 l 1,26,27
 1575 606 1575 606 1575 651 c 0,28,29
 1574 668 1574 668 1574 686 c 0,30,31
 1570 748 1570 748 1556.5 795 c 128,-1,32
 1543 842 1543 842 1502.5 869.5 c 128,-1,33
 1462 897 1462 897 1397 897 c 0,34,35
 1273 897 1273 897 1187 808.5 c 128,-1,36
 1101 720 1101 720 1089 585 c 2,37,-1
 1038 0 l 1,38,-1
 848 0 l 1,39,-1
 903 632 l 2,40,41
 905 660 905 660 905 686 c 0,42,43
 905 897 905 897 734 897 c 0,44,45
 612 897 612 897 515.5 808 c 128,-1,46
 419 719 419 719 408 589 c 2,47,-1
 357 0 l 1,48,-1
 167 0 l 1,0,-1
EndSplineSet
EndChar

StartChar: n
Encoding: 110 110 81
Width: 1229
GlyphClass: 2
Flags: W
AnchorPoint: "Anchor-1" 626 0 basechar 0
AnchorPoint: "Anchor-0" 708 1026 basechar 0
LayerCount: 2
UndoRedoHistory
Layer: 1
Undoes
EndUndoes
Redoes
EndRedoes
EndUndoRedoHistory
Fore
SplineSet
167 0 m 1,0,-1
 231 735 l 2,1,2
 237 806 237 806 241 879 c 128,-1,3
 245 952 245 952 246 989 c 2,4,-1
 247 1026 l 1,5,-1
 440 1026 l 1,6,-1
 425 841 l 1,7,8
 480 938 480 938 576.5 994.5 c 128,-1,9
 673 1051 673 1051 794 1051 c 0,10,11
 990 1052 990 1052 1066 928 c 0,12,13
 1124 832 1124 832 1124 665 c 0,14,15
 1124 616 1124 616 1119 561 c 2,16,-1
 1070 0 l 1,17,-1
 879 0 l 1,18,-1
 927 553 l 1,19,20
 933 610 933 610 933 659 c 0,21,22
 932 678 932 678 932 696 c 0,23,24
 928 760 928 760 911.5 804.5 c 128,-1,25
 895 849 895 849 851.5 873 c 128,-1,26
 808 897 808 897 736 897 c 0,27,28
 615 897 615 897 517.5 809.5 c 128,-1,29
 420 722 420 722 411 619 c 2,30,-1
 358 0 l 1,31,-1
 167 0 l 1,0,-1
EndSplineSet
EndChar

StartChar: o
Encoding: 111 111 82
Width: 1251
GlyphClass: 2
Flags: W
AnchorPoint: "Anchor-2" 614 0 basechar 0
AnchorPoint: "Anchor-1" 616 0 basechar 0
AnchorPoint: "Anchor-0" 699 1026 basechar 0
LayerCount: 2
UndoRedoHistory
Layer: 1
Undoes
EndUndoes
Redoes
EndRedoes
EndUndoRedoHistory
Fore
SplineSet
641 130 m 0,0,1
 795 130 795 130 889.5 234.5 c 128,-1,2
 984 339 984 339 999 512 c 0,3,4
 1001 540 1001 540 1001 567 c 0,5,6
 1000 704 1000 704 936 792 c 0,7,8
 858 898 858 898 705 897 c 0,9,10
 550 897 550 897 453 791.5 c 128,-1,11
 356 686 356 686 341 511 c 0,12,13
 339 483 339 483 339 458 c 0,14,15
 338 322 338 322 404 234 c 0,16,17
 482 130 482 130 641 130 c 0,0,1
623 -23 m 0,18,19
 388 -24 388 -24 254 126 c 0,20,21
 138 255 138 255 138 450 c 0,22,23
 138 480 138 480 141 512 c 0,24,25
 162 753 162 753 321 902 c 128,-1,26
 480 1051 480 1051 723 1051 c 0,27,28
 964 1050 964 1050 1092 902 c 0,29,30
 1202 774 1202 774 1202 578 c 0,31,32
 1202 546 1202 546 1199 512 c 0,33,34
 1178 273 1178 273 1022 125 c 128,-1,35
 866 -23 866 -23 623 -23 c 0,18,19
EndSplineSet
EndChar

StartChar: p
Encoding: 112 112 83
Width: 1254
GlyphClass: 2
Flags: W
AnchorPoint: "Anchor-1" 826 0 basechar 0
AnchorPoint: "Anchor-0" 733 1014 basechar 0
LayerCount: 2
UndoRedoHistory
Layer: 1
Undoes
EndUndoes
Redoes
EndRedoes
EndUndoRedoHistory
Fore
SplineSet
138 -417 m 1,0,-1
 239 734 l 2,1,2
 247 834 247 834 253 1026 c 1,3,-1
 450 1026 l 1,4,-1
 438 852 l 1,5,6
 480 940 480 940 580 995 c 128,-1,7
 680 1050 680 1050 794 1051 c 1,8,9
 932 1051 932 1051 1031 984.5 c 128,-1,10
 1130 918 1130 918 1175 798 c 0,11,12
 1210 705 1210 705 1210 593 c 0,13,14
 1210 560 1210 560 1207 526 c 0,15,16
 1186 283 1186 283 1047 130 c 128,-1,17
 908 -23 908 -23 695 -23 c 0,18,19
 585 -23 585 -23 492.5 33.5 c 128,-1,20
 400 90 400 90 377 166 c 1,21,-1
 326 -417 l 1,22,-1
 138 -417 l 1,0,-1
677 130 m 0,23,24
 818 130 818 130 905 234.5 c 128,-1,25
 992 339 992 339 1007 514 c 0,26,27
 1010 545 1010 545 1010 575 c 0,28,29
 1010 706 1010 706 954 792 c 0,30,31
 886 897 886 897 748 897 c 0,32,33
 603 897 603 897 511 791 c 128,-1,34
 419 685 419 685 403 502 c 0,35,36
 400 474 400 474 400 447 c 0,37,38
 400 318 400 318 461 232 c 0,39,40
 534 130 534 130 677 130 c 0,23,24
EndSplineSet
EndChar

StartChar: q
Encoding: 113 113 84
Width: 1245
GlyphClass: 2
Flags: W
LayerCount: 2
UndoRedoHistory
Layer: 1
Undoes
EndUndoes
Redoes
EndRedoes
EndUndoRedoHistory
Fore
SplineSet
857 -417 m 1,0,-1
 909 168 l 1,1,2
 878 94 878 94 784 34 c 0,3,4
 697 -22 697 -22 580 -22 c 0,5,6
 570 -22 570 -22 560 -22 c 0,7,8
 350 -14 350 -14 236 134 c 0,9,10
 140 260 140 260 140 446 c 0,11,12
 140 479 140 479 143 513 c 0,13,14
 163 753 163 753 307.5 902 c 128,-1,15
 452 1051 452 1051 674 1051 c 0,16,17
 724 1051 724 1051 769 1039 c 128,-1,18
 814 1027 814 1027 845.5 1009 c 128,-1,19
 877 991 877 991 903.5 966.5 c 128,-1,20
 930 942 930 942 945 922.5 c 128,-1,21
 960 903 960 903 972 882 c 1,22,-1
 987 1026 l 1,23,-1
 1180 1026 l 1,24,25
 1155 821 1155 821 1152 787 c 2,26,-1
 1046 -417 l 1,27,-1
 857 -417 l 1,0,-1
607 130 m 0,28,29
 750 130 750 130 839.5 240.5 c 128,-1,30
 929 351 929 351 944 533 c 1,31,32
 947 562 947 562 947 590 c 0,33,34
 948 716 948 716 890 798 c 0,35,36
 820 898 820 898 681 897 c 0,37,38
 538 897 538 897 448 791.5 c 128,-1,39
 358 686 358 686 343 510 c 0,40,41
 340 479 340 479 340 451 c 0,42,43
 340 320 340 320 397 234 c 0,44,45
 466 130 466 130 607 130 c 0,28,29
EndSplineSet
EndChar

StartChar: r
Encoding: 114 114 85
Width: 809
GlyphClass: 2
Flags: W
AnchorPoint: "Anchor-1" 274 -3 basechar 0
AnchorPoint: "Anchor-0" 509 1026 basechar 0
LayerCount: 2
UndoRedoHistory
Layer: 1
Undoes
EndUndoes
Redoes
EndRedoes
EndUndoRedoHistory
Fore
SplineSet
165 0 m 1,0,-1
 233 775 l 1,1,2
 244 1026 l 1,3,-1
 440 1026 l 1,4,-1
 428 858 l 1,5,6
 477 952 477 952 552.5 1001.5 c 128,-1,7
 628 1051 628 1051 715 1051 c 0,8,9
 773 1051 773 1051 821 1038 c 1,10,-1
 807 864 l 1,11,12
 738 887 738 887 692 887 c 0,13,14
 576 887 576 887 497.5 803 c 128,-1,15
 419 719 419 719 406 572 c 2,16,-1
 356 0 l 1,17,-1
 165 0 l 1,0,-1
EndSplineSet
EndChar

StartChar: s
Encoding: 115 115 86
Width: 985
GlyphClass: 2
Flags: W
AnchorPoint: "Anchor-1" 514 0 basechar 0
AnchorPoint: "Anchor-0" 537 1026 basechar 0
LayerCount: 2
UndoRedoHistory
Layer: 1
Undoes
EndUndoes
Redoes
EndRedoes
EndUndoRedoHistory
Fore
SplineSet
924 310 m 0,0,1
 924 238 924 238 898.5 180 c 128,-1,2
 873 122 873 122 832.5 84.5 c 128,-1,3
 792 47 792 47 737 22.5 c 128,-1,4
 682 -2 682 -2 626 -12.5 c 128,-1,5
 570 -23 570 -23 512 -23 c 0,6,7
 413 -23 413 -23 322.5 3 c 128,-1,8
 232 29 232 29 192 52.5 c 128,-1,9
 152 76 152 76 130 95 c 1,10,-1
 190 240 l 1,11,12
 219 219 219 219 257 198 c 128,-1,13
 295 177 295 177 367 153.5 c 128,-1,14
 439 130 439 130 504 130 c 0,15,16
 547 130 547 130 584 138 c 128,-1,17
 621 146 621 146 654.5 163 c 128,-1,18
 688 180 688 180 707.5 212.5 c 128,-1,19
 727 245 727 245 727 290 c 0,20,21
 727 311 727 311 721 328.5 c 128,-1,22
 715 346 715 346 698 361 c 128,-1,23
 681 376 681 376 668 385.5 c 128,-1,24
 655 395 655 395 623 408 c 128,-1,25
 591 421 591 421 574 427 c 128,-1,26
 557 433 557 433 514 447 c 0,27,28
 508 449 508 449 505 450 c 128,-1,29
 502 451 502 451 496.5 453 c 128,-1,30
 491 455 491 455 487 456 c 0,31,32
 420 478 420 478 373.5 499 c 128,-1,33
 327 520 327 520 280.5 553 c 128,-1,34
 234 586 234 586 210 632 c 128,-1,35
 186 678 186 678 186 736 c 0,36,37
 186 818 186 818 220 880.5 c 128,-1,38
 254 943 254 943 311.5 979 c 128,-1,39
 369 1015 369 1015 437 1033 c 128,-1,40
 505 1051 505 1051 580 1051 c 0,41,42
 787 1051 787 1051 929 963 c 1,43,-1
 864 828 l 1,44,45
 845 839 845 839 815 852 c 128,-1,46
 785 865 785 865 722.5 881 c 128,-1,47
 660 897 660 897 604 897 c 0,48,49
 384 897 384 897 384 759 c 0,50,51
 384 736 384 736 394.5 716.5 c 128,-1,52
 405 697 405 697 422.5 683 c 128,-1,53
 440 669 440 669 468.5 655.5 c 128,-1,54
 497 642 497 642 526 631 c 128,-1,55
 555 620 555 620 595 606 c 0,56,57
 603 604 603 604 607 602.5 c 128,-1,58
 611 601 611 601 617.5 598.5 c 128,-1,59
 624 596 624 596 630 594 c 0,60,61
 701 570 701 570 744 551 c 128,-1,62
 787 532 787 532 833.5 499 c 128,-1,63
 880 466 880 466 902 419.5 c 128,-1,64
 924 373 924 373 924 310 c 0,0,1
EndSplineSet
EndChar

StartChar: t
Encoding: 116 116 87
Width: 772
GlyphClass: 2
Flags: W
AnchorPoint: "Anchor-1" 483 0 basechar 0
AnchorPoint: "Anchor-0" 383 1266 basechar 0
LayerCount: 2
UndoRedoHistory
Layer: 1
Undoes
EndUndoes
Redoes
EndRedoes
EndUndoRedoHistory
Fore
SplineSet
705 0 m 1,0,-1
 640 0 l 2,1,2
 520 0 520 0 445 14.5 c 128,-1,3
 370 29 370 29 318.5 68.5 c 0,4,5
 268 108 268 108 250 178 c 0,6,7
 239 223 239 223 238 283 c 0,8,9
 238 318 238 318 242 358 c 2,10,-1
 290 901 l 1,11,-1
 125 901 l 1,12,-1
 136 1026 l 1,13,-1
 306 1026 l 1,14,-1
 330 1288 l 1,15,-1
 519 1343 l 1,16,-1
 491 1026 l 1,17,-1
 780 1026 l 1,18,-1
 769 901 l 1,19,-1
 480 901 l 1,20,-1
 431 337 l 2,21,22
 429 316 429 316 429 298 c 0,23,24
 429 273 429 273 433 253 c 0,25,26
 440 220 440 220 457 198.5 c 128,-1,27
 474 177 474 177 511.5 166 c 128,-1,28
 549 155 549 155 595.5 151 c 128,-1,29
 642 147 642 147 718 147 c 1,30,-1
 705 0 l 1,0,-1
EndSplineSet
EndChar

StartChar: u
Encoding: 117 117 88
Width: 1219
GlyphClass: 2
Flags: W
AnchorPoint: "Anchor-2" 926 0 basechar 0
AnchorPoint: "Anchor-1" 587 0 basechar 0
AnchorPoint: "Anchor-0" 630 1026 basechar 0
LayerCount: 2
UndoRedoHistory
Layer: 1
Undoes
EndUndoes
Redoes
EndRedoes
EndUndoRedoHistory
Fore
SplineSet
530 -23 m 0,0,1
 404 -21 404 -21 321.5 39 c 0,2,3
 239 100 239 100 208 190 c 0,4,5
 184 260 184 260 184 343 c 0,6,7
 184 367 184 367 186 392 c 2,8,-1
 241 1026 l 1,9,-1
 431 1026 l 1,10,-1
 376 391 l 2,11,12
 374 371 374 371 374 352 c 0,13,14
 374 253 374 253 424 198 c 0,15,16
 482 132 482 132 595 130 c 0,17,18
 598 130 598 130 601 130 c 0,19,20
 728 130 728 130 806 210 c 0,21,22
 886 292 886 292 898 427 c 2,23,-1
 951 1026 l 1,24,-1
 1142 1026 l 1,25,-1
 1074 255 l 2,26,27
 1064 139 1064 139 1061 0 c 1,28,-1
 864 0 l 1,29,-1
 877 185 l 1,30,31
 864 153 864 153 839 120 c 128,-1,32
 814 87 814 87 773 52.5 c 128,-1,33
 732 18 732 18 668 -3 c 0,34,35
 607 -23 607 -23 537 -23 c 0,36,37
 533 -23 533 -23 530 -23 c 0,0,1
EndSplineSet
EndChar

StartChar: v
Encoding: 118 118 89
Width: 1067
GlyphClass: 2
Flags: W
LayerCount: 2
UndoRedoHistory
Layer: 1
Undoes
EndUndoes
Redoes
EndRedoes
EndUndoRedoHistory
Fore
SplineSet
439 0 m 1,0,-1
 101 1026 l 1,1,-1
 310 1026 l 1,2,-1
 500 387 l 1,3,-1
 555 196 l 1,4,-1
 639 387 l 1,5,-1
 942 1026 l 1,6,-1
 1147 1026 l 1,7,-1
 625 0 l 1,8,-1
 439 0 l 1,0,-1
EndSplineSet
EndChar

StartChar: w
Encoding: 119 119 90
Width: 1621
GlyphClass: 2
Flags: W
AnchorPoint: "Anchor-1" 840 0 basechar 0
AnchorPoint: "Anchor-0" 893 1024 basechar 0
LayerCount: 2
UndoRedoHistory
Layer: 1
Undoes
EndUndoes
Redoes
EndRedoes
EndUndoRedoHistory
Fore
SplineSet
358 0 m 1,0,-1
 108 1026 l 1,1,-1
 307 1026 l 1,2,-1
 453 343 l 1,3,-1
 479 220 l 1,4,-1
 527 333 l 1,5,-1
 826 1026 l 1,6,-1
 1006 1026 l 1,7,-1
 1167 334 l 1,8,-1
 1193 219 l 1,9,-1
 1237 333 l 1,10,-1
 1502 1026 l 1,11,-1
 1689 1026 l 1,12,-1
 1253 0 l 1,13,-1
 1079 0 l 1,14,-1
 919 672 l 1,15,-1
 886 807 l 1,16,-1
 827 674 l 1,17,-1
 534 0 l 1,18,-1
 358 0 l 1,0,-1
EndSplineSet
EndChar

StartChar: x
Encoding: 120 120 91
Width: 1034
GlyphClass: 2
Flags: W
LayerCount: 2
UndoRedoHistory
Layer: 1
Undoes
EndUndoes
Redoes
EndRedoes
EndUndoRedoHistory
Fore
SplineSet
48 0 m 1,0,-1
 463 510 l 1,1,-1
 154 1026 l 1,2,-1
 356 1026 l 1,3,-1
 579 649 l 1,4,-1
 880 1026 l 1,5,-1
 1075 1026 l 1,6,-1
 672 526 l 1,7,-1
 997 0 l 1,8,-1
 796 0 l 1,9,-1
 558 386 l 1,10,-1
 247 0 l 1,11,-1
 48 0 l 1,0,-1
EndSplineSet
EndChar

StartChar: y
Encoding: 121 121 92
Width: 1069
GlyphClass: 2
Flags: W
AnchorPoint: "Anchor-0" 594 1024 basechar 0
LayerCount: 2
UndoRedoHistory
Layer: 1
Undoes
EndUndoes
Redoes
EndRedoes
EndUndoRedoHistory
Fore
SplineSet
160 -434 m 1,0,-1
 104 -304 l 1,1,2
 231 -267 231 -267 315 -195 c 128,-1,3
 399 -123 399 -123 434 -45 c 1,4,-1
 460 10 l 1,5,-1
 131 1026 l 1,6,-1
 329 1026 l 1,7,-1
 569 208 l 1,8,-1
 929 1026 l 1,9,-1
 1128 1026 l 1,10,-1
 611 -68 l 2,11,12
 541 -215 541 -215 425 -310.5 c 128,-1,13
 309 -406 309 -406 160 -434 c 1,0,-1
EndSplineSet
EndChar

StartChar: z
Encoding: 122 122 93
Width: 959
GlyphClass: 2
Flags: W
AnchorPoint: "Anchor-1" 495 0 basechar 0
AnchorPoint: "Anchor-0" 520 1024 basechar 0
LayerCount: 2
UndoRedoHistory
Layer: 1
Undoes
EndUndoes
Redoes
EndRedoes
EndUndoRedoHistory
Fore
SplineSet
96 0 m 1,0,-1
 105 102 l 1,1,-1
 697 872 l 1,2,-1
 167 872 l 1,3,-1
 181 1026 l 1,4,-1
 958 1026 l 1,5,-1
 948 926 l 1,6,-1
 356 153 l 1,7,-1
 897 153 l 1,8,-1
 892 0 l 1,9,-1
 96 0 l 1,0,-1
EndSplineSet
EndChar

StartChar: braceleft
Encoding: 123 123 94
Width: 722
GlyphClass: 2
Flags: W
LayerCount: 2
UndoRedoHistory
Layer: 1
Undoes
EndUndoes
Redoes
EndRedoes
EndUndoRedoHistory
Fore
SplineSet
617 -217 m 1,0,1
 436 -213 436 -213 342 -137 c 0,2,3
 259 -70 259 -70 260 52 c 0,4,5
 260 68 260 68 261 84 c 2,6,-1
 282 326 l 2,7,8
 284 347 284 347 284 367 c 0,9,10
 284 548 284 548 116 562 c 1,11,-1
 128 700 l 1,12,13
 214 705 214 705 269 761 c 128,-1,14
 324 817 324 817 333 912 c 2,15,-1
 354 1150 l 2,16,17
 367 1303 367 1303 469 1391 c 128,-1,18
 571 1479 571 1479 765 1479 c 1,19,-1
 753 1331 l 1,20,21
 563 1328 563 1328 546 1136 c 2,22,-1
 523 872 l 2,23,24
 515 777 515 777 455 716 c 128,-1,25
 395 655 395 655 309 628 c 1,26,27
 390 596 390 596 438 522 c 0,28,29
 479 458 479 458 479 385 c 0,30,31
 479 374 479 374 478 364 c 2,32,-1
 458 132 l 2,33,34
 456 111 456 111 456 93 c 0,35,36
 456 10 456 10 494 -26 c 0,37,38
 540 -70 540 -70 629 -70 c 1,39,-1
 617 -217 l 1,0,1
EndSplineSet
EndChar

StartChar: bar
Encoding: 124 124 95
Width: 902
GlyphClass: 2
Flags: W
LayerCount: 2
UndoRedoHistory
Layer: 1
Undoes
EndUndoes
Redoes
EndRedoes
EndUndoRedoHistory
Fore
SplineSet
317 -480 m 1,0,-1
 493 1533 l 1,1,-1
 674 1533 l 1,2,-1
 498 -480 l 1,3,-1
 317 -480 l 1,0,-1
EndSplineSet
EndChar

StartChar: braceright
Encoding: 125 125 96
Width: 722
GlyphClass: 2
Flags: W
LayerCount: 2
UndoRedoHistory
Layer: 1
Undoes
EndUndoes
Redoes
EndRedoes
EndUndoRedoHistory
Fore
SplineSet
60 -220 m 1,0,-1
 72 -72 l 1,1,2
 163 -70 163 -70 217 -22.5 c 128,-1,3
 271 25 271 25 280 123 c 2,4,-1
 303 387 l 2,5,6
 311 482 311 482 370.5 543.5 c 128,-1,7
 430 605 430 605 516 631 c 1,8,9
 435 663 435 663 388 737 c 0,10,11
 347 801 347 801 347 873 c 0,12,13
 347 884 347 884 348 895 c 2,14,-1
 368 1127 l 2,15,16
 370 1147 370 1147 370 1165 c 0,17,18
 370 1248 370 1248 332 1285 c 0,19,20
 286 1329 286 1329 196 1329 c 1,21,-1
 209 1476 l 1,22,23
 388 1472 388 1472 482 1396 c 0,24,25
 565 1329 565 1329 565 1207 c 0,26,27
 565 1191 565 1191 564 1175 c 2,28,-1
 543 933 l 2,29,30
 541 912 541 912 541 892 c 0,31,32
 541 711 541 711 709 697 c 1,33,-1
 698 559 l 1,34,35
 612 554 612 554 556.5 497.5 c 128,-1,36
 501 441 501 441 492 346 c 2,37,-1
 472 109 l 2,38,39
 459 -44 459 -44 356.5 -132 c 128,-1,40
 254 -220 254 -220 60 -220 c 1,0,-1
EndSplineSet
EndChar

StartChar: asciitilde
Encoding: 126 126 97
Width: 1274
GlyphClass: 2
Flags: W
LayerCount: 2
UndoRedoHistory
Layer: 1
Undoes
EndUndoes
Redoes
EndRedoes
EndUndoRedoHistory
Fore
SplineSet
281 370 m 1,0,-1
 148 437 l 1,1,2
 181 551 181 551 264 622 c 128,-1,3
 347 693 347 693 469 693 c 0,4,5
 553 693 553 693 724 618 c 0,6,7
 735 614 735 614 767 600.5 c 128,-1,8
 799 587 799 587 819.5 579 c 128,-1,9
 840 571 840 571 865.5 563.5 c 128,-1,10
 891 556 891 556 905 556 c 0,11,12
 959 556 959 556 1004 607.5 c 128,-1,13
 1049 659 1049 659 1074 734 c 1,14,-1
 1221 687 l 1,15,16
 1180 557 1180 557 1095 478.5 c 128,-1,17
 1010 400 1010 400 892 400 c 0,18,19
 828 400 828 400 672 471 c 0,20,21
 671 471 671 471 643.5 482.5 c 128,-1,22
 616 494 616 494 605.5 498.5 c 128,-1,23
 595 503 595 503 569 512.5 c 128,-1,24
 543 522 543 522 527.5 526.5 c 128,-1,25
 512 531 512 531 492.5 535 c 128,-1,26
 473 539 473 539 459 539 c 0,27,28
 337 539 337 539 281 370 c 1,0,-1
EndSplineSet
EndChar

StartChar: cent
Encoding: 162 162 100
Width: 1133
GlyphClass: 2
Flags: W
LayerCount: 2
UndoRedoHistory
Layer: 1
Undoes
EndUndoes
Redoes
EndRedoes
EndUndoRedoHistory
Fore
SplineSet
587 -85 m 1,0,-1
 717 1382 l 1,1,-1
 807 1382 l 1,2,-1
 677 -85 l 1,3,-1
 587 -85 l 1,0,-1
663 136 m 0,4,5
 875 136 875 136 1027 247 c 1,6,-1
 980 383 l 1,7,8
 924 343 924 343 847.5 316 c 128,-1,9
 771 289 771 289 691 289 c 0,10,11
 540 290 540 290 460 392 c 0,12,13
 392 478 392 478 392 614 c 0,14,15
 392 639 392 639 394 667 c 0,16,17
 410 847 410 847 507.5 951.5 c 128,-1,18
 605 1056 605 1056 760 1056 c 0,19,20
 916 1056 916 1056 1001 962 c 1,21,-1
 1091 1079 l 1,22,23
 1042 1140 1042 1140 957 1174 c 128,-1,24
 872 1208 872 1208 767 1210 c 0,25,26
 760 1210 760 1210 752 1210 c 0,27,28
 528 1210 528 1210 374 1061 c 0,29,30
 214 907 214 907 194 663 c 0,31,32
 191 631 191 631 191 601 c 0,33,34
 191 408 191 408 301 282 c 0,35,36
 428 136 428 136 663 136 c 0,4,5
EndSplineSet
EndChar

StartChar: sterling
Encoding: 163 163 101
Width: 1235
GlyphClass: 2
Flags: W
LayerCount: 2
UndoRedoHistory
Layer: 1
Undoes
EndUndoes
Redoes
EndRedoes
EndUndoRedoHistory
Fore
SplineSet
169 0 m 1,0,-1
 181 153 l 1,1,2
 220 178 220 178 251.5 207.5 c 128,-1,3
 283 237 283 237 314 281 c 128,-1,4
 345 325 345 325 365.5 388 c 128,-1,5
 386 451 386 451 393 529 c 2,6,-1
 406 680 l 1,7,-1
 202 680 l 1,8,-1
 214 821 l 1,9,-1
 417 821 l 1,10,-1
 426 917 l 2,11,12
 433 998 433 998 446.5 1063.5 c 128,-1,13
 460 1129 460 1129 484 1192.5 c 128,-1,14
 508 1256 508 1256 545 1303.5 c 128,-1,15
 582 1351 582 1351 633 1387.5 c 128,-1,16
 684 1424 684 1424 755 1442.5 c 128,-1,17
 826 1461 826 1461 914 1461 c 0,18,19
 1096 1461 1096 1461 1203 1382 c 1,20,-1
 1138 1240 l 1,21,22
 1041 1301 1041 1301 908 1301 c 0,23,24
 770 1301 770 1301 704.5 1216.5 c 128,-1,25
 639 1132 639 1132 624 961 c 1,26,27
 614 831 614 831 614 821 c 1,28,-1
 939 821 l 1,29,-1
 926 680 l 1,30,-1
 605 680 l 1,31,32
 605 676 605 676 599 604 c 128,-1,33
 593 532 593 532 592 527 c 0,34,35
 581 417 581 417 538 312 c 128,-1,36
 495 207 495 207 451 160 c 1,37,-1
 1111 160 l 1,38,-1
 1098 0 l 1,39,-1
 169 0 l 1,0,-1
EndSplineSet
EndChar

StartChar: currency
Encoding: 164 164 102
Width: 1218
GlyphClass: 2
Flags: W
LayerCount: 2
UndoRedoHistory
Layer: 1
Undoes
EndUndoes
Redoes
EndRedoes
EndUndoRedoHistory
Fore
SplineSet
1122 544 m 1,0,-1
 952 730 l 1,1,2
 835 640 835 640 693 640 c 0,3,4
 550 640 550 640 449 731 c 1,5,-1
 245 544 l 1,6,-1
 199 595 l 1,7,-1
 402 782 l 1,8,9
 333 874 333 874 333 989 c 0,10,11
 333 1007 333 1007 335 1025 c 0,12,13
 347 1169 347 1169 452 1277 c 1,14,-1
 274 1472 l 1,15,-1
 330 1523 l 1,16,-1
 510 1327 l 1,17,18
 623 1410 623 1410 760 1410 c 0,19,20
 895 1410 895 1410 996 1328 c 1,21,-1
 1208 1523 l 1,22,-1
 1254 1472 l 1,23,-1
 1044 1279 l 1,24,25
 1120 1183 1120 1183 1120 1062 c 0,26,27
 1120 1044 1120 1044 1118 1025 c 0,28,29
 1106 886 1106 886 1008 780 c 1,30,-1
 1178 595 l 1,31,-1
 1122 544 l 1,0,-1
698 711 m 0,32,33
 827 711 827 711 921.5 801.5 c 128,-1,34
 1016 892 1016 892 1027 1024 c 0,35,36
 1028 1040 1028 1040 1028 1056 c 0,37,38
 1028 1166 1028 1166 960 1244 c 0,39,40
 882 1332 882 1332 752 1332 c 128,-1,41
 622 1332 622 1332 528 1243.5 c 128,-1,42
 434 1155 434 1155 423 1024 c 0,43,44
 422 1008 422 1008 422 992 c 0,45,46
 422 882 422 882 490 802 c 0,47,48
 568 712 568 712 698 711 c 0,32,33
EndSplineSet
EndChar

StartChar: yen
Encoding: 165 165 103
Width: 1234
GlyphClass: 2
Flags: W
LayerCount: 2
UndoRedoHistory
Layer: 1
Undoes
EndUndoes
Redoes
EndRedoes
EndUndoRedoHistory
Fore
SplineSet
1064 260 m 1,0,-1
 198 260 l 1,1,-1
 211 402 l 1,2,-1
 585 402 l 1,3,-1
 598 547 l 1,4,-1
 224 547 l 1,5,-1
 236 693 l 1,6,-1
 1102 693 l 1,7,-1
 1089 547 l 1,8,-1
 721 547 l 1,9,-1
 708 402 l 1,10,-1
 1077 402 l 1,11,-1
 1064 260 l 1,0,-1
523 0 m 1,12,-1
 574 582 l 1,13,-1
 146 1456 l 1,14,-1
 362 1456 l 1,15,-1
 691 760 l 1,16,-1
 1133 1456 l 1,17,-1
 1356 1456 l 1,18,-1
 771 585 l 1,19,-1
 720 0 l 1,20,-1
 523 0 l 1,12,-1
EndSplineSet
EndChar

StartChar: brokenbar
Encoding: 166 166 104
Width: 500
GlyphClass: 2
Flags: W
LayerCount: 2
UndoRedoHistory
Layer: 1
Undoes
EndUndoes
Redoes
EndRedoes
EndUndoRedoHistory
Fore
SplineSet
120 -480 m 1,0,-1
 196 400 l 1,1,-1
 379 400 l 1,2,-1
 302 -480 l 1,3,-1
 120 -480 l 1,0,-1
217 642 m 1,4,-1
 295 1533 l 1,5,-1
 477 1533 l 1,6,-1
 399 642 l 1,7,-1
 217 642 l 1,4,-1
EndSplineSet
EndChar

StartChar: section
Encoding: 167 167 105
Width: 1072
GlyphClass: 2
Flags: W
LayerCount: 2
UndoRedoHistory
Layer: 1
Undoes
EndUndoes
Redoes
EndRedoes
EndUndoRedoHistory
Fore
SplineSet
647 566 m 1,0,1
 760 641 760 641 767 718 c 0,2,3
 770 748 770 748 759 771.5 c 128,-1,4
 748 795 748 795 723.5 813 c 128,-1,5
 699 831 699 831 677 842.5 c 128,-1,6
 655 854 655 854 618.5 870.5 c 128,-1,7
 582 887 582 887 563 897 c 1,8,9
 509 865 509 865 477.5 830.5 c 128,-1,10
 446 796 446 796 442 747 c 0,11,12
 439 716 439 716 448.5 692.5 c 128,-1,13
 458 669 458 669 491 646.5 c 128,-1,14
 524 624 524 624 548 612 c 128,-1,15
 572 600 572 600 634 572 c 0,16,17
 643 568 643 568 647 566 c 1,0,1
483 -39 m 0,18,19
 330 -39 330 -39 201 16 c 1,20,-1
 214 183 l 1,21,22
 357 117 357 117 490 117 c 0,23,24
 587 117 587 117 647.5 154.5 c 128,-1,25
 708 192 708 192 714 257 c 0,26,27
 716 275 716 275 701 295.5 c 128,-1,28
 686 316 686 316 664.5 333.5 c 128,-1,29
 643 351 643 351 608 371.5 c 128,-1,30
 573 392 573 392 548 405 c 128,-1,31
 523 418 523 418 487.5 435.5 c 128,-1,32
 452 453 452 453 442 458 c 0,33,34
 236 554 236 554 236 710 c 0,35,36
 236 721 236 721 237 731 c 0,37,38
 243 806 243 806 297 867.5 c 128,-1,39
 351 929 351 929 433 972 c 1,40,41
 367 1019 367 1019 337 1074 c 0,42,43
 313 1119 313 1119 313 1180 c 0,44,45
 313 1194 313 1194 314 1209 c 0,46,47
 322 1301 322 1301 380 1365.5 c 128,-1,48
 438 1430 438 1430 524 1459.5 c 128,-1,49
 610 1489 610 1489 717 1489 c 0,50,51
 832 1489 832 1489 961 1446 c 1,52,-1
 948 1285 l 1,53,54
 901 1304 901 1304 834.5 1318.5 c 128,-1,55
 768 1333 768 1333 715 1333 c 0,56,57
 522 1333 522 1333 513 1216 c 0,58,59
 513 1211 513 1211 513 1207 c 0,60,61
 513 1158 513 1158 553 1120 c 0,62,63
 597 1078 597 1078 713 1025 c 1,64,65
 778 994 778 994 819 970 c 128,-1,66
 860 946 860 946 902 911 c 128,-1,67
 944 876 944 876 962 834 c 0,68,69
 977 799 977 799 978 758 c 0,70,71
 978 749 978 749 977 740 c 0,72,73
 965 604 965 604 784 491 c 1,74,75
 915 417 915 417 915 289 c 0,76,77
 915 277 915 277 914 265 c 0,78,79
 905 168 905 168 842 97.5 c 128,-1,80
 779 27 779 27 686 -6 c 128,-1,81
 593 -39 593 -39 483 -39 c 0,18,19
EndSplineSet
EndChar

StartChar: dieresis
Encoding: 168 168 106
Width: 743
GlyphClass: 4
Flags: W
AnchorPoint: "Anchor-0" 479 1026 mark 0
LayerCount: 2
UndoRedoHistory
Layer: 1
Undoes
EndUndoes
Redoes
EndRedoes
EndUndoRedoHistory
Fore
SplineSet
196 1202 m 1,0,-1
 212 1386 l 1,1,-1
 402 1386 l 1,2,-1
 386 1202 l 1,3,-1
 196 1202 l 1,0,-1
569 1202 m 1,4,-1
 585 1386 l 1,5,-1
 775 1386 l 1,6,-1
 759 1202 l 1,7,-1
 569 1202 l 1,4,-1
EndSplineSet
EndChar

StartChar: copyright
Encoding: 169 169 107
Width: 1829
GlyphClass: 2
Flags: W
LayerCount: 2
UndoRedoHistory
Layer: 1
Undoes
EndUndoes
Redoes
EndRedoes
EndUndoRedoHistory
Fore
SplineSet
965 263 m 0,0,1
 763 262 763 262 640 394 c 0,2,3
 532 510 532 510 532 678 c 0,4,5
 532 701 532 701 534 726 c 0,6,7
 552 930 552 930 698.5 1060 c 128,-1,8
 845 1190 845 1190 1054 1190 c 0,9,10
 1218 1190 1218 1190 1340 1092 c 1,11,-1
 1291 961 l 1,12,13
 1184 1046 1184 1046 1042 1046 c 0,14,15
 904 1046 904 1046 812 955.5 c 128,-1,16
 720 865 720 865 708 729 c 0,17,18
 706 710 706 710 706 693 c 0,19,20
 706 578 706 578 774 499 c 0,21,22
 852 408 852 408 1004 408 c 0,23,24
 1132 408 1132 408 1246 483 c 1,25,-1
 1278 352 l 1,26,27
 1137 263 1137 263 965 263 c 0,0,1
1047 1484 m 0,28,29
 1212 1484 1212 1484 1353 1424 c 128,-1,30
 1494 1364 1494 1364 1588.5 1262.5 c 0,31,32
 1682 1162 1682 1162 1730 1022 c 0,33,34
 1767 914 1767 914 1767 797 c 0,35,36
 1767 763 1767 763 1764 727 c 0,37,38
 1750 573 1750 573 1678.5 433.5 c 128,-1,39
 1607 294 1607 294 1495 192.5 c 128,-1,40
 1383 91 1383 91 1232.5 31 c 128,-1,41
 1082 -29 1082 -29 918 -29 c 0,42,43
 752 -29 752 -29 610.5 31 c 128,-1,44
 469 91 469 91 374.5 192.5 c 128,-1,45
 280 294 280 294 232 434 c 0,46,47
 195 542 195 542 196 658 c 0,48,49
 196 692 196 692 199 728 c 0,50,51
 217 935 217 935 334 1108 c 128,-1,52
 451 1281 451 1281 639.5 1382.5 c 128,-1,53
 828 1484 828 1484 1047 1484 c 0,28,29
1039 1369 m 0,54,55
 899 1369 899 1369 773 1319 c 128,-1,56
 647 1269 647 1269 554.5 1182.5 c 128,-1,57
 462 1096 462 1096 403 978 c 128,-1,58
 344 860 344 860 333 727 c 0,59,60
 330 695 330 695 330 665 c 0,61,62
 330 523 330 523 388 402 c 0,63,64
 458 255 458 255 600 168.5 c 128,-1,65
 742 82 742 82 928 82 c 0,66,67
 1067 82 1067 82 1193 132.5 c 128,-1,68
 1319 183 1319 183 1411 269.5 c 128,-1,69
 1503 356 1503 356 1562.5 474.5 c 128,-1,70
 1622 593 1622 593 1633 725 c 0,71,72
 1636 756 1636 756 1636 787 c 0,73,74
 1636 929 1636 929 1578 1050 c 0,75,76
 1508 1197 1508 1197 1366 1283 c 128,-1,77
 1224 1369 1224 1369 1039 1369 c 0,54,55
EndSplineSet
EndChar

StartChar: ordfeminine
Encoding: 170 170 108
Width: 799
GlyphClass: 2
Flags: W
LayerCount: 2
UndoRedoHistory
Layer: 1
Undoes
EndUndoes
Redoes
EndRedoes
EndUndoRedoHistory
Fore
SplineSet
410 761 m 0,0,1
 304 760 304 760 240 814 c 0,2,3
 184 862 184 862 184 942 c 0,4,5
 184 952 184 952 185 963 c 0,6,7
 188 1002 188 1002 201.5 1033 c 128,-1,8
 215 1064 215 1064 243 1091.5 c 128,-1,9
 271 1119 271 1119 315 1138 c 128,-1,10
 359 1157 359 1157 425.5 1168.5 c 128,-1,11
 492 1180 492 1180 579 1182 c 0,12,13
 582 1182 582 1182 624 1182.5 c 128,-1,14
 666 1183 666 1183 670 1183 c 1,15,16
 670 1185 670 1185 671.5 1195.5 c 128,-1,17
 673 1206 673 1206 673 1207 c 0,18,19
 675 1223 675 1223 675 1238 c 0,20,21
 674 1293 674 1293 650 1320 c 0,22,23
 620 1354 620 1354 545 1354 c 0,24,25
 443 1354 443 1354 305 1301 c 1,26,-1
 269 1413 l 1,27,28
 304 1433 304 1433 385.5 1455.5 c 128,-1,29
 467 1478 467 1478 566 1478 c 0,30,31
 692 1478 692 1478 764 1418 c 0,32,33
 827 1366 827 1366 827 1260 c 0,34,35
 827 1244 827 1244 826 1226 c 0,36,37
 825 1211 825 1211 818 1136 c 128,-1,38
 811 1061 811 1061 805 996.5 c 128,-1,39
 799 932 799 932 799 923 c 0,40,41
 795 859 795 859 795 784 c 1,42,-1
 650 784 l 1,43,-1
 651 921 l 1,44,45
 582 761 582 761 410 761 c 0,0,1
446 868 m 0,46,47
 529 868 529 868 588.5 929 c 128,-1,48
 648 990 648 990 661 1074 c 1,49,-1
 662 1082 l 2,50,51
 663 1090 663 1090 663 1091 c 1,52,53
 618 1090 618 1090 595 1089.5 c 128,-1,54
 572 1089 572 1089 532.5 1086 c 128,-1,55
 493 1083 493 1083 472 1078 c 128,-1,56
 451 1073 451 1073 423 1064 c 128,-1,57
 395 1055 395 1055 380.5 1042 c 128,-1,58
 366 1029 366 1029 354.5 1009 c 128,-1,59
 343 989 343 989 341 964 c 0,60,61
 340 958 340 958 340 952 c 0,62,63
 340 914 340 914 364 892 c 0,64,65
 391 868 391 868 446 868 c 0,46,47
EndSplineSet
EndChar

StartChar: guillemotleft
Encoding: 171 171 109
Width: 1156
GlyphClass: 2
Flags: W
LayerCount: 2
UndoRedoHistory
Layer: 1
Undoes
EndUndoes
Redoes
EndRedoes
EndUndoRedoHistory
Fore
SplineSet
437 167 m 1,0,-1
 199 541 l 1,1,-1
 509 917 l 1,2,-1
 701 917 l 1,3,-1
 399 541 l 1,4,-1
 625 167 l 1,5,-1
 437 167 l 1,0,-1
825 167 m 1,6,-1
 587 541 l 1,7,-1
 897 917 l 1,8,-1
 1086 917 l 1,9,-1
 787 541 l 1,10,-1
 1013 167 l 1,11,-1
 825 167 l 1,6,-1
EndSplineSet
EndChar

StartChar: logicalnot
Encoding: 172 172 110
Width: 1458
GlyphClass: 2
Flags: W
LayerCount: 2
UndoRedoHistory
Layer: 1
Undoes
EndUndoes
Redoes
EndRedoes
EndUndoRedoHistory
Fore
SplineSet
1078 233 m 1,0,-1
 1114 644 l 1,1,-1
 236 644 l 1,2,-1
 250 803 l 1,3,-1
 1303 803 l 1,4,-1
 1254 233 l 1,5,-1
 1078 233 l 1,0,-1
EndSplineSet
EndChar

StartChar: uni00AD
Encoding: 173 173 111
Width: 728
GlyphClass: 2
Flags: W
LayerCount: 2
UndoRedoHistory
Layer: 1
Undoes
EndUndoes
Redoes
EndRedoes
EndUndoRedoHistory
Fore
SplineSet
172 1188 m 1,0,-1
 184 1335 l 1,1,-1
 772 1335 l 1,2,-1
 760 1188 l 1,3,-1
 172 1188 l 1,0,-1
EndSplineSet
EndChar

StartChar: registered
Encoding: 174 174 112
Width: 1829
GlyphClass: 2
Flags: W
LayerCount: 2
UndoRedoHistory
Layer: 1
Undoes
EndUndoes
Redoes
EndRedoes
EndUndoRedoHistory
Fore
SplineSet
819 796 m 1,0,-1
 935 796 l 2,1,2
 1001 796 1001 796 1042 800 c 128,-1,3
 1083 804 1083 804 1120.5 816.5 c 128,-1,4
 1158 829 1158 829 1176 855 c 128,-1,5
 1194 881 1194 881 1198 922 c 0,6,7
 1199 934 1199 934 1199 945 c 0,8,9
 1198 1014 1198 1014 1154 1036 c 0,10,11
 1102 1062 1102 1062 951 1062 c 2,12,-1
 843 1062 l 1,13,-1
 819 796 l 1,0,-1
604 278 m 1,14,-1
 685 1200 l 1,15,-1
 968 1200 l 2,16,17
 1182 1200 1182 1200 1284 1132 c 0,18,19
 1376 1071 1376 1071 1376 961 c 0,20,21
 1376 949 1376 949 1375 936 c 0,22,23
 1366 839 1366 839 1298 769.5 c 128,-1,24
 1230 700 1230 700 1100 682 c 1,25,26
 1149 639 1149 639 1200 553 c 128,-1,27
 1251 467 1251 467 1347 278 c 1,28,-1
 1146 278 l 1,29,30
 1112 365 1112 365 1036 502.5 c 128,-1,31
 960 640 960 640 929 660 c 1,32,-1
 809 660 l 1,33,-1
 775 278 l 1,34,-1
 604 278 l 1,14,-1
1029 1369 m 0,35,36
 889 1369 889 1369 763 1319 c 128,-1,37
 637 1269 637 1269 544.5 1182.5 c 128,-1,38
 452 1096 452 1096 393 978 c 128,-1,39
 334 860 334 860 323 727 c 0,40,41
 320 695 320 695 320 665 c 0,42,43
 320 523 320 523 378 402 c 0,44,45
 448 255 448 255 590 168.5 c 128,-1,46
 732 82 732 82 918 82 c 0,47,48
 1057 82 1057 82 1183 132.5 c 128,-1,49
 1309 183 1309 183 1401 269.5 c 128,-1,50
 1493 356 1493 356 1552.5 474.5 c 128,-1,51
 1612 593 1612 593 1623 725 c 0,52,53
 1626 756 1626 756 1626 787 c 0,54,55
 1626 929 1626 929 1568 1050 c 0,56,57
 1498 1197 1498 1197 1356 1283 c 128,-1,58
 1214 1369 1214 1369 1029 1369 c 0,35,36
1037 1484 m 0,59,60
 1202 1484 1202 1484 1343 1424 c 128,-1,61
 1484 1364 1484 1364 1578.5 1262.5 c 0,62,63
 1672 1162 1672 1162 1720 1022 c 0,64,65
 1757 914 1757 914 1757 797 c 0,66,67
 1757 763 1757 763 1754 727 c 0,68,69
 1740 573 1740 573 1668.5 433.5 c 128,-1,70
 1597 294 1597 294 1485 192.5 c 128,-1,71
 1373 91 1373 91 1222.5 31 c 128,-1,72
 1072 -29 1072 -29 908 -29 c 0,73,74
 742 -29 742 -29 600.5 31 c 128,-1,75
 459 91 459 91 364.5 192.5 c 128,-1,76
 270 294 270 294 222 434 c 0,77,78
 185 542 185 542 186 658 c 0,79,80
 186 692 186 692 189 728 c 0,81,82
 207 935 207 935 324 1108 c 128,-1,83
 441 1281 441 1281 629.5 1382.5 c 128,-1,84
 818 1484 818 1484 1037 1484 c 0,59,60
EndSplineSet
EndChar

StartChar: macron
Encoding: 175 175 113
Width: 728
GlyphClass: 4
Flags: W
AnchorPoint: "Anchor-0" 435 1026 mark 0
LayerCount: 2
UndoRedoHistory
Layer: 1
Undoes
EndUndoes
Redoes
EndRedoes
EndUndoRedoHistory
Fore
SplineSet
172 1188 m 1,0,-1
 184 1335 l 1,1,-1
 772 1335 l 1,2,-1
 760 1188 l 1,3,-1
 172 1188 l 1,0,-1
EndSplineSet
EndChar

StartChar: degree
Encoding: 176 176 114
Width: 844
GlyphClass: 2
Flags: W
LayerCount: 2
UndoRedoHistory
Layer: 1
Undoes
EndUndoes
Redoes
EndRedoes
EndUndoRedoHistory
Fore
SplineSet
522 1005 m 0,0,1
 602 1005 602 1005 651 1058 c 128,-1,2
 700 1111 700 1111 705 1187 c 0,3,4
 706 1195 706 1195 706 1202 c 0,5,6
 706 1263 706 1263 668 1308 c 0,7,8
 626 1358 626 1358 551 1358 c 0,9,10
 472 1358 472 1358 422.5 1305 c 128,-1,11
 373 1252 373 1252 368 1177 c 0,12,13
 367 1169 367 1169 367 1162 c 0,14,15
 367 1100 367 1100 404 1055 c 0,16,17
 445 1005 445 1005 522 1005 c 0,0,1
512 882 m 0,18,19
 381 882 381 882 302 966 c 0,20,21
 229 1044 229 1044 229 1151 c 0,22,23
 229 1160 229 1160 230 1170 c 0,24,25
 237 1295 237 1295 331.5 1387 c 128,-1,26
 426 1479 426 1479 564 1479 c 0,27,28
 695 1478 695 1478 774 1394 c 0,29,30
 847 1316 847 1316 847 1210 c 0,31,32
 847 1201 847 1201 846 1191 c 0,33,34
 839 1066 839 1066 744 974 c 128,-1,35
 649 882 649 882 512 882 c 0,18,19
EndSplineSet
EndChar

StartChar: plusminus
Encoding: 177 177 115
Width: 1235
GlyphClass: 2
Flags: W
LayerCount: 2
UndoRedoHistory
Layer: 1
Undoes
EndUndoes
Redoes
EndRedoes
EndUndoRedoHistory
Fore
SplineSet
546 232 m 1,0,-1
 576 581 l 1,1,-1
 210 581 l 1,2,-1
 224 739 l 1,3,-1
 587 739 l 1,4,-1
 617 1091 l 1,5,-1
 793 1091 l 1,6,-1
 763 739 l 1,7,-1
 1127 739 l 1,8,-1
 1113 581 l 1,9,-1
 755 581 l 1,10,-1
 724 232 l 1,11,-1
 546 232 l 1,0,-1
166 0 m 1,12,-1
 179 150 l 1,13,-1
 1080 150 l 1,14,-1
 1067 0 l 1,15,-1
 166 0 l 1,12,-1
EndSplineSet
EndChar

StartChar: uni00B2
Encoding: 178 178 116
Width: 946
GlyphClass: 2
Flags: W
LayerCount: 2
UndoRedoHistory
Layer: 1
Undoes
EndUndoes
Redoes
EndRedoes
EndUndoRedoHistory
Fore
SplineSet
256 638 m 1,0,-1
 267 767 l 1,1,2
 505 959 505 959 610 1065.5 c 128,-1,3
 715 1172 715 1172 721 1239 c 0,4,5
 721 1244 721 1244 721 1250 c 0,6,7
 721 1291 721 1291 693 1316 c 0,8,9
 661 1344 661 1344 601 1344 c 0,10,11
 543 1344 543 1344 486.5 1314 c 128,-1,12
 430 1284 430 1284 387 1232 c 1,13,-1
 319 1335 l 1,14,15
 372 1403 372 1403 452 1441 c 128,-1,16
 532 1479 532 1479 621 1479 c 0,17,18
 740 1480 740 1480 811 1416 c 0,19,20
 874 1360 874 1360 874 1265 c 0,21,22
 874 1253 874 1253 873 1241 c 0,23,24
 869 1192 869 1192 845 1142.5 c 128,-1,25
 821 1093 821 1093 789.5 1051.5 c 128,-1,26
 758 1010 758 1010 703 959 c 128,-1,27
 648 908 648 908 602 870.5 c 128,-1,28
 556 833 556 833 483 777 c 1,29,-1
 828 777 l 1,30,-1
 816 638 l 1,31,-1
 256 638 l 1,0,-1
EndSplineSet
EndChar

StartChar: uni00B3
Encoding: 179 179 117
Width: 943
GlyphClass: 2
Flags: W
LayerCount: 2
UndoRedoHistory
Layer: 1
Undoes
EndUndoes
Redoes
EndRedoes
EndUndoRedoHistory
Fore
SplineSet
536 620 m 0,0,1
 373 620 373 620 267 715 c 1,2,-1
 340 831 l 1,3,4
 386 792 386 792 441 772.5 c 128,-1,5
 496 753 496 753 544 753 c 0,6,7
 608 753 608 753 650.5 786 c 128,-1,8
 693 819 693 819 698 877 c 0,9,10
 699 884 699 884 699 890 c 0,11,12
 699 943 699 943 655 968 c 0,13,14
 606 996 606 996 510 996 c 2,15,-1
 443 996 l 1,16,-1
 455 1135 l 1,17,-1
 517 1135 l 2,18,19
 696 1135 696 1135 705 1241 c 0,20,21
 705 1247 705 1247 705 1253 c 0,22,23
 705 1296 705 1296 680 1318 c 0,24,25
 651 1344 651 1344 595 1343 c 0,26,27
 488 1343 488 1343 373 1265 c 1,28,-1
 322 1379 l 1,29,30
 381 1424 381 1424 459.5 1451.5 c 128,-1,31
 538 1479 538 1479 613 1479 c 0,32,33
 724 1479 724 1479 798 1418 c 0,34,35
 863 1364 863 1364 863 1274 c 0,36,37
 863 1263 863 1263 862 1252 c 1,38,39
 848 1108 848 1108 703 1068 c 1,40,41
 782 1045 782 1045 819 994 c 0,42,43
 851 950 851 950 851 893 c 0,44,45
 851 884 851 884 850 874 c 0,46,47
 840 755 840 755 751 687.5 c 128,-1,48
 662 620 662 620 536 620 c 0,0,1
EndSplineSet
EndChar

StartChar: acute
Encoding: 180 180 118
Width: 607
GlyphClass: 4
Flags: W
AnchorPoint: "Anchor-0" 177 1026 mark 0
LayerCount: 2
UndoRedoHistory
Layer: 1
Undoes
EndUndoes
Redoes
EndRedoes
EndUndoRedoHistory
Fore
SplineSet
103 1171 m 1,0,-1
 369 1489 l 1,1,-1
 613 1489 l 1,2,-1
 263 1171 l 1,3,-1
 103 1171 l 1,0,-1
EndSplineSet
EndChar

StartChar: paragraph
Encoding: 182 182 119
Width: 1214
GlyphClass: 2
Flags: W
LayerCount: 2
UndoRedoHistory
Layer: 1
Undoes
EndUndoes
Redoes
EndRedoes
EndUndoRedoHistory
Fore
SplineSet
438 -130 m 1,0,-1
 518 784 l 1,1,2
 381 790 381 790 289 887 c 0,3,4
 208 972 208 972 208 1096 c 0,5,6
 208 1114 208 1114 210 1132 c 0,7,8
 238 1456 238 1456 755 1456 c 2,9,-1
 1174 1456 l 1,10,-1
 1161 1311 l 1,11,-1
 1061 1311 l 1,12,-1
 935 -130 l 1,13,-1
 784 -130 l 1,14,-1
 910 1311 l 1,15,-1
 728 1311 l 1,16,-1
 603 -130 l 1,17,-1
 438 -130 l 1,0,-1
EndSplineSet
EndChar

StartChar: periodcentered
Encoding: 183 183 120
Width: 444
GlyphClass: 2
Flags: W
LayerCount: 2
UndoRedoHistory
Layer: 1
Undoes
EndUndoes
Redoes
EndRedoes
EndUndoRedoHistory
Fore
SplineSet
152 525 m 1,0,-1
 171 754 l 1,1,-1
 411 754 l 1,2,-1
 391 525 l 1,3,-1
 152 525 l 1,0,-1
EndSplineSet
EndChar

StartChar: cedilla
Encoding: 184 184 121
Width: 529
GlyphClass: 4
Flags: W
AnchorPoint: "Anchor-1" 240 0 mark 0
LayerCount: 2
UndoRedoHistory
Layer: 1
Undoes
EndUndoes
Redoes
EndRedoes
EndUndoRedoHistory
Fore
SplineSet
477 -240 m 0,0,1
 477 -305 477 -305 435.5 -346.5 c 128,-1,2
 394 -388 394 -388 334.5 -403 c 128,-1,3
 275 -418 275 -418 198 -418 c 0,4,5
 115 -418 115 -418 27 -402 c 1,6,-1
 46 -298 l 1,7,8
 145 -319 145 -319 196 -319 c 0,9,10
 309 -319 309 -319 309 -238 c 0,11,12
 309 -164 309 -164 174 -164 c 0,13,14
 152 -164 152 -164 141 -165 c 1,15,-1
 190 22 l 1,16,-1
 294 22 l 1,17,-1
 272 -84 l 1,18,19
 365 -91 365 -91 421 -133.5 c 128,-1,20
 477 -176 477 -176 477 -240 c 0,0,1
EndSplineSet
EndChar

StartChar: uni00B9
Encoding: 185 185 122
Width: 913
GlyphClass: 2
Flags: W
LayerCount: 2
UndoRedoHistory
Layer: 1
Undoes
EndUndoes
Redoes
EndRedoes
EndUndoRedoHistory
Fore
SplineSet
324 646 m 1,0,-1
 335 766 l 1,1,-1
 480 766 l 1,2,-1
 526 1303 l 1,3,4
 501 1291 501 1291 357 1240 c 1,5,-1
 372 1380 l 1,6,7
 495 1419 495 1419 566 1459 c 1,8,-1
 688 1476 l 1,9,-1
 625 763 l 1,10,-1
 768 763 l 1,11,-1
 758 646 l 1,12,-1
 324 646 l 1,0,-1
EndSplineSet
EndChar

StartChar: ordmasculine
Encoding: 186 186 123
Width: 886
GlyphClass: 2
Flags: W
LayerCount: 2
UndoRedoHistory
Layer: 1
Undoes
EndUndoes
Redoes
EndRedoes
EndUndoRedoHistory
Fore
SplineSet
528 878 m 0,0,1
 621 878 621 878 680.5 943.5 c 128,-1,2
 740 1009 740 1009 748 1105 c 0,3,4
 749 1121 749 1121 749 1136 c 0,5,6
 750 1216 750 1216 710 1272 c 0,7,8
 662 1338 662 1338 567 1338 c 0,9,10
 474 1338 474 1338 414.5 1272 c 128,-1,11
 355 1206 355 1206 346 1109 c 0,12,13
 345 1093 345 1093 345 1077 c 0,14,15
 346 997 346 997 384 943 c 0,16,17
 430 878 430 878 528 878 c 0,0,1
518 750 m 0,18,19
 340 750 340 750 252 850 c 0,20,21
 176 937 176 937 176 1068 c 0,22,23
 176 1089 176 1089 178 1110 c 0,24,25
 191 1264 191 1264 299.5 1365 c 128,-1,26
 408 1466 408 1466 579 1466 c 0,27,28
 750 1466 750 1466 838 1364 c 0,29,30
 914 1276 914 1276 915 1146 c 0,31,32
 915 1127 915 1127 913 1107 c 0,33,34
 900 954 900 954 794 852 c 128,-1,35
 688 750 688 750 518 750 c 0,18,19
EndSplineSet
EndChar

StartChar: guillemotright
Encoding: 187 187 124
Width: 1156
GlyphClass: 2
Flags: W
LayerCount: 2
UndoRedoHistory
Layer: 1
Undoes
EndUndoes
Redoes
EndRedoes
EndUndoRedoHistory
Fore
SplineSet
123 167 m 1,0,-1
 423 542 l 1,1,-1
 196 917 l 1,2,-1
 384 917 l 1,3,-1
 624 542 l 1,4,-1
 314 167 l 1,5,-1
 123 167 l 1,0,-1
541 167 m 1,6,-1
 837 543 l 1,7,-1
 615 917 l 1,8,-1
 800 917 l 1,9,-1
 1039 542 l 1,10,-1
 728 167 l 1,11,-1
 541 167 l 1,6,-1
EndSplineSet
EndChar

StartChar: onequarter
Encoding: 188 188 125
Width: 2061
GlyphClass: 2
Flags: W
LayerCount: 2
UndoRedoHistory
Layer: 1
Undoes
EndUndoes
Redoes
EndRedoes
EndUndoRedoHistory
Fore
SplineSet
1596 23 m 1,0,-1
 1613 206 l 1,1,-1
 1243 206 l 1,2,-1
 1252 311 l 1,3,-1
 1661 825 l 1,4,-1
 1813 825 l 1,5,-1
 1770 328 l 1,6,-1
 1880 328 l 1,7,-1
 1876 206 l 1,8,-1
 1757 206 l 1,9,-1
 1741 23 l 1,10,-1
 1596 23 l 1,0,-1
1418 328 m 1,11,-1
 1621 328 l 1,12,-1
 1647 624 l 1,13,14
 1645 621 1645 621 1418 328 c 1,11,-1
515 0 m 1,15,-1
 1540 1439 l 1,16,-1
 1720 1439 l 1,17,-1
 696 0 l 1,18,-1
 515 0 l 1,15,-1
332 608 m 1,19,-1
 343 748 l 1,20,-1
 462 748 l 1,21,-1
 506 1250 l 1,22,23
 445 1220 445 1220 351 1187 c 1,24,-1
 365 1342 l 1,25,26
 456 1371 456 1371 545 1421 c 1,27,-1
 667 1438 l 1,28,-1
 607 746 l 1,29,-1
 726 746 l 1,30,-1
 715 608 l 1,31,-1
 332 608 l 1,19,-1
EndSplineSet
EndChar

StartChar: onehalf
Encoding: 189 189 126
Width: 2160
GlyphClass: 2
Flags: W
LayerCount: 2
UndoRedoHistory
Layer: 1
Undoes
EndUndoes
Redoes
EndRedoes
EndUndoRedoHistory
Fore
SplineSet
351 608 m 1,0,-1
 363 748 l 1,1,-1
 482 748 l 1,2,-1
 526 1250 l 1,3,4
 465 1220 465 1220 371 1187 c 1,5,-1
 385 1342 l 1,6,7
 476 1371 476 1371 565 1421 c 1,8,-1
 687 1438 l 1,9,-1
 626 746 l 1,10,-1
 746 746 l 1,11,-1
 734 608 l 1,12,-1
 351 608 l 1,0,-1
1321 0 m 1,13,-1
 1333 129 l 1,14,15
 1570 320 1570 320 1675 427 c 128,-1,16
 1780 534 1780 534 1786 602 c 0,17,18
 1786 607 1786 607 1786 613 c 0,19,20
 1786 654 1786 654 1758 678 c 0,21,22
 1726 706 1726 706 1666 706 c 0,23,24
 1608 706 1608 706 1551.5 676 c 128,-1,25
 1495 646 1495 646 1452 594 c 1,26,-1
 1384 697 l 1,27,28
 1437 765 1437 765 1517 803 c 128,-1,29
 1597 841 1597 841 1686 841 c 0,30,31
 1804 841 1804 841 1876 778 c 0,32,33
 1940 722 1940 722 1940 628 c 0,34,35
 1940 616 1940 616 1939 604 c 0,36,37
 1935 555 1935 555 1911 505 c 128,-1,38
 1887 455 1887 455 1855.5 413.5 c 128,-1,39
 1824 372 1824 372 1769.5 321 c 128,-1,40
 1715 270 1715 270 1668.5 232.5 c 128,-1,41
 1622 195 1622 195 1549 139 c 1,42,-1
 1894 139 l 1,43,-1
 1881 0 l 1,44,-1
 1321 0 l 1,13,-1
499 0 m 1,45,-1
 1524 1439 l 1,46,-1
 1704 1439 l 1,47,-1
 680 0 l 1,48,-1
 499 0 l 1,45,-1
EndSplineSet
EndChar

StartChar: threequarters
Encoding: 190 190 127
Width: 2154
GlyphClass: 2
Flags: W
LayerCount: 2
UndoRedoHistory
Layer: 1
Undoes
EndUndoes
Redoes
EndRedoes
EndUndoRedoHistory
Fore
SplineSet
556 582 m 0,0,1
 401 582 401 582 294 678 c 1,2,-1
 367 794 l 1,3,4
 459 716 459 716 564 716 c 0,5,6
 629 716 629 716 674 749 c 128,-1,7
 719 782 719 782 724 840 c 0,8,9
 725 847 725 847 725 853 c 0,10,11
 726 906 726 906 682 931 c 0,12,13
 634 959 634 959 537 959 c 1,14,-1
 470 958 l 1,15,-1
 482 1098 l 1,16,-1
 543 1098 l 2,17,18
 723 1098 723 1098 732 1204 c 0,19,20
 732 1210 732 1210 732 1215 c 0,21,22
 732 1258 732 1258 704 1280 c 0,23,24
 672 1306 672 1306 615 1305 c 0,25,26
 515 1305 515 1305 400 1227 c 1,27,-1
 349 1342 l 1,28,29
 408 1387 408 1387 483.5 1414 c 128,-1,30
 559 1441 559 1441 634 1441 c 0,31,32
 746 1442 746 1442 822 1380 c 0,33,34
 890 1325 890 1325 890 1236 c 0,35,36
 890 1225 890 1225 889 1214 c 0,37,38
 883 1155 883 1155 851.5 1106 c 128,-1,39
 820 1057 820 1057 762 1031 c 1,40,41
 878 976 878 976 878 860 c 0,42,43
 878 849 878 849 877 837 c 0,44,45
 867 718 867 718 775 650 c 128,-1,46
 683 582 683 582 556 582 c 0,0,1
1500 328 m 1,47,-1
 1704 328 l 1,48,-1
 1730 624 l 1,49,-1
 1500 328 l 1,47,-1
1679 23 m 1,50,-1
 1696 206 l 1,51,-1
 1327 206 l 1,52,-1
 1336 311 l 1,53,-1
 1743 825 l 1,54,-1
 1895 825 l 1,55,-1
 1852 328 l 1,56,-1
 1963 328 l 1,57,-1
 1960 206 l 1,58,-1
 1840 206 l 1,59,-1
 1824 23 l 1,60,-1
 1679 23 l 1,50,-1
589 0 m 1,61,-1
 1614 1439 l 1,62,-1
 1794 1439 l 1,63,-1
 770 0 l 1,64,-1
 589 0 l 1,61,-1
EndSplineSet
EndChar

StartChar: AE
Encoding: 198 198 135
Width: 2058
GlyphClass: 2
Flags: W
LayerCount: 2
UndoRedoHistory
Layer: 1
Undoes
EndUndoes
Redoes
EndRedoes
EndUndoRedoHistory
Fore
SplineSet
19 0 m 1,0,-1
 959 1456 l 1,1,-1
 1980 1456 l 1,2,-1
 1973 1287 l 1,3,-1
 1274 1287 l 1,4,-1
 1280 830 l 1,5,-1
 1909 830 l 1,6,-1
 1903 661 l 1,7,-1
 1288 661 l 1,8,-1
 1294 169 l 1,9,-1
 1925 169 l 1,10,-1
 1918 0 l 1,11,-1
 1095 0 l 1,12,-1
 1092 386 l 1,13,-1
 497 386 l 1,14,-1
 251 0 l 1,15,-1
 19 0 l 1,0,-1
592 550 m 1,16,-1
 1085 550 l 1,17,-1
 1086 1272 l 1,18,-1
 1054 1272 l 1,19,-1
 592 550 l 1,16,-1
EndSplineSet
EndChar

StartChar: Eth
Encoding: 208 208 145
Width: 1505
GlyphClass: 2
Flags: W
LayerCount: 2
UndoRedoHistory
Layer: 1
Undoes
EndUndoes
Redoes
EndRedoes
EndUndoRedoHistory
Fore
SplineSet
106 812 m 1,0,-1
 709 812 l 1,1,-1
 696 669 l 1,2,-1
 93 669 l 1,3,-1
 106 812 l 1,0,-1
402 169 m 1,4,-1
 641 169 l 2,5,6
 934 169 934 169 1093.5 316 c 128,-1,7
 1253 463 1253 463 1275 724 c 0,8,9
 1279 768 1279 768 1279 809 c 0,10,11
 1280 1042 1280 1042 1152 1154 c 0,12,13
 1002 1286 1002 1286 654 1287 c 2,14,-1
 500 1287 l 1,15,-1
 402 169 l 1,4,-1
189 0 m 1,16,-1
 317 1456 l 1,17,-1
 648 1456 l 2,18,19
 814 1456 814 1456 948 1431 c 128,-1,20
 1082 1406 1082 1406 1190 1351 c 128,-1,21
 1298 1296 1298 1296 1367 1212 c 128,-1,22
 1436 1128 1436 1128 1467 1005 c 0,23,24
 1488 920 1488 920 1488 819 c 0,25,26
 1488 773 1488 773 1484 725 c 0,27,28
 1454 382 1454 382 1227 191 c 128,-1,29
 1000 0 1000 0 611 0 c 2,30,-1
 189 0 l 1,16,-1
EndSplineSet
EndChar

StartChar: multiply
Encoding: 215 215 152
Width: 1234
GlyphClass: 2
Flags: W
LayerCount: 2
UndoRedoHistory
Layer: 1
Undoes
EndUndoes
Redoes
EndRedoes
EndUndoRedoHistory
Fore
SplineSet
350 142 m 1,0,-1
 240 263 l 1,1,-1
 553 552 l 1,2,-1
 290 840 l 1,3,-1
 422 961 l 1,4,-1
 685 673 l 1,5,-1
 998 961 l 1,6,-1
 1109 840 l 1,7,-1
 795 552 l 1,8,-1
 1059 264 l 1,9,-1
 927 142 l 1,10,-1
 664 430 l 1,11,-1
 350 142 l 1,0,-1
EndSplineSet
EndChar

StartChar: Oslash
Encoding: 216 216 153
Width: 1663
GlyphClass: 2
Flags: W
LayerCount: 2
UndoRedoHistory
Layer: 1
Undoes
EndUndoes
Redoes
EndRedoes
EndUndoRedoHistory
Fore
SplineSet
429 -130 m 1,0,-1
 332 -74 l 1,1,-1
 1331 1553 l 1,2,-1
 1428 1497 l 1,3,-1
 429 -130 l 1,0,-1
826 146 m 0,4,5
 949 146 949 146 1048.5 190.5 c 128,-1,6
 1148 235 1148 235 1215 314.5 c 128,-1,7
 1282 394 1282 394 1321.5 500 c 128,-1,8
 1361 606 1361 606 1372 734 c 0,9,10
 1376 777 1376 777 1376 817 c 0,11,12
 1376 894 1376 894 1362 963 c 0,13,14
 1341 1067 1341 1067 1288.5 1146 c 128,-1,15
 1236 1225 1236 1225 1144.5 1269.5 c 128,-1,16
 1053 1314 1053 1314 931 1314 c 0,17,18
 834 1314 834 1314 749 1283 c 128,-1,19
 664 1252 664 1252 601 1197 c 128,-1,20
 538 1142 538 1142 491 1067.5 c 128,-1,21
 444 993 444 993 417 906.5 c 128,-1,22
 390 820 390 820 382 725 c 0,23,24
 378 684 378 684 378 645 c 0,25,26
 378 568 378 568 393 498 c 0,27,28
 415 394 415 394 467.5 314.5 c 128,-1,29
 520 235 520 235 612 190.5 c 128,-1,30
 704 146 704 146 826 146 c 0,4,5
814 -23 m 0,31,32
 480 -23 480 -23 310 180 c 0,33,34
 166 353 166 353 166 629 c 0,35,36
 166 678 166 678 170 730 c 0,37,38
 184 894 184 894 244.5 1032 c 128,-1,39
 305 1170 305 1170 403.5 1270 c 128,-1,40
 502 1370 502 1370 643 1426.5 c 128,-1,41
 784 1483 784 1483 952 1483 c 0,42,43
 1278 1484 1278 1484 1447 1278 c 0,44,45
 1591 1103 1591 1103 1591 826 c 0,46,47
 1591 777 1591 777 1586 725 c 0,48,49
 1572 560 1572 560 1512.5 422.5 c 128,-1,50
 1453 285 1453 285 1355.5 186 c 128,-1,51
 1258 87 1258 87 1119 32 c 128,-1,52
 980 -23 980 -23 814 -23 c 0,31,32
EndSplineSet
EndChar

StartChar: Thorn
Encoding: 222 222 159
Width: 1281
GlyphClass: 2
Flags: W
LayerCount: 2
UndoRedoHistory
Layer: 1
Undoes
EndUndoes
Redoes
EndRedoes
EndUndoRedoHistory
Fore
SplineSet
156 0 m 1,0,-1
 283 1451 l 1,1,-1
 480 1451 l 1,2,-1
 460 1217 l 1,3,-1
 653 1217 l 2,4,5
 763 1217 763 1217 848 1206.5 c 128,-1,6
 933 1196 933 1196 1012 1166.5 c 128,-1,7
 1091 1137 1091 1137 1140 1089 c 0,8,9
 1188 1041 1188 1041 1214 962 c 0,10,11
 1233 904 1233 904 1233 830 c 0,12,13
 1233 804 1233 804 1231 777 c 0,14,15
 1221 665 1221 665 1169 580 c 128,-1,16
 1117 495 1117 495 1033.5 443.5 c 128,-1,17
 950 392 950 392 845.5 366.5 c 128,-1,18
 741 341 741 341 619 341 c 2,19,-1
 382 341 l 1,20,-1
 352 0 l 1,21,-1
 156 0 l 1,0,-1
397 510 m 1,22,-1
 651 510 l 2,23,24
 813 510 813 510 910.5 576 c 128,-1,25
 1008 642 1008 642 1020 776 c 0,26,27
 1022 796 1022 796 1022 814 c 0,28,29
 1022 871 1022 871 1005 911 c 0,30,31
 983 965 983 965 931.5 994.5 c 128,-1,32
 880 1024 880 1024 813.5 1036 c 128,-1,33
 747 1048 747 1048 652 1048 c 2,34,-1
 444 1048 l 1,35,-1
 397 510 l 1,22,-1
EndSplineSet
EndChar

StartChar: germandbls
Encoding: 223 223 160
Width: 1275
GlyphClass: 2
Flags: W
LayerCount: 2
UndoRedoHistory
Layer: 1
Undoes
EndUndoes
Redoes
EndRedoes
EndUndoRedoHistory
Fore
SplineSet
795 -23 m 0,0,1
 704 -23 704 -23 620.5 19 c 128,-1,2
 537 61 537 61 478 146 c 1,3,-1
 567 273 l 1,4,5
 621 202 621 202 684 166 c 128,-1,6
 747 130 747 130 804 130 c 0,7,8
 881 130 881 130 936.5 182.5 c 128,-1,9
 992 235 992 235 1000 326 c 0,10,11
 1001 338 1001 338 1001 349 c 0,12,13
 1000 376 1000 376 994 402 c 0,14,15
 984 440 984 440 969.5 470 c 128,-1,16
 955 500 955 500 923.5 533.5 c 128,-1,17
 892 567 892 567 866.5 589.5 c 128,-1,18
 841 612 841 612 794 644 c 128,-1,19
 747 676 747 676 717 694.5 c 128,-1,20
 687 713 687 713 632 746 c 1,21,-1
 660 890 l 1,22,23
 761 933 761 933 833.5 1009.5 c 128,-1,24
 906 1086 906 1086 914 1176 c 0,25,26
 915 1186 915 1186 915 1195 c 0,27,28
 914 1263 914 1263 870 1304 c 0,29,30
 820 1351 820 1351 731 1351 c 0,31,32
 650 1351 650 1351 588.5 1304.5 c 128,-1,33
 527 1258 527 1258 495.5 1186 c 128,-1,34
 464 1114 464 1114 456 1026 c 0,35,36
 451 964 451 964 414.5 531 c 128,-1,37
 378 98 378 98 369 0 c 1,38,-1
 179 0 l 1,39,-1
 271 1060 l 2,40,41
 289 1262 289 1262 414.5 1381.5 c 128,-1,42
 540 1501 540 1501 744 1501 c 0,43,44
 930 1501 930 1501 1036 1409 c 0,45,46
 1131 1326 1131 1326 1130 1209 c 0,47,48
 1130 1196 1130 1196 1129 1182 c 0,49,50
 1119 1077 1119 1077 1027 984.5 c 128,-1,51
 935 892 935 892 831 845 c 0,52,53
 792 827 792 827 777 817 c 1,54,55
 796 806 796 806 832 794 c 0,56,57
 896 773 896 773 951.5 745.5 c 128,-1,58
 1007 718 1007 718 1060 678 c 128,-1,59
 1113 638 1113 638 1148.5 591 c 128,-1,60
 1184 544 1184 544 1202 480 c 0,61,62
 1216 432 1216 432 1216 380 c 0,63,64
 1216 363 1216 363 1215 345 c 0,65,66
 1201 183 1201 183 1076 80 c 128,-1,67
 951 -23 951 -23 795 -23 c 0,0,1
EndSplineSet
EndChar

StartChar: ae
Encoding: 230 230 167
Width: 1807
GlyphClass: 2
Flags: W
LayerCount: 2
UndoRedoHistory
Layer: 1
Undoes
EndUndoes
Redoes
EndRedoes
EndUndoRedoHistory
Fore
SplineSet
458 -26 m 0,0,1
 290 -26 290 -26 194 58 c 0,2,3
 109 132 109 132 109 252 c 0,4,5
 109 268 109 268 111 286 c 0,6,7
 117 359 117 359 144 414.5 c 128,-1,8
 171 470 171 470 219.5 506.5 c 128,-1,9
 268 543 268 543 325.5 566.5 c 128,-1,10
 383 590 383 590 465 602 c 128,-1,11
 547 614 547 614 625 618.5 c 128,-1,12
 703 623 703 623 808 623 c 1,13,-1
 822 631 l 1,14,15
 824 651 824 651 824 670 c 0,16,17
 824 760 824 760 784 822 c 0,18,19
 736 898 736 898 627 897 c 0,20,21
 426 897 426 897 305 753 c 1,22,-1
 234 879 l 1,23,24
 367 1053 367 1053 655 1053 c 0,25,26
 718 1053 718 1053 779 1030 c 128,-1,27
 840 1007 840 1007 889.5 957 c 128,-1,28
 939 907 939 907 955 839 c 1,29,30
 1018 942 1018 942 1116.5 996.5 c 128,-1,31
 1215 1051 1215 1051 1327 1051 c 0,32,33
 1555 1050 1555 1050 1657 908 c 0,34,35
 1742 790 1742 790 1742 604 c 0,36,37
 1742 566 1742 566 1738 524 c 1,38,39
 1738 505 1738 505 1732 487 c 1,40,-1
 991 487 l 1,41,42
 991 485 991 485 990 473 c 128,-1,43
 989 461 989 461 989 460 c 0,44,45
 988 444 988 444 988 429 c 0,46,47
 988 304 988 304 1053 222 c 0,48,49
 1126 130 1126 130 1278 130 c 0,50,51
 1457 130 1457 130 1623 258 c 1,52,-1
 1668 113 l 1,53,54
 1482 -22 1482 -22 1253 -22 c 0,55,56
 1129 -22 1129 -22 1027.5 43 c 128,-1,57
 926 108 926 108 876 215 c 1,58,59
 812 103 812 103 707 38.5 c 128,-1,60
 602 -26 602 -26 458 -26 c 0,0,1
496 130 m 0,61,62
 560 130 560 130 611 148.5 c 128,-1,63
 662 167 662 167 696 198 c 128,-1,64
 730 229 730 229 754.5 273 c 128,-1,65
 779 317 779 317 791.5 364.5 c 128,-1,66
 804 412 804 412 809 468 c 1,67,-1
 676 466 l 2,68,69
 594 465 594 465 539 459 c 128,-1,70
 484 453 484 453 427 436 c 128,-1,71
 370 419 370 419 339 383.5 c 128,-1,72
 308 348 308 348 303 294 c 0,73,74
 302 285 302 285 302 276 c 0,75,76
 302 206 302 206 351 170 c 0,77,78
 406 130 406 130 496 130 c 0,61,62
1005 619 m 1,79,-1
 1562 619 l 1,80,-1
 1562 633 l 1,81,82
 1559 759 1559 759 1501 829.5 c 128,-1,83
 1443 900 1443 900 1330 900 c 0,84,85
 1208 900 1208 900 1119.5 819 c 128,-1,86
 1031 738 1031 738 1005 619 c 1,79,-1
EndSplineSet
EndChar

StartChar: eth
Encoding: 240 240 177
Width: 1222
GlyphClass: 2
Flags: W
LayerCount: 2
UndoRedoHistory
Layer: 1
Undoes
EndUndoes
Redoes
EndRedoes
EndUndoRedoHistory
Fore
SplineSet
559 1056 m 1,0,-1
 499 1158 l 1,1,-1
 1033 1503 l 1,2,-1
 1093 1402 l 1,3,-1
 559 1056 l 1,0,-1
576 -23 m 0,4,5
 466 -23 466 -23 376.5 14.5 c 128,-1,6
 287 52 287 52 230 116.5 c 128,-1,7
 173 181 173 181 146 268 c 0,8,9
 126 333 126 333 126 405 c 0,10,11
 126 429 126 429 128 454 c 0,12,13
 145 652 145 652 288 776 c 128,-1,14
 431 900 431 900 640 900 c 0,15,16
 862 900 862 900 965 732 c 1,17,18
 965 751 965 751 964 760 c 1,19,20
 965 777 965 777 965 793 c 0,21,22
 966 983 966 983 818 1141 c 0,23,24
 658 1312 658 1312 375 1375 c 1,25,-1
 466 1503 l 1,26,27
 508 1496 508 1496 557 1481.5 c 128,-1,28
 606 1467 606 1467 679 1435 c 128,-1,29
 752 1403 752 1403 817.5 1359.5 c 128,-1,30
 883 1316 883 1316 950 1246 c 128,-1,31
 1017 1176 1017 1176 1063 1092 c 128,-1,32
 1109 1008 1109 1008 1133 888 c 0,33,34
 1150 803 1150 803 1150 709 c 0,35,36
 1150 670 1150 670 1147 629 c 0,37,38
 1124 325 1124 325 972 151 c 128,-1,39
 820 -23 820 -23 576 -23 c 0,4,5
590 136 m 0,40,41
 733 136 733 136 821.5 233 c 128,-1,42
 910 330 910 330 923 478 c 1,43,44
 924 489 924 489 924 500 c 0,45,46
 924 600 924 600 848 666 c 0,47,48
 764 739 764 739 646 739 c 0,49,50
 515 739 515 739 427 658.5 c 128,-1,51
 339 578 339 578 327 445 c 0,52,53
 325 426 325 426 325 408 c 0,54,55
 326 296 326 296 390 222 c 0,56,57
 464 136 464 136 590 136 c 0,40,41
EndSplineSet
EndChar

StartChar: divide
Encoding: 247 247 184
Width: 1304
GlyphClass: 2
Flags: W
LayerCount: 2
UndoRedoHistory
Layer: 1
Undoes
EndUndoes
Redoes
EndRedoes
EndUndoRedoHistory
Fore
SplineSet
533 9 m 1,0,-1
 552 238 l 1,1,-1
 795 238 l 1,2,-1
 775 9 l 1,3,-1
 533 9 l 1,0,-1
202 474 m 1,4,-1
 216 634 l 1,5,-1
 1191 634 l 1,6,-1
 1177 474 l 1,7,-1
 202 474 l 1,4,-1
606 863 m 1,8,-1
 626 1092 l 1,9,-1
 868 1092 l 1,10,-1
 848 863 l 1,11,-1
 606 863 l 1,8,-1
EndSplineSet
EndChar

StartChar: oslash
Encoding: 248 248 185
Width: 1252
GlyphClass: 2
Flags: W
LayerCount: 2
UndoRedoHistory
Layer: 1
Undoes
EndUndoes
Redoes
EndRedoes
EndUndoRedoHistory
Fore
SplineSet
348 -236 m 1,0,-1
 262 -195 l 1,1,-1
 1025 1261 l 1,2,-1
 1113 1220 l 1,3,-1
 348 -236 l 1,0,-1
641 130 m 0,4,5
 795 130 795 130 889.5 234.5 c 128,-1,6
 984 339 984 339 999 512 c 0,7,8
 1001 540 1001 540 1001 567 c 0,9,10
 1000 704 1000 704 936 792 c 0,11,12
 858 898 858 898 705 897 c 0,13,14
 550 897 550 897 453 791.5 c 128,-1,15
 356 686 356 686 341 511 c 0,16,17
 339 483 339 483 339 458 c 0,18,19
 338 322 338 322 404 234 c 0,20,21
 482 130 482 130 641 130 c 0,4,5
623 -23 m 0,22,23
 388 -24 388 -24 254 126 c 0,24,25
 138 255 138 255 138 450 c 0,26,27
 138 480 138 480 141 512 c 0,28,29
 162 753 162 753 321 902 c 128,-1,30
 480 1051 480 1051 723 1051 c 0,31,32
 964 1050 964 1050 1092 902 c 0,33,34
 1202 774 1202 774 1202 578 c 0,35,36
 1202 546 1202 546 1199 512 c 0,37,38
 1178 273 1178 273 1022 125 c 128,-1,39
 866 -23 866 -23 623 -23 c 0,22,23
EndSplineSet
EndChar

StartChar: thorn
Encoding: 254 254 191
Width: 1235
GlyphClass: 2
Flags: W
LayerCount: 2
UndoRedoHistory
Layer: 1
Undoes
EndUndoes
Redoes
EndRedoes
EndUndoRedoHistory
Fore
SplineSet
118 -417 m 1,0,-1
 282 1458 l 1,1,-1
 471 1458 l 1,2,-1
 419 887 l 1,3,4
 479 965 479 965 566 1008 c 128,-1,5
 653 1051 653 1051 759 1051 c 0,6,7
 909 1051 909 1051 1011 978 c 0,8,9
 1112 905 1112 905 1154 788 c 0,10,11
 1186 699 1186 699 1186 594 c 0,12,13
 1186 561 1186 561 1183 526 c 0,14,15
 1170 380 1170 380 1106.5 256.5 c 128,-1,16
 1043 133 1043 133 930 55 c 128,-1,17
 817 -23 817 -23 676 -23 c 0,18,19
 451 -23 451 -23 352 133 c 1,20,-1
 303 -417 l 1,21,-1
 118 -417 l 1,0,-1
650 130 m 0,22,23
 726 130 726 130 787 161.5 c 128,-1,24
 848 193 848 193 887.5 248.5 c 128,-1,25
 927 304 927 304 950.5 372.5 c 128,-1,26
 974 441 974 441 981 521 c 0,27,28
 984 554 984 554 984 584 c 0,29,30
 984 624 984 624 978 662 c 0,31,32
 968 726 968 726 940.5 780.5 c 128,-1,33
 913 835 913 835 857.5 865.5 c 128,-1,34
 802 896 802 896 723 896 c 0,35,36
 641 896 641 896 577 863.5 c 128,-1,37
 513 831 513 831 473.5 773 c 128,-1,38
 434 715 434 715 412 646 c 128,-1,39
 390 577 390 577 383 494 c 0,40,41
 381 467 381 467 381 441 c 0,42,43
 380 315 380 315 438 231 c 0,44,45
 508 130 508 130 650 130 c 0,22,23
EndSplineSet
EndChar

StartChar: dcroat
Encoding: 273 273 210
Width: 1258
GlyphClass: 2
Flags: W
LayerCount: 2
UndoRedoHistory
Layer: 1
Undoes
EndUndoes
Redoes
EndRedoes
EndUndoRedoHistory
Fore
SplineSet
711 1225 m 1,0,-1
 724 1362 l 1,1,-1
 1336 1362 l 1,2,-1
 1323 1225 l 1,3,-1
 711 1225 l 1,0,-1
572 -23 m 0,4,5
 437 -23 437 -23 335 41 c 0,6,7
 233 104 233 104 180 226 c 0,8,9
 138 322 138 322 138 442 c 0,10,11
 138 474 138 474 141 507 c 0,12,13
 162 750 162 750 306 900.5 c 128,-1,14
 450 1051 450 1051 673 1051 c 0,15,16
 781 1051 781 1051 862.5 1005.5 c 128,-1,17
 944 960 944 960 977 886 c 1,18,-1
 1028 1482 l 1,19,-1
 1218 1482 l 1,20,-1
 1112 262 l 2,21,22
 1107 201 1107 201 1096 0 c 1,23,-1
 902 0 l 1,24,-1
 917 174 l 1,25,26
 876 91 876 91 785.5 34 c 128,-1,27
 695 -23 695 -23 572 -23 c 0,4,5
610 130 m 0,28,29
 755 130 755 130 844 240.5 c 128,-1,30
 933 351 933 351 949 536 c 0,31,32
 952 564 952 564 952 591 c 0,33,34
 952 716 952 716 893 798 c 0,35,36
 822 897 822 897 680 897 c 0,37,38
 537 897 537 897 447 791.5 c 128,-1,39
 357 686 357 686 342 510 c 0,40,41
 339 480 339 480 339 452 c 0,42,43
 340 320 340 320 398 234 c 0,44,45
 468 130 468 130 610 130 c 0,28,29
EndSplineSet
EndChar

StartChar: gcommaaccent
Encoding: 291 291 228
Width: 1241
GlyphClass: 2
Flags: W
LayerCount: 2
UndoRedoHistory
Layer: 1
Undoes
EndUndoes
Redoes
EndRedoes
EndUndoRedoHistory
Fore
SplineSet
460 -422 m 0,0,1
 254 -422 254 -422 100 -340 c 1,2,-1
 132 -187 l 1,3,4
 277 -282 277 -282 461 -282 c 0,5,6
 642 -282 642 -282 745.5 -200.5 c 128,-1,7
 849 -119 849 -119 864 49 c 2,8,-1
 875 176 l 1,9,10
 809 90 809 90 713 45 c 128,-1,11
 617 0 617 0 507 0 c 0,12,13
 288 0 288 0 176 140 c 0,14,15
 80 258 80 258 80 443 c 0,16,17
 80 476 80 476 83 511 c 0,18,19
 93 622 93 622 132 719 c 128,-1,20
 171 816 171 816 236 890.5 c 128,-1,21
 301 965 301 965 397.5 1008 c 128,-1,22
 494 1051 494 1051 611 1051 c 0,23,24
 828 1051 828 1051 937 885 c 1,25,-1
 955 1026 l 1,26,-1
 1120 1026 l 1,27,28
 1099 857 1099 857 1092 773 c 2,29,-1
 1037 147 l 2,30,31
 1031 84 1031 84 1021 29.5 c 128,-1,32
 1011 -25 1011 -25 990.5 -84 c 128,-1,33
 970 -143 970 -143 941.5 -191 c 128,-1,34
 913 -239 913 -239 868 -283 c 128,-1,35
 823 -327 823 -327 766.5 -357 c 128,-1,36
 710 -387 710 -387 632 -404.5 c 128,-1,37
 554 -422 554 -422 460 -422 c 0,0,1
549 135 m 0,38,39
 619 135 619 135 677 158 c 128,-1,40
 735 181 735 181 774.5 220 c 128,-1,41
 814 259 814 259 842.5 313.5 c 128,-1,42
 871 368 871 368 886 426 c 128,-1,43
 901 484 901 484 907 550 c 0,44,45
 909 574 909 574 909 597 c 0,46,47
 909 723 909 723 843 812 c 0,48,49
 765 917 765 917 621 917 c 0,50,51
 516 917 516 917 435 860.5 c 128,-1,52
 354 804 354 804 310.5 714.5 c 128,-1,53
 267 625 267 625 257 515 c 0,54,55
 254 478 254 478 254 445 c 0,56,57
 254 370 254 370 270 313 c 0,58,59
 292 231 292 231 361.5 183 c 128,-1,60
 431 135 431 135 549 135 c 0,38,39
529 1162 m 1,61,-1
 733 1625 l 1,62,-1
 864 1625 l 1,63,-1
 716 1162 l 1,64,-1
 529 1162 l 1,61,-1
EndSplineSet
EndChar

StartChar: Hbar
Encoding: 294 294 231
Width: 1532
GlyphClass: 2
Flags: W
LayerCount: 2
UndoRedoHistory
Layer: 1
Undoes
EndUndoes
Redoes
EndRedoes
EndUndoRedoHistory
Fore
SplineSet
176 1138 m 1,0,-1
 189 1285 l 1,1,-1
 1539 1285 l 1,2,-1
 1526 1138 l 1,3,-1
 176 1138 l 1,0,-1
189 0 m 1,4,-1
 317 1456 l 1,5,-1
 514 1456 l 1,6,-1
 460 832 l 1,7,-1
 1220 832 l 1,8,-1
 1275 1456 l 1,9,-1
 1471 1456 l 1,10,-1
 1343 0 l 1,11,-1
 1148 0 l 1,12,-1
 1206 663 l 1,13,-1
 446 663 l 1,14,-1
 388 0 l 1,15,-1
 189 0 l 1,4,-1
EndSplineSet
EndChar

StartChar: hbar
Encoding: 295 295 232
Width: 1205
GlyphClass: 2
Flags: W
LayerCount: 2
UndoRedoHistory
Layer: 1
Undoes
EndUndoes
Redoes
EndRedoes
EndUndoRedoHistory
Fore
SplineSet
97 1194 m 1,0,-1
 109 1328 l 1,1,-1
 696 1328 l 1,2,-1
 684 1194 l 1,3,-1
 97 1194 l 1,0,-1
156 0 m 1,4,-1
 286 1482 l 1,5,-1
 476 1482 l 1,6,-1
 423 869 l 1,7,8
 483 960 483 960 578.5 1005.5 c 128,-1,9
 674 1051 674 1051 780 1051 c 0,10,11
 875 1051 875 1051 944.5 1016.5 c 128,-1,12
 1014 982 1014 982 1052.5 921 c 0,13,14
 1090 860 1090 860 1106 783 c 0,15,16
 1116 732 1116 732 1117 676 c 0,17,18
 1117 647 1117 647 1114 616 c 2,19,-1
 1060 0 l 1,20,-1
 869 0 l 1,21,-1
 923 612 l 2,22,23
 926 642 926 642 926 669 c 0,24,25
 926 770 926 770 890 826 c 0,26,27
 846 897 846 897 736 897 c 0,28,29
 604 897 604 897 507 812.5 c 128,-1,30
 410 728 410 728 399 597 c 2,31,-1
 347 0 l 1,32,-1
 156 0 l 1,4,-1
EndSplineSet
EndChar

StartChar: dotlessi
Encoding: 305 305 242
Width: 536
GlyphClass: 2
Flags: W
AnchorPoint: "Anchor-0" 345 1023 basechar 0
LayerCount: 2
UndoRedoHistory
Layer: 1
Undoes
EndUndoes
Redoes
EndRedoes
EndUndoRedoHistory
Fore
SplineSet
184 0 m 1,0,-1
 274 1026 l 1,1,-1
 464 1026 l 1,2,-1
 375 0 l 1,3,-1
 184 0 l 1,0,-1
EndSplineSet
EndChar

StartChar: kgreenlandic
Encoding: 312 312 249
Width: 1099
GlyphClass: 2
Flags: W
LayerCount: 2
UndoRedoHistory
Layer: 1
Undoes
EndUndoes
Redoes
EndRedoes
EndUndoRedoHistory
Fore
SplineSet
154 0 m 1,0,-1
 244 1026 l 1,1,-1
 434 1026 l 1,2,-1
 395 579 l 1,3,-1
 866 1026 l 1,4,-1
 1126 1026 l 1,5,-1
 557 511 l 1,6,7
 612 456 612 456 815 255 c 128,-1,8
 1018 54 1018 54 1073 0 c 1,9,-1
 820 0 l 1,10,-1
 383 445 l 1,11,-1
 344 0 l 1,12,-1
 154 0 l 1,0,-1
EndSplineSet
EndChar

StartChar: Lslash
Encoding: 321 321 258
Width: 1134
GlyphClass: 2
Flags: W
LayerCount: 2
UndoRedoHistory
Layer: 1
Undoes
EndUndoes
Redoes
EndRedoes
EndUndoRedoHistory
Fore
SplineSet
739 902 m 1,0,-1
 74 486 l 1,1,-1
 89 650 l 1,2,-1
 753 1066 l 1,3,-1
 739 902 l 1,0,-1
187 0 m 1,4,-1
 315 1456 l 1,5,-1
 512 1456 l 1,6,-1
 399 169 l 1,7,-1
 1075 169 l 1,8,-1
 1060 0 l 1,9,-1
 187 0 l 1,4,-1
EndSplineSet
EndChar

StartChar: lslash
Encoding: 322 322 259
Width: 519
GlyphClass: 2
Flags: W
LayerCount: 2
UndoRedoHistory
Layer: 1
Undoes
EndUndoes
Redoes
EndRedoes
EndUndoRedoHistory
Fore
SplineSet
60 601 m 1,0,-1
 75 763 l 1,1,-1
 616 1088 l 1,2,-1
 601 925 l 1,3,-1
 60 601 l 1,0,-1
170 0 m 1,4,-1
 299 1482 l 1,5,-1
 489 1482 l 1,6,-1
 360 0 l 1,7,-1
 170 0 l 1,4,-1
EndSplineSet
EndChar

StartChar: Eng
Encoding: 330 330 267
Width: 1574
GlyphClass: 2
Flags: W
LayerCount: 2
UndoRedoHistory
Layer: 1
Undoes
EndUndoes
Redoes
EndRedoes
EndUndoRedoHistory
Fore
SplineSet
514 -372 m 1,0,-1
 551 -217 l 1,1,2
 744 -270 744 -270 870 -270 c 0,3,4
 1015 -270 1015 -270 1092 -207.5 c 128,-1,5
 1169 -145 1169 -145 1188 -4 c 0,6,7
 1188 -1 1188 -1 1190.5 27.5 c 128,-1,8
 1193 56 1193 56 1194 59 c 1,9,-1
 559 1048 l 1,10,-1
 481 1187 l 1,11,-1
 378 0 l 1,12,-1
 187 0 l 1,13,-1
 314 1456 l 1,14,-1
 532 1456 l 1,15,-1
 1140 485 l 1,16,-1
 1221 345 l 1,17,-1
 1318 1456 l 1,18,-1
 1510 1456 l 1,19,-1
 1391 95 l 2,20,21
 1369 -164 1369 -164 1242.5 -292 c 128,-1,22
 1116 -420 1116 -420 862 -420 c 0,23,24
 714 -420 714 -420 514 -372 c 1,0,-1
EndSplineSet
EndChar

StartChar: eng
Encoding: 331 331 268
Width: 1231
GlyphClass: 2
Flags: W
LayerCount: 2
UndoRedoHistory
Layer: 1
Undoes
EndUndoes
Redoes
EndRedoes
EndUndoRedoHistory
Fore
SplineSet
204 -350 m 1,0,-1
 241 -194 l 1,1,2
 434 -247 434 -247 561 -247 c 0,3,4
 719 -247 719 -247 796.5 -164 c 128,-1,5
 874 -81 874 -81 889 96 c 2,6,-1
 929 553 l 2,7,8
 934 609 934 609 934 657 c 0,9,10
 934 702 934 702 930 738 c 0,11,12
 922 814 922 814 874.5 855.5 c 128,-1,13
 827 897 827 897 736 897 c 0,14,15
 618 897 618 897 519 812 c 128,-1,16
 420 727 420 727 412 640 c 2,17,-1
 356 0 l 1,18,-1
 166 0 l 1,19,-1
 230 735 l 2,20,21
 236 806 236 806 240 879 c 128,-1,22
 244 952 244 952 244 989 c 2,23,-1
 245 1026 l 1,24,-1
 441 1026 l 1,25,-1
 432 882 l 1,26,27
 493 965 493 965 586.5 1008 c 128,-1,28
 680 1051 680 1051 785 1051 c 0,29,30
 986 1051 986 1051 1063 928 c 0,31,32
 1124 831 1124 831 1124 660 c 0,33,34
 1124 613 1124 613 1119 561 c 2,35,-1
 1082 129 l 2,36,37
 1060 -132 1060 -132 932.5 -264.5 c 128,-1,38
 805 -397 805 -397 552 -397 c 0,39,40
 399 -397 399 -397 204 -350 c 1,0,-1
EndSplineSet
EndChar

StartChar: OE
Encoding: 338 338 275
Width: 2101
GlyphClass: 2
Flags: W
LayerCount: 2
UndoRedoHistory
Layer: 1
Undoes
EndUndoes
Redoes
EndRedoes
EndUndoRedoHistory
Fore
SplineSet
724 -23 m 0,0,1
 522 -23 522 -23 376 71.5 c 128,-1,2
 230 166 230 166 161 337 c 0,3,4
 107 471 107 471 107 637 c 0,5,6
 107 683 107 683 111 730 c 0,7,8
 125 888 125 888 186.5 1026.5 c 128,-1,9
 248 1165 248 1165 345.5 1266 c 128,-1,10
 443 1367 443 1367 577 1425 c 128,-1,11
 711 1483 711 1483 863 1483 c 0,12,13
 1039 1483 1039 1483 1187 1389 c 1,14,-1
 1193 1456 l 1,15,-1
 2006 1456 l 1,16,-1
 1991 1287 l 1,17,-1
 1375 1287 l 1,18,-1
 1335 830 l 1,19,-1
 1914 830 l 1,20,-1
 1899 661 l 1,21,-1
 1321 661 l 1,22,-1
 1278 169 l 1,23,-1
 1923 169 l 1,24,-1
 1908 0 l 1,25,-1
 1065 0 l 1,26,-1
 1073 87 l 1,27,28
 903 -23 903 -23 724 -23 c 0,0,1
755 140 m 0,29,30
 934 140 934 140 1088 255 c 1,31,-1
 1172 1213 l 1,32,33
 1040 1313 1040 1313 858 1313 c 0,34,35
 748 1313 748 1313 651.5 1265 c 128,-1,36
 555 1217 555 1217 487 1136 c 128,-1,37
 419 1055 419 1055 376 949 c 128,-1,38
 333 843 333 843 323 725 c 0,39,40
 320 686 320 686 320 649 c 0,41,42
 320 530 320 530 354 429 c 0,43,44
 399 297 399 297 503 218.5 c 128,-1,45
 607 140 607 140 755 140 c 0,29,30
EndSplineSet
EndChar

StartChar: oe
Encoding: 339 339 276
Width: 1980
GlyphClass: 2
Flags: W
LayerCount: 2
UndoRedoHistory
Layer: 1
Undoes
EndUndoes
Redoes
EndRedoes
EndUndoRedoHistory
Fore
SplineSet
1154 619 m 1,0,-1
 1728 619 l 1,1,2
 1728 622 1728 622 1728 629 c 128,-1,3
 1728 636 1728 636 1729 639 c 0,4,5
 1729 643 1729 643 1729 646 c 0,6,7
 1729 758 1729 758 1668 828 c 0,8,9
 1605 900 1605 900 1486 900 c 0,10,11
 1364 900 1364 900 1270.5 818.5 c 128,-1,12
 1177 737 1177 737 1154 619 c 1,0,-1
632 130 m 0,13,14
 780 130 780 130 866 239 c 128,-1,15
 952 348 952 348 967 511 c 0,16,17
 970 542 970 542 970 572 c 0,18,19
 970 704 970 704 914 791 c 0,20,21
 846 897 846 897 691 897 c 0,22,23
 538 897 538 897 442.5 788 c 128,-1,24
 347 679 347 679 333 516 c 0,25,26
 331 490 331 490 331 464 c 0,27,28
 331 388 331 388 351 324 c 0,29,30
 378 238 378 238 450.5 184 c 128,-1,31
 523 130 523 130 632 130 c 0,13,14
611 -29 m 0,32,33
 455 -29 455 -29 340.5 46 c 128,-1,34
 226 121 226 121 174 245 c 0,35,36
 132 344 132 344 131 460 c 0,37,38
 131 489 131 489 134 518 c 0,39,40
 144 629 144 629 188 726.5 c 128,-1,41
 232 824 232 824 304.5 897 c 128,-1,42
 377 970 377 970 481.5 1012 c 128,-1,43
 586 1054 586 1054 710 1054 c 0,44,45
 791 1054 791 1054 857 1030.5 c 128,-1,46
 923 1007 923 1007 965.5 966.5 c 128,-1,47
 1008 926 1008 926 1034 885.5 c 128,-1,48
 1060 845 1060 845 1076 799 c 1,49,50
 1133 914 1133 914 1245.5 982.5 c 128,-1,51
 1358 1051 1358 1051 1495 1051 c 0,52,53
 1712 1051 1712 1051 1818 907 c 0,54,55
 1907 787 1907 787 1907 595 c 0,56,57
 1907 557 1907 557 1904 517 c 1,58,-1
 1899 487 l 1,59,-1
 1135 487 l 1,60,61
 1135 485 1135 485 1134.5 462 c 128,-1,62
 1134 439 1134 439 1134 438 c 0,63,64
 1134 433 1134 433 1134 428 c 0,65,66
 1134 297 1134 297 1214 215 c 0,67,68
 1296 130 1296 130 1433 130 c 0,69,70
 1499 130 1499 130 1562.5 145.5 c 128,-1,71
 1626 161 1626 161 1674.5 186 c 128,-1,72
 1723 211 1723 211 1747.5 226.5 c 128,-1,73
 1772 242 1772 242 1791 257 c 1,74,-1
 1836 112 l 1,75,76
 1818 98 1818 98 1792.5 82.5 c 128,-1,77
 1767 67 1767 67 1711.5 40 c 128,-1,78
 1656 13 1656 13 1576.5 -4.5 c 128,-1,79
 1497 -22 1497 -22 1412 -22 c 0,80,81
 1274 -22 1274 -22 1169 45 c 128,-1,82
 1064 112 1064 112 1029 221 c 1,83,84
 979 112 979 112 872 41.5 c 128,-1,85
 765 -29 765 -29 611 -29 c 0,32,33
EndSplineSet
EndChar

StartChar: Tbar
Encoding: 358 358 295
Width: 1147
GlyphClass: 2
Flags: W
LayerCount: 2
UndoRedoHistory
Layer: 1
Undoes
EndUndoes
Redoes
EndRedoes
EndUndoRedoHistory
Fore
SplineSet
239 617 m 1,0,-1
 252 766 l 1,1,-1
 1031 766 l 1,2,-1
 1018 617 l 1,3,-1
 239 617 l 1,0,-1
474 0 m 1,4,-1
 587 1287 l 1,5,-1
 124 1287 l 1,6,-1
 139 1456 l 1,7,-1
 1266 1456 l 1,8,-1
 1251 1287 l 1,9,-1
 784 1287 l 1,10,-1
 671 0 l 1,11,-1
 474 0 l 1,4,-1
EndSplineSet
EndChar

StartChar: tbar
Encoding: 359 359 296
Width: 772
GlyphClass: 2
Flags: W
LayerCount: 2
UndoRedoHistory
Layer: 1
Undoes
EndUndoes
Redoes
EndRedoes
EndUndoRedoHistory
Fore
SplineSet
82 575 m 1,0,-1
 95 724 l 1,1,-1
 719 724 l 1,2,-1
 706 575 l 1,3,-1
 82 575 l 1,0,-1
705 0 m 1,4,-1
 640 0 l 2,5,6
 520 0 520 0 445 14.5 c 128,-1,7
 370 29 370 29 318.5 68.5 c 0,8,9
 268 108 268 108 250 178 c 0,10,11
 239 223 239 223 238 283 c 0,12,13
 238 318 238 318 242 358 c 2,14,-1
 290 901 l 1,15,-1
 125 901 l 1,16,-1
 136 1026 l 1,17,-1
 306 1026 l 1,18,-1
 330 1288 l 1,19,-1
 519 1343 l 1,20,-1
 491 1026 l 1,21,-1
 780 1026 l 1,22,-1
 769 901 l 1,23,-1
 480 901 l 1,24,-1
 431 337 l 2,25,26
 429 316 429 316 429 298 c 0,27,28
 429 273 429 273 433 253 c 0,29,30
 440 220 440 220 457 198.5 c 128,-1,31
 474 177 474 177 511.5 166 c 128,-1,32
 549 155 549 155 595.5 151 c 128,-1,33
 642 147 642 147 718 147 c 1,34,-1
 705 0 l 1,4,-1
EndSplineSet
EndChar

StartChar: florin
Encoding: 402 402 320
Width: 1076
GlyphClass: 2
Flags: W
LayerCount: 2
UndoRedoHistory
Layer: 1
Undoes
EndUndoes
Redoes
EndRedoes
EndUndoRedoHistory
Fore
SplineSet
162 -248 m 0,0,1
 115 -248 115 -248 56 -232 c 1,2,-1
 78 -76 l 1,3,4
 116 -90 116 -90 160 -90 c 0,5,6
 222 -90 222 -90 267 -38.5 c 128,-1,7
 312 13 312 13 335 109 c 1,8,-1
 519 833 l 1,9,-1
 366 833 l 1,10,-1
 386 983 l 1,11,-1
 556 983 l 1,12,-1
 590 1134 l 2,13,14
 602 1190 602 1190 617.5 1234 c 128,-1,15
 633 1278 633 1278 661 1325.5 c 128,-1,16
 689 1373 689 1373 725.5 1404.5 c 128,-1,17
 762 1436 762 1436 818.5 1456.5 c 128,-1,18
 875 1477 875 1477 946 1477 c 0,19,20
 966 1477 966 1477 986 1475 c 128,-1,21
 1006 1473 1006 1473 1024.5 1469.5 c 128,-1,22
 1043 1466 1043 1466 1054.5 1463 c 128,-1,23
 1066 1460 1066 1460 1082.5 1455.5 c 128,-1,24
 1099 1451 1099 1451 1103 1450 c 1,25,-1
 1084 1292 l 1,26,27
 1031 1313 1031 1313 965 1313 c 0,28,29
 895 1313 895 1313 857.5 1276 c 128,-1,30
 820 1239 820 1239 801 1161 c 2,31,-1
 756 983 l 1,32,-1
 942 983 l 1,33,-1
 921 833 l 1,34,-1
 718 833 l 1,35,-1
 554 173 l 1,36,37
 530 72 530 72 499.5 0 c 128,-1,38
 469 -72 469 -72 424 -130.5 c 128,-1,39
 379 -189 379 -189 313.5 -218.5 c 128,-1,40
 248 -248 248 -248 162 -248 c 0,0,1
EndSplineSet
EndChar

StartChar: dotlessj
Encoding: 567 567 363
Width: 534
GlyphClass: 2
Flags: W
AnchorPoint: "Anchor-0" 359 1026 basechar 0
LayerCount: 2
UndoRedoHistory
Layer: 1
Undoes
EndUndoes
Redoes
EndRedoes
EndUndoRedoHistory
Fore
SplineSet
30 -404 m 0,0,1
 -45 -404 -45 -404 -128 -383 c 1,2,-1
 -99 -239 l 1,3,4
 -33 -255 -33 -255 8 -255 c 0,5,6
 104 -255 104 -255 143.5 -186 c 128,-1,7
 183 -117 183 -117 197 42 c 2,8,-1
 283 1026 l 1,9,-1
 473 1026 l 1,10,-1
 384 5 l 2,11,12
 367 -188 367 -188 284 -296 c 128,-1,13
 201 -404 201 -404 30 -404 c 0,0,1
EndSplineSet
EndChar

StartChar: circumflex
Encoding: 710 710 364
Width: 699
GlyphClass: 4
Flags: W
AnchorPoint: "Anchor-0" 437 1025 mark 0
LayerCount: 2
UndoRedoHistory
Layer: 1
Undoes
EndUndoes
Redoes
EndRedoes
EndUndoRedoHistory
Fore
SplineSet
117 1140 m 1,0,-1
 395 1509 l 1,1,-1
 566 1509 l 1,2,-1
 788 1140 l 1,3,-1
 624 1140 l 1,4,-1
 479 1401 l 1,5,-1
 273 1140 l 1,6,-1
 117 1140 l 1,0,-1
EndSplineSet
EndChar

StartChar: caron
Encoding: 711 711 365
Width: 699
GlyphClass: 4
Flags: W
AnchorPoint: "Anchor-0" 435 1025 mark 0
LayerCount: 2
UndoRedoHistory
Layer: 1
Undoes
EndUndoes
Redoes
EndRedoes
EndUndoRedoHistory
Fore
SplineSet
369 1140 m 1,0,-1
 126 1509 l 1,1,-1
 305 1509 l 1,2,-1
 459 1261 l 1,3,-1
 642 1509 l 1,4,-1
 828 1509 l 1,5,-1
 538 1140 l 1,6,-1
 369 1140 l 1,0,-1
EndSplineSet
EndChar

StartChar: uni02C9
Encoding: 713 713 366
Width: 728
GlyphClass: 2
Flags: W
LayerCount: 2
UndoRedoHistory
Layer: 1
Undoes
EndUndoes
Redoes
EndRedoes
EndUndoRedoHistory
Fore
SplineSet
172 1188 m 1,0,-1
 184 1335 l 1,1,-1
 772 1335 l 1,2,-1
 760 1188 l 1,3,-1
 172 1188 l 1,0,-1
EndSplineSet
EndChar

StartChar: breve
Encoding: 728 728 367
Width: 628
GlyphClass: 4
Flags: W
AnchorPoint: "Anchor-0" 391 1026 mark 0
LayerCount: 2
UndoRedoHistory
Layer: 1
Undoes
EndUndoes
Redoes
EndRedoes
EndUndoRedoHistory
Fore
SplineSet
426 1201 m 0,0,1
 294 1201 294 1201 223 1265 c 128,-1,2
 152 1329 152 1329 153 1456 c 1,3,-1
 270 1456 l 1,4,5
 273 1389 273 1389 319.5 1359 c 128,-1,6
 366 1329 366 1329 433 1329 c 0,7,8
 499 1329 499 1329 553 1360.5 c 128,-1,9
 607 1392 607 1392 625 1456 c 1,10,-1
 739 1456 l 1,11,12
 718 1330 718 1330 636 1265.5 c 128,-1,13
 554 1201 554 1201 426 1201 c 0,0,1
EndSplineSet
EndChar

StartChar: dotaccent
Encoding: 729 729 368
Width: 524
GlyphClass: 4
Flags: W
AnchorPoint: "Anchor-0" 365 1030 mark 0
LayerCount: 2
UndoRedoHistory
Layer: 1
Undoes
EndUndoes
Redoes
EndRedoes
EndUndoRedoHistory
Fore
SplineSet
285 1243 m 1,0,-1
 299 1426 l 1,1,-1
 484 1426 l 1,2,-1
 470 1243 l 1,3,-1
 285 1243 l 1,0,-1
EndSplineSet
EndChar

StartChar: ring
Encoding: 730 730 369
Width: 605
GlyphClass: 4
Flags: W
AnchorPoint: "Anchor-0" 389 1026 mark 0
LayerCount: 2
UndoRedoHistory
Layer: 1
Undoes
EndUndoes
Redoes
EndRedoes
EndUndoRedoHistory
Fore
SplineSet
419 1225 m 0,0,1
 463 1225 463 1225 495.5 1255.5 c 128,-1,2
 528 1286 528 1286 532 1328 c 0,3,4
 533 1334 533 1334 533 1339 c 0,5,6
 533 1375 533 1375 509 1402 c 0,7,8
 482 1433 482 1433 436 1433 c 0,9,10
 392 1433 392 1433 359 1402 c 128,-1,11
 326 1371 326 1371 322 1329 c 0,12,13
 321 1323 321 1323 321 1318 c 0,14,15
 321 1281 321 1281 344 1255 c 0,16,17
 370 1225 370 1225 419 1225 c 0,0,1
412 1131 m 0,18,19
 315 1131 315 1131 259 1188 c 0,20,21
 209 1239 209 1239 209 1309 c 0,22,23
 209 1318 209 1318 210 1327 c 0,24,25
 218 1410 218 1410 284 1468 c 128,-1,26
 350 1526 350 1526 445 1526 c 128,-1,27
 540 1526 540 1526 596 1468 c 0,28,29
 646 1416 646 1416 646 1346 c 0,30,31
 646 1337 646 1337 645 1328 c 0,32,33
 638 1247 638 1247 572 1189 c 128,-1,34
 506 1131 506 1131 412 1131 c 0,18,19
EndSplineSet
EndChar

StartChar: ogonek
Encoding: 731 731 370
Width: 508
GlyphClass: 4
Flags: W
AnchorPoint: "Anchor-2" 308 0 mark 0
LayerCount: 2
UndoRedoHistory
Layer: 1
Undoes
EndUndoes
Redoes
EndRedoes
EndUndoRedoHistory
Fore
SplineSet
240 -384 m 0,0,1
 144 -384 144 -384 86 -344 c 0,2,3
 35 -308 35 -308 35 -245 c 0,4,5
 35 -237 35 -237 36 -229 c 0,6,7
 47 -97 47 -97 282 15 c 1,8,-1
 410 7 l 1,9,10
 216 -104 216 -104 207 -190 c 0,11,12
 204 -224 204 -224 229.5 -243.5 c 128,-1,13
 255 -263 255 -263 292 -263 c 0,14,15
 359 -263 359 -263 453 -231 c 1,16,-1
 442 -352 l 1,17,18
 348 -384 348 -384 240 -384 c 0,0,1
EndSplineSet
EndChar

StartChar: tilde
Encoding: 732 732 371
Width: 663
GlyphClass: 4
Flags: W
AnchorPoint: "Anchor-0" 443 1026 mark 0
LayerCount: 2
UndoRedoHistory
Layer: 1
Undoes
EndUndoes
Redoes
EndRedoes
EndUndoRedoHistory
Fore
SplineSet
116 1183 m 1,0,1
 134 1288 134 1288 192 1353 c 128,-1,2
 250 1418 250 1418 336 1418 c 0,3,4
 390 1418 390 1418 474.5 1377.5 c 128,-1,5
 559 1337 559 1337 591 1337 c 0,6,7
 655 1337 655 1337 675 1432 c 1,8,-1
 800 1432 l 1,9,10
 781 1327 781 1327 724.5 1259.5 c 128,-1,11
 668 1192 668 1192 582 1192 c 0,12,13
 538 1192 538 1192 448.5 1233 c 128,-1,14
 359 1274 359 1274 325 1274 c 0,15,16
 254 1274 254 1274 237 1183 c 1,17,-1
 116 1183 l 1,0,1
EndSplineSet
EndChar

StartChar: hungarumlaut
Encoding: 733 733 372
Width: 969
GlyphClass: 4
Flags: W
AnchorPoint: "Anchor-0" 440 1026 mark 0
LayerCount: 2
UndoRedoHistory
Layer: 1
Undoes
EndUndoes
Redoes
EndRedoes
EndUndoRedoHistory
Fore
SplineSet
236 1156 m 1,0,-1
 476 1486 l 1,1,-1
 685 1486 l 1,2,-1
 372 1156 l 1,3,-1
 236 1156 l 1,0,-1
581 1156 m 1,4,-1
 836 1486 l 1,5,-1
 1051 1486 l 1,6,-1
 721 1156 l 1,7,-1
 581 1156 l 1,4,-1
EndSplineSet
EndChar

StartChar: dotaccentcmb
Encoding: 775 775 373
Width: 524
GlyphClass: 4
Flags: W
AnchorPoint: "Anchor-0" 343 1030 mark 0
LayerCount: 2
UndoRedoHistory
Layer: 1
Undoes
EndUndoes
Redoes
EndRedoes
EndUndoRedoHistory
Fore
SplineSet
293 1246 m 1,0,-1
 305 1409 l 1,1,-1
 462 1409 l 1,2,-1
 451 1246 l 1,3,-1
 293 1246 l 1,0,-1
EndSplineSet
EndChar

StartChar: dblgravecmb
Encoding: 783 783 374
Width: 969
GlyphClass: 4
Flags: W
AnchorPoint: "Anchor-0" 612 1026 mark 0
LayerCount: 2
UndoRedoHistory
Layer: 1
Undoes
EndUndoes
Redoes
EndRedoes
EndUndoRedoHistory
Fore
SplineSet
365 1174 m 1,0,-1
 117 1487 l 1,1,-1
 293 1487 l 1,2,-1
 485 1174 l 1,3,-1
 365 1174 l 1,0,-1
694 1174 m 1,4,-1
 447 1487 l 1,5,-1
 623 1487 l 1,6,-1
 812 1174 l 1,7,-1
 694 1174 l 1,4,-1
EndSplineSet
EndChar

StartChar: uni0311
Encoding: 785 785 375
Width: 629
GlyphClass: 4
Flags: W
AnchorPoint: "Anchor-0" 413 1026 mark 0
LayerCount: 2
UndoRedoHistory
Layer: 1
Undoes
EndUndoes
Redoes
EndRedoes
EndUndoRedoHistory
Fore
SplineSet
152 1218 m 1,0,1
 172 1337 172 1337 251 1396.5 c 128,-1,2
 330 1456 330 1456 456 1456 c 0,3,4
 577 1456 577 1456 647 1395 c 128,-1,5
 717 1334 717 1334 716 1218 c 1,6,-1
 617 1218 l 1,7,8
 607 1283 607 1283 561.5 1315 c 128,-1,9
 516 1347 516 1347 446 1347 c 0,10,11
 292 1347 292 1347 260 1218 c 1,12,-1
 152 1218 l 1,0,1
EndSplineSet
EndChar

StartChar: endash
Encoding: 8211 8211 399
Width: 1085
GlyphClass: 2
Flags: W
LayerCount: 2
UndoRedoHistory
Layer: 1
Undoes
EndUndoes
Redoes
EndRedoes
EndUndoRedoHistory
Fore
SplineSet
33 478 m 1,0,-1
 47 636 l 1,1,-1
 1142 636 l 1,2,-1
 1128 478 l 1,3,-1
 33 478 l 1,0,-1
EndSplineSet
EndChar

StartChar: emdash
Encoding: 8212 8212 400
Width: 2171
GlyphClass: 2
Flags: W
LayerCount: 2
UndoRedoHistory
Layer: 1
Undoes
EndUndoes
Redoes
EndRedoes
EndUndoRedoHistory
Fore
SplineSet
43 478 m 1,0,-1
 57 636 l 1,1,-1
 2202 636 l 1,2,-1
 2188 478 l 1,3,-1
 43 478 l 1,0,-1
EndSplineSet
EndChar

StartChar: quoteleft
Encoding: 8216 8216 401
Width: 613
GlyphClass: 2
Flags: W
LayerCount: 2
UndoRedoHistory
Layer: 1
Undoes
EndUndoes
Redoes
EndRedoes
EndUndoRedoHistory
Fore
SplineSet
251 1004 m 1,0,-1
 396 1456 l 1,1,-1
 607 1456 l 1,2,-1
 410 1004 l 1,3,-1
 251 1004 l 1,0,-1
EndSplineSet
EndChar

StartChar: quoteright
Encoding: 8217 8217 402
Width: 489
GlyphClass: 2
Flags: W
LayerCount: 2
UndoRedoHistory
Layer: 1
Undoes
EndUndoes
Redoes
EndRedoes
EndUndoRedoHistory
Fore
SplineSet
178 1005 m 1,0,-1
 324 1456 l 1,1,-1
 533 1456 l 1,2,-1
 336 1005 l 1,3,-1
 178 1005 l 1,0,-1
EndSplineSet
EndChar

StartChar: quotesinglbase
Encoding: 8218 8218 403
Width: 553
GlyphClass: 2
Flags: W
LayerCount: 2
UndoRedoHistory
Layer: 1
Undoes
EndUndoes
Redoes
EndRedoes
EndUndoRedoHistory
Fore
SplineSet
93 -233 m 1,0,-1
 242 220 l 1,1,-1
 451 220 l 1,2,-1
 253 -233 l 1,3,-1
 93 -233 l 1,0,-1
EndSplineSet
EndChar

StartChar: quotedblleft
Encoding: 8220 8220 404
Width: 1024
GlyphClass: 2
Flags: W
LayerCount: 2
UndoRedoHistory
Layer: 1
Undoes
EndUndoes
Redoes
EndRedoes
EndUndoRedoHistory
Fore
SplineSet
235 1004 m 1,0,-1
 432 1456 l 1,1,-1
 592 1456 l 1,2,-1
 445 1004 l 1,3,-1
 235 1004 l 1,0,-1
606 1004 m 1,4,-1
 797 1456 l 1,5,-1
 956 1456 l 1,6,-1
 810 1004 l 1,7,-1
 606 1004 l 1,4,-1
EndSplineSet
EndChar

StartChar: quotedblright
Encoding: 8221 8221 405
Width: 1024
GlyphClass: 2
Flags: W
LayerCount: 2
UndoRedoHistory
Layer: 1
Undoes
EndUndoes
Redoes
EndRedoes
EndUndoRedoHistory
Fore
SplineSet
251 1004 m 1,0,-1
 396 1456 l 1,1,-1
 607 1456 l 1,2,-1
 410 1004 l 1,3,-1
 251 1004 l 1,0,-1
591 1004 m 1,4,-1
 737 1456 l 1,5,-1
 947 1456 l 1,6,-1
 749 1004 l 1,7,-1
 591 1004 l 1,4,-1
EndSplineSet
EndChar

StartChar: quotedblbase
Encoding: 8222 8222 406
Width: 1024
GlyphClass: 2
Flags: W
LayerCount: 2
UndoRedoHistory
Layer: 1
Undoes
EndUndoes
Redoes
EndRedoes
EndUndoRedoHistory
Fore
SplineSet
141 -233 m 1,0,-1
 287 220 l 1,1,-1
 497 220 l 1,2,-1
 302 -233 l 1,3,-1
 141 -233 l 1,0,-1
492 -233 m 1,4,-1
 638 220 l 1,5,-1
 848 220 l 1,6,-1
 650 -233 l 1,7,-1
 492 -233 l 1,4,-1
EndSplineSet
EndChar

StartChar: dagger
Encoding: 8224 8224 407
Width: 1022
GlyphClass: 2
Flags: W
LayerCount: 2
UndoRedoHistory
Layer: 1
Undoes
EndUndoes
Redoes
EndRedoes
EndUndoRedoHistory
Fore
SplineSet
363 111 m 1,0,-1
 433 913 l 1,1,-1
 107 913 l 1,2,-1
 120 1065 l 1,3,-1
 446 1065 l 1,4,-1
 479 1442 l 1,5,-1
 638 1442 l 1,6,-1
 605 1065 l 1,7,-1
 944 1065 l 1,8,-1
 931 913 l 1,9,-1
 582 913 l 1,10,-1
 512 111 l 1,11,-1
 363 111 l 1,0,-1
EndSplineSet
EndChar

StartChar: daggerdbl
Encoding: 8225 8225 408
Width: 1092
GlyphClass: 2
Flags: W
LayerCount: 2
UndoRedoHistory
Layer: 1
Undoes
EndUndoes
Redoes
EndRedoes
EndUndoRedoHistory
Fore
SplineSet
401 -54 m 1,0,-1
 442 416 l 1,1,-1
 102 416 l 1,2,-1
 113 542 l 1,3,-1
 453 542 l 1,4,-1
 487 932 l 1,5,-1
 152 932 l 1,6,-1
 164 1064 l 1,7,-1
 499 1064 l 1,8,-1
 533 1456 l 1,9,-1
 695 1456 l 1,10,-1
 661 1064 l 1,11,-1
 998 1064 l 1,12,-1
 986 932 l 1,13,-1
 649 932 l 1,14,-1
 615 542 l 1,15,-1
 944 542 l 1,16,-1
 933 416 l 1,17,-1
 604 416 l 1,18,-1
 563 -54 l 1,19,-1
 401 -54 l 1,0,-1
EndSplineSet
EndChar

StartChar: bullet
Encoding: 8226 8226 409
Width: 989
GlyphClass: 2
Flags: W
LayerCount: 2
UndoRedoHistory
Layer: 1
Undoes
EndUndoes
Redoes
EndRedoes
EndUndoRedoHistory
Fore
SplineSet
526 377 m 0,0,1
 382 377 382 377 294 469 c 0,2,3
 215 551 215 551 216 662 c 0,4,5
 216 676 216 676 217 690 c 0,6,7
 228 820 228 820 337 915 c 128,-1,8
 446 1010 446 1010 584 1010 c 0,9,10
 724 1010 724 1010 814 918 c 0,11,12
 894 836 894 836 894 725 c 0,13,14
 894 711 894 711 893 697 c 0,15,16
 882 567 882 567 774 472 c 128,-1,17
 666 377 666 377 526 377 c 0,0,1
EndSplineSet
EndChar

StartChar: ellipsis
Encoding: 8230 8230 410
Width: 1620
GlyphClass: 2
Flags: W
LayerCount: 2
UndoRedoHistory
Layer: 1
Undoes
EndUndoes
Redoes
EndRedoes
EndUndoRedoHistory
Fore
SplineSet
136 -4 m 1,0,-1
 155 225 l 1,1,-1
 398 225 l 1,2,-1
 379 -4 l 1,3,-1
 136 -4 l 1,0,-1
670 -4 m 1,4,-1
 689 225 l 1,5,-1
 932 225 l 1,6,-1
 913 -4 l 1,7,-1
 670 -4 l 1,4,-1
1204 -4 m 1,8,-1
 1224 225 l 1,9,-1
 1466 225 l 1,10,-1
 1446 -4 l 1,11,-1
 1204 -4 l 1,8,-1
EndSplineSet
EndChar

StartChar: perthousand
Encoding: 8240 8240 411
Width: 2446
GlyphClass: 2
Flags: W
LayerCount: 2
UndoRedoHistory
Layer: 1
Undoes
EndUndoes
Redoes
EndRedoes
EndUndoRedoHistory
Fore
SplineSet
492 837 m 0,0,1
 579 837 579 837 631 903.5 c 128,-1,2
 683 970 683 970 692 1072 c 0,3,4
 694 1091 694 1091 694 1108 c 0,5,6
 694 1186 694 1186 660 1242 c 0,7,8
 620 1310 620 1310 531 1310 c 0,9,10
 443 1310 443 1310 390.5 1242.5 c 128,-1,11
 338 1175 338 1175 329 1074 c 0,12,13
 327 1055 327 1055 327 1038 c 0,14,15
 328 958 328 958 362 904 c 0,16,17
 404 838 404 838 492 837 c 0,0,1
478 710 m 0,18,19
 317 710 317 710 233 810 c 0,20,21
 161 896 161 896 161 1029 c 0,22,23
 161 1051 161 1051 163 1074 c 0,24,25
 177 1232 177 1232 279 1333.5 c 128,-1,26
 381 1435 381 1435 542 1435 c 0,27,28
 704 1436 704 1436 788 1336 c 0,29,30
 859 1252 859 1252 859 1120 c 0,31,32
 859 1097 859 1097 857 1072 c 0,33,34
 843 914 843 914 740.5 812 c 128,-1,35
 638 710 638 710 478 710 c 0,18,19
269 -13 m 1,36,-1
 1323 1428 l 1,37,-1
 1488 1428 l 1,38,-1
 437 -13 l 1,39,-1
 269 -13 l 1,36,-1
1228 101 m 0,40,41
 1315 101 1315 101 1368 168 c 128,-1,42
 1421 235 1421 235 1430 337 c 0,43,44
 1432 356 1432 356 1432 374 c 0,45,46
 1432 452 1432 452 1399 506 c 0,47,48
 1359 572 1359 572 1269 573 c 0,49,50
 1180 573 1180 573 1127.5 506 c 128,-1,51
 1075 439 1075 439 1066 338 c 0,52,53
 1064 319 1064 319 1064 302 c 0,54,55
 1064 222 1064 222 1098 168 c 0,56,57
 1140 102 1140 102 1228 101 c 0,40,41
1216 -25 m 0,58,59
 1055 -25 1055 -25 971 75 c 0,60,61
 899 161 899 161 899 293 c 0,62,63
 899 315 899 315 901 338 c 0,64,65
 915 496 915 496 1017 598 c 128,-1,66
 1119 700 1119 700 1281 700 c 128,-1,67
 1443 700 1443 700 1526 600 c 0,68,69
 1596 515 1596 515 1596 384 c 0,70,71
 1596 361 1596 361 1594 336 c 0,72,73
 1580 178 1580 178 1478 76.5 c 128,-1,74
 1376 -25 1376 -25 1216 -25 c 0,58,59
2029 101 m 0,75,76
 2116 101 2116 101 2169 168 c 128,-1,77
 2222 235 2222 235 2231 337 c 0,78,79
 2233 355 2233 355 2233 373 c 0,80,81
 2233 451 2233 451 2199 506 c 0,82,83
 2158 573 2158 573 2069 573 c 128,-1,84
 1980 573 1980 573 1928 506 c 128,-1,85
 1876 439 1876 439 1867 338 c 0,86,87
 1865 319 1865 319 1865 302 c 0,88,89
 1866 222 1866 222 1900 168 c 0,90,91
 1942 102 1942 102 2029 101 c 0,75,76
2016 -25 m 0,92,93
 1856 -25 1856 -25 1772 75 c 0,94,95
 1700 161 1700 161 1700 293 c 0,96,97
 1700 315 1700 315 1702 338 c 0,98,99
 1716 496 1716 496 1818 598 c 128,-1,100
 1920 700 1920 700 2082 700 c 128,-1,101
 2244 700 2244 700 2326 600 c 0,102,103
 2397 515 2397 515 2397 382 c 0,104,105
 2397 359 2397 359 2395 336 c 0,106,107
 2381 178 2381 178 2279 76.5 c 128,-1,108
 2177 -25 2177 -25 2016 -25 c 0,92,93
EndSplineSet
EndChar

StartChar: guilsinglleft
Encoding: 8249 8249 412
Width: 642
GlyphClass: 2
Flags: W
LayerCount: 2
UndoRedoHistory
Layer: 1
Undoes
EndUndoes
Redoes
EndRedoes
EndUndoRedoHistory
Fore
SplineSet
349 167 m 1,0,-1
 111 541 l 1,1,-1
 420 917 l 1,2,-1
 610 917 l 1,3,-1
 311 541 l 1,4,-1
 536 167 l 1,5,-1
 349 167 l 1,0,-1
EndSplineSet
EndChar

StartChar: guilsinglright
Encoding: 8250 8250 413
Width: 642
GlyphClass: 2
Flags: W
LayerCount: 2
UndoRedoHistory
Layer: 1
Undoes
EndUndoes
Redoes
EndRedoes
EndUndoRedoHistory
Fore
SplineSet
112 167 m 1,0,-1
 409 543 l 1,1,-1
 187 917 l 1,2,-1
 370 917 l 1,3,-1
 611 542 l 1,4,-1
 299 167 l 1,5,-1
 112 167 l 1,0,-1
EndSplineSet
EndChar

StartChar: fraction
Encoding: 8260 8260 414
Width: 1175
GlyphClass: 2
Flags: W
LayerCount: 2
UndoRedoHistory
Layer: 1
Undoes
EndUndoes
Redoes
EndRedoes
EndUndoRedoHistory
Fore
SplineSet
53 0 m 1,0,-1
 1080 1456 l 1,1,-1
 1260 1456 l 1,2,-1
 235 0 l 1,3,-1
 53 0 l 1,0,-1
EndSplineSet
EndChar

StartChar: uni2074
Encoding: 8308 8308 415
Width: 897
GlyphClass: 2
Flags: W
LayerCount: 2
UndoRedoHistory
Layer: 1
Undoes
EndUndoes
Redoes
EndRedoes
EndUndoRedoHistory
Fore
SplineSet
555 655 m 1,0,-1
 571 838 l 1,1,-1
 202 838 l 1,2,-1
 211 942 l 1,3,-1
 619 1456 l 1,4,-1
 771 1456 l 1,5,-1
 726 953 l 1,6,-1
 838 953 l 1,7,-1
 835 838 l 1,8,-1
 716 838 l 1,9,-1
 700 655 l 1,10,-1
 555 655 l 1,0,-1
356 953 m 1,11,-1
 579 953 l 1,12,-1
 607 1274 l 1,13,-1
 356 953 l 1,11,-1
EndSplineSet
EndChar

StartChar: Euro
Encoding: 8364 8364 416
Width: 1190
GlyphClass: 2
Flags: W
LayerCount: 2
UndoRedoHistory
Layer: 1
Undoes
EndUndoes
Redoes
EndRedoes
EndUndoRedoHistory
Fore
SplineSet
750 -21 m 0,0,1
 513 -21 513 -21 391 122.5 c 128,-1,2
 269 266 269 266 259 516 c 1,3,-1
 124 516 l 1,4,-1
 156 654 l 1,5,-1
 258 654 l 1,6,7
 260 701 260 701 262 724 c 0,8,9
 264 750 264 750 268 784 c 1,10,-1
 144 784 l 1,11,-1
 178 922 l 1,12,-1
 299 922 l 1,13,14
 364 1161 364 1161 522 1304.5 c 128,-1,15
 680 1448 680 1448 910 1448 c 0,16,17
 1111 1448 1111 1448 1223 1330 c 1,18,-1
 1170 1141 l 1,19,20
 1123 1221 1123 1221 1051.5 1262 c 128,-1,21
 980 1303 980 1303 891 1303 c 0,22,23
 739 1303 739 1303 633.5 1197.5 c 128,-1,24
 528 1092 528 1092 476 922 c 1,25,-1
 1068 922 l 1,26,-1
 1036 784 l 1,27,-1
 446 784 l 1,28,29
 441 749 441 749 440 739 c 2,30,-1
 436 654 l 1,31,-1
 1011 654 l 1,32,-1
 980 516 l 1,33,-1
 438 516 l 1,34,35
 447 332 447 332 529 228.5 c 128,-1,36
 611 125 611 125 779 125 c 0,37,38
 935 125 935 125 1107 253 c 1,39,-1
 1090 75 l 1,40,41
 940 -21 940 -21 750 -21 c 0,0,1
EndSplineSet
EndChar

StartChar: trademark
Encoding: 8482 8482 417
Width: 1869
GlyphClass: 2
Flags: W
LayerCount: 2
UndoRedoHistory
Layer: 1
Undoes
EndUndoes
Redoes
EndRedoes
EndUndoRedoHistory
Fore
SplineSet
877 671 m 1,0,-1
 944 1441 l 1,1,-1
 1153 1441 l 1,2,-1
 1328 922 l 1,3,-1
 1606 1441 l 1,4,-1
 1805 1441 l 1,5,-1
 1738 671 l 1,6,-1
 1595 671 l 1,7,-1
 1641 1204 l 1,8,-1
 1348 671 l 1,9,-1
 1249 671 l 1,10,-1
 1065 1200 l 1,11,-1
 1018 671 l 1,12,-1
 877 671 l 1,0,-1
392 671 m 1,13,-1
 449 1319 l 1,14,-1
 199 1319 l 1,15,-1
 209 1441 l 1,16,-1
 861 1441 l 1,17,-1
 849 1319 l 1,18,-1
 594 1319 l 1,19,-1
 538 671 l 1,20,-1
 392 671 l 1,13,-1
EndSplineSet
EndChar

StartChar: uni2206
Encoding: 8710 8710 418
Width: 1314
GlyphClass: 2
Flags: W
LayerCount: 2
UndoRedoHistory
Layer: 1
Undoes
EndUndoes
Redoes
EndRedoes
EndUndoRedoHistory
Fore
SplineSet
128 0 m 1,0,-1
 135 80 l 1,1,-1
 775 1429 l 1,2,-1
 882 1429 l 1,3,-1
 1283 80 l 1,4,-1
 1276 0 l 1,5,-1
 128 0 l 1,0,-1
301 108 m 1,6,-1
 1125 108 l 1,7,-1
 837 1131 l 1,8,-1
 812 1228 l 1,9,-1
 771 1131 l 1,10,-1
 301 108 l 1,6,-1
EndSplineSet
EndChar

StartChar: product
Encoding: 8719 8719 419
Width: 1568
GlyphClass: 2
Flags: W
LayerCount: 2
UndoRedoHistory
Layer: 1
Undoes
EndUndoes
Redoes
EndRedoes
EndUndoRedoHistory
Fore
SplineSet
217 -279 m 1,0,-1
 355 1294 l 1,1,-1
 190 1294 l 1,2,-1
 207 1456 l 1,3,-1
 1601 1456 l 1,4,-1
 1585 1294 l 1,5,-1
 1440 1294 l 1,6,-1
 1302 -279 l 1,7,-1
 1093 -279 l 1,8,-1
 1231 1294 l 1,9,-1
 560 1294 l 1,10,-1
 422 -279 l 1,11,-1
 217 -279 l 1,0,-1
EndSplineSet
EndChar

StartChar: minus
Encoding: 8722 8722 420
Width: 1305
GlyphClass: 2
Flags: W
LayerCount: 2
UndoRedoHistory
Layer: 1
Undoes
EndUndoes
Redoes
EndRedoes
EndUndoRedoHistory
Fore
SplineSet
196 431 m 1,0,-1
 210 588 l 1,1,-1
 1163 588 l 1,2,-1
 1149 431 l 1,3,-1
 196 431 l 1,0,-1
EndSplineSet
EndChar

StartChar: infinity
Encoding: 8734 8734 423
Width: 1724
GlyphClass: 2
Flags: W
LayerCount: 2
UndoRedoHistory
Layer: 1
Undoes
EndUndoes
Redoes
EndRedoes
EndUndoRedoHistory
Fore
SplineSet
469 236 m 0,0,1
 364 236 364 236 284.5 287.5 c 128,-1,2
 205 339 205 339 167 425 c 0,3,4
 136 495 136 495 136 574 c 0,5,6
 136 593 136 593 138 612 c 0,7,8
 150 749 150 749 266 846.5 c 128,-1,9
 382 944 382 944 526 944 c 0,10,11
 642 944 642 944 735 879 c 128,-1,12
 828 814 828 814 911 692 c 1,13,14
 1013 814 1013 814 1114 879 c 128,-1,15
 1215 944 1215 944 1333 944 c 0,16,17
 1495 944 1495 944 1585 846 c 0,18,19
 1663 762 1663 762 1663 635 c 0,20,21
 1663 615 1663 615 1661 595 c 0,22,23
 1647 439 1647 439 1532 337.5 c 128,-1,24
 1417 236 1417 236 1269 236 c 0,25,26
 1160 236 1160 236 1070.5 297.5 c 128,-1,27
 981 359 981 359 891 488 c 1,28,29
 787 367 787 367 684.5 301.5 c 128,-1,30
 582 236 582 236 469 236 c 0,0,1
482 355 m 0,31,32
 644 355 644 355 831 589 c 1,33,34
 764 702 764 702 687.5 765.5 c 128,-1,35
 611 829 611 829 514 829 c 0,36,37
 410 829 410 829 342.5 760.5 c 128,-1,38
 275 692 275 692 266 592 c 0,39,40
 265 580 265 580 265 568 c 0,41,42
 266 488 266 488 318 426 c 0,43,44
 378 355 378 355 482 355 c 0,31,32
1282 355 m 0,45,46
 1390 355 1390 355 1452 428 c 128,-1,47
 1514 501 1514 501 1524 618 c 0,48,49
 1525 629 1525 629 1525 639 c 0,50,51
 1525 713 1525 713 1474 767 c 0,52,53
 1416 829 1416 829 1319 829 c 0,54,55
 1152 829 1152 829 969 592 c 1,56,57
 1053 468 1053 468 1123.5 411.5 c 128,-1,58
 1194 355 1194 355 1282 355 c 0,45,46
EndSplineSet
EndChar

StartChar: integral
Encoding: 8747 8747 424
Width: 748
GlyphClass: 2
Flags: W
LayerCount: 2
UndoRedoHistory
Layer: 1
Undoes
EndUndoes
Redoes
EndRedoes
EndUndoRedoHistory
Fore
SplineSet
140 -403 m 0,0,1
 86 -403 86 -403 -5 -381 c 1,2,-1
 7 -229 l 1,3,4
 54 -249 54 -249 125 -249 c 0,5,6
 210 -249 210 -249 243 -201.5 c 128,-1,7
 276 -154 276 -154 285 -48 c 2,8,-1
 401 1277 l 2,9,10
 434 1655 434 1655 740 1655 c 0,11,12
 801 1655 801 1655 886 1633 c 1,13,-1
 874 1480 l 1,14,15
 828 1501 828 1501 756 1501 c 0,16,17
 669 1501 669 1501 635.5 1453.5 c 128,-1,18
 602 1406 602 1406 593 1300 c 2,19,-1
 478 -25 l 2,20,21
 445 -403 445 -403 140 -403 c 0,0,1
EndSplineSet
EndChar

StartChar: approxequal
Encoding: 8776 8776 425
Width: 1351
GlyphClass: 2
Flags: W
LayerCount: 2
UndoRedoHistory
Layer: 1
Undoes
EndUndoes
Redoes
EndRedoes
EndUndoRedoHistory
Fore
SplineSet
322 251 m 1,0,-1
 184 287 l 1,1,2
 227 414 227 414 313.5 485.5 c 128,-1,3
 400 557 400 557 516 557 c 0,4,5
 618 557 618 557 768 471 c 1,6,7
 786 462 786 462 817 445 c 128,-1,8
 848 428 848 428 865.5 419 c 128,-1,9
 883 410 883 410 905 402.5 c 128,-1,10
 927 395 927 395 944 395 c 0,11,12
 998 395 998 395 1039.5 436.5 c 128,-1,13
 1081 478 1081 478 1118 561 c 1,14,-1
 1251 526 l 1,15,16
 1165 256 1165 256 927 256 c 0,17,18
 823 256 823 256 667 353 c 1,19,20
 559 416 559 416 502 416 c 0,21,22
 382 416 382 416 322 251 c 1,0,-1
354 617 m 1,23,-1
 214 649 l 1,24,25
 253 776 253 776 340.5 848 c 128,-1,26
 428 920 428 920 546 920 c 0,27,28
 607 920 607 920 663 898.5 c 128,-1,29
 719 877 719 877 790 833 c 0,30,31
 911 758 911 758 974 758 c 0,32,33
 1076 758 1076 758 1148 923 c 1,34,-1
 1281 890 l 1,35,36
 1242 763 1242 763 1160.5 691.5 c 128,-1,37
 1079 620 1079 620 957 620 c 0,38,39
 894 620 894 620 834 643 c 128,-1,40
 774 666 774 666 694 716 c 0,41,42
 589 781 589 781 530 781 c 0,43,44
 418 781 418 781 354 617 c 1,23,-1
EndSplineSet
EndChar

StartChar: notequal
Encoding: 8800 8800 426
Width: 1351
GlyphClass: 2
Flags: W
LayerCount: 2
UndoRedoHistory
Layer: 1
Undoes
EndUndoes
Redoes
EndRedoes
EndUndoRedoHistory
Fore
SplineSet
465 43 m 1,0,-1
 318 65 l 1,1,-1
 462 317 l 1,2,-1
 184 317 l 1,3,-1
 178 458 l 1,4,-1
 547 458 l 1,5,-1
 701 711 l 1,6,-1
 220 711 l 1,7,-1
 212 853 l 1,8,-1
 780 853 l 1,9,-1
 937 1123 l 1,10,-1
 1088 1101 l 1,11,-1
 943 853 l 1,12,-1
 1239 853 l 1,13,-1
 1246 711 l 1,14,-1
 863 711 l 1,15,-1
 707 458 l 1,16,-1
 1205 458 l 1,17,-1
 1211 317 l 1,18,-1
 626 317 l 1,19,-1
 465 43 l 1,0,-1
EndSplineSet
EndChar

StartChar: lessequal
Encoding: 8804 8804 427
Width: 1351
GlyphClass: 2
Flags: W
LayerCount: 2
UndoRedoHistory
Layer: 1
Undoes
EndUndoes
Redoes
EndRedoes
EndUndoRedoHistory
Fore
SplineSet
1129 230 m 1,0,-1
 207 656 l 1,1,-1
 214 747 l 1,2,-1
 1214 1201 l 1,3,-1
 1200 1039 l 1,4,-1
 417 705 l 1,5,-1
 1144 396 l 1,6,-1
 1129 230 l 1,0,-1
126 6 m 1,7,-1
 139 147 l 1,8,-1
 1141 147 l 1,9,-1
 1128 6 l 1,10,-1
 126 6 l 1,7,-1
EndSplineSet
EndChar

StartChar: greaterequal
Encoding: 8805 8805 428
Width: 1350
GlyphClass: 2
Flags: W
LayerCount: 2
UndoRedoHistory
Layer: 1
Undoes
EndUndoes
Redoes
EndRedoes
EndUndoRedoHistory
Fore
SplineSet
221 231 m 1,0,-1
 236 397 l 1,1,-1
 1021 703 l 1,2,-1
 295 1040 l 1,3,-1
 309 1202 l 1,4,-1
 1231 748 l 1,5,-1
 1223 658 l 1,6,-1
 221 231 l 1,0,-1
182 6 m 1,7,-1
 194 147 l 1,8,-1
 1191 147 l 1,9,-1
 1178 6 l 1,10,-1
 182 6 l 1,7,-1
EndSplineSet
EndChar

StartChar: lozenge
Encoding: 9674 9674 429
Width: 1248
GlyphClass: 2
Flags: W
LayerCount: 2
UndoRedoHistory
Layer: 1
Undoes
EndUndoes
Redoes
EndRedoes
EndUndoRedoHistory
Fore
SplineSet
623 138 m 1,0,-1
 1012 707 l 1,1,-1
 731 1272 l 1,2,-1
 342 708 l 1,3,-1
 623 138 l 1,0,-1
545 -43 m 1,4,-1
 164 707 l 1,5,-1
 684 1460 l 1,6,-1
 808 1460 l 1,7,-1
 1192 708 l 1,8,-1
 668 -43 l 1,9,-1
 545 -43 l 1,4,-1
EndSplineSet
EndChar

StartChar: uniFB00
Encoding: 64256 64256 430
Width: 1430
GlyphClass: 3
Flags: W
LayerCount: 2
UndoRedoHistory
Layer: 1
Undoes
EndUndoes
Redoes
EndRedoes
EndUndoRedoHistory
Fore
SplineSet
921 0 m 1,0,-1
 1000 901 l 1,1,-1
 506 901 l 1,2,-1
 427 0 l 1,3,-1
 237 0 l 1,4,-1
 316 901 l 1,5,-1
 132 901 l 1,6,-1
 143 1026 l 1,7,-1
 327 1026 l 1,8,-1
 336 1129 l 2,9,10
 346 1234 346 1234 367.5 1297.5 c 128,-1,11
 389 1361 389 1361 438 1406.5 c 128,-1,12
 487 1452 487 1452 568 1470.5 c 128,-1,13
 649 1489 649 1489 778 1489 c 2,14,-1
 812 1489 l 1,15,-1
 797 1341 l 1,16,17
 738 1341 738 1341 701 1338.5 c 128,-1,18
 664 1336 664 1336 633 1327 c 128,-1,19
 602 1318 602 1318 585 1305.5 c 128,-1,20
 568 1293 568 1293 555 1267.5 c 128,-1,21
 542 1242 542 1242 536.5 1211.5 c 128,-1,22
 531 1181 531 1181 526 1133 c 2,23,-1
 517 1026 l 1,24,-1
 1011 1026 l 1,25,-1
 1020 1129 l 2,26,27
 1030 1234 1030 1234 1051.5 1297.5 c 128,-1,28
 1073 1361 1073 1361 1122 1406.5 c 128,-1,29
 1171 1452 1171 1452 1252 1470.5 c 128,-1,30
 1333 1489 1333 1489 1462 1489 c 2,31,-1
 1496 1489 l 1,32,-1
 1481 1341 l 1,33,34
 1422 1341 1422 1341 1385 1338.5 c 128,-1,35
 1348 1336 1348 1336 1317 1327 c 128,-1,36
 1286 1318 1286 1318 1269 1305.5 c 128,-1,37
 1252 1293 1252 1293 1239 1267.5 c 128,-1,38
 1226 1242 1226 1242 1220.5 1211.5 c 128,-1,39
 1215 1181 1215 1181 1210 1133 c 2,40,-1
 1201 1026 l 1,41,-1
 1463 1026 l 1,42,-1
 1452 901 l 1,43,-1
 1190 901 l 1,44,-1
 1111 0 l 1,45,-1
 921 0 l 1,0,-1
EndSplineSet
Ligature2: "'liga' Standard Ligatures lookup 0 subtable" f f
EndChar

StartChar: uniFB01
Encoding: 64257 64257 431
Width: 1214
GlyphClass: 3
Flags: W
LayerCount: 2
UndoRedoHistory
Layer: 1
Undoes
EndUndoes
Redoes
EndRedoes
EndUndoRedoHistory
Fore
SplineSet
1126 1288 m 1,0,-1
 948 1288 l 1,1,-1
 964 1462 l 1,2,-1
 1142 1462 l 1,3,-1
 1126 1288 l 1,0,-1
428 0 m 1,4,-1
 238 0 l 1,5,-1
 316 901 l 1,6,-1
 132 901 l 1,7,-1
 143 1026 l 1,8,-1
 327 1026 l 1,9,-1
 334 1109 l 2,10,11
 342 1195 342 1195 354.5 1249.5 c 128,-1,12
 367 1304 367 1304 395.5 1352.5 c 128,-1,13
 424 1401 424 1401 472 1426.5 c 128,-1,14
 520 1452 520 1452 594 1466.5 c 128,-1,15
 668 1481 668 1481 777 1482 c 1,16,-1
 812 1482 l 1,17,-1
 799 1334 l 1,18,-1
 755 1334 l 1,19,20
 703 1333 703 1333 670 1330.5 c 128,-1,21
 637 1328 637 1328 611.5 1317.5 c 128,-1,22
 586 1307 586 1307 572.5 1295 c 128,-1,23
 559 1283 559 1283 549 1255.5 c 128,-1,24
 539 1228 539 1228 535 1201 c 128,-1,25
 531 1174 531 1174 526 1124 c 2,26,-1
 517 1026 l 1,27,-1
 1106 1026 l 1,28,-1
 1016 0 l 1,29,-1
 826 0 l 1,30,-1
 904 901 l 1,31,-1
 506 901 l 1,32,-1
 428 0 l 1,4,-1
EndSplineSet
Ligature2: "'liga' Standard Ligatures lookup 0 subtable" f i
EndChar

StartChar: uniFB02
Encoding: 64258 64258 432
Width: 1277
GlyphClass: 3
Flags: W
LayerCount: 2
UndoRedoHistory
Layer: 1
Undoes
EndUndoes
Redoes
EndRedoes
EndUndoRedoHistory
Fore
SplineSet
519 901 m 1,0,-1
 440 0 l 1,1,-1
 250 0 l 1,2,-1
 329 901 l 1,3,-1
 132 901 l 1,4,-1
 143 1026 l 1,5,-1
 340 1026 l 1,6,-1
 345 1092 l 2,7,8
 352 1175 352 1175 369 1233 c 128,-1,9
 386 1291 386 1291 419.5 1337.5 c 128,-1,10
 453 1384 453 1384 508 1410.5 c 128,-1,11
 563 1437 563 1437 642.5 1451 c 128,-1,12
 722 1465 722 1465 834 1465 c 2,13,-1
 1235 1465 l 1,14,-1
 1107 0 l 1,15,-1
 918 0 l 1,16,-1
 1033 1317 l 1,17,-1
 837 1317 l 2,18,19
 716 1317 716 1317 654.5 1298.5 c 128,-1,20
 593 1280 593 1280 569 1241 c 128,-1,21
 545 1202 545 1202 538 1124 c 2,22,-1
 530 1026 l 1,23,-1
 773 1026 l 1,24,-1
 762 901 l 1,25,-1
 519 901 l 1,0,-1
EndSplineSet
Ligature2: "'liga' Standard Ligatures lookup 0 subtable" f l
EndChar

StartChar: Omega
Encoding: 937 937 435
Width: 1603
GlyphClass: 2
Flags: W
LayerCount: 2
UndoRedoHistory
Layer: 1
Undoes
EndUndoes
Redoes
EndRedoes
EndUndoRedoHistory
Fore
SplineSet
101 0 m 1,0,-1
 91 159 l 1,1,-1
 417 158 l 1,2,3
 288 267 288 267 224 424 c 0,4,5
 173 548 173 548 173 694 c 0,6,7
 173 733 173 733 177 773 c 0,8,9
 195 974 195 974 299 1127.5 c 128,-1,10
 403 1281 403 1281 568 1363 c 128,-1,11
 733 1445 733 1445 932 1445 c 0,12,13
 1135 1445 1135 1445 1281.5 1355.5 c 128,-1,14
 1428 1266 1428 1266 1496 1113 c 0,15,16
 1550 991 1550 991 1550 843 c 0,17,18
 1550 806 1550 806 1547 767 c 0,19,20
 1530 577 1530 577 1433.5 423 c 128,-1,21
 1337 269 1337 269 1194 158 c 1,22,23
 1209 158 1209 158 1344 158.5 c 128,-1,24
 1479 159 1479 159 1493 159 c 1,25,-1
 1466 0 l 1,26,-1
 933 0 l 1,27,-1
 940 136 l 1,28,29
 1106 242 1106 242 1215 402.5 c 128,-1,30
 1324 563 1324 563 1341 751 c 0,31,32
 1344 784 1344 784 1344 816 c 0,33,34
 1344 888 1344 888 1328 954 c 0,35,36
 1306 1050 1306 1050 1255 1124 c 128,-1,37
 1204 1198 1204 1198 1116 1241 c 128,-1,38
 1028 1284 1028 1284 914 1284 c 0,39,40
 699 1284 699 1284 550.5 1136.5 c 128,-1,41
 402 989 402 989 381 755 c 0,42,43
 378 721 378 721 378 688 c 0,44,45
 378 535 378 535 442 401 c 0,46,47
 520 238 520 238 668 136 c 1,48,-1
 660 0 l 1,49,-1
 101 0 l 1,0,-1
EndSplineSet
EndChar

StartChar: commaaccent
Encoding: 65538 -1 436
Width: 540
GlyphClass: 4
Flags: W
AnchorPoint: "Anchor-1" 310 0 mark 0
LayerCount: 2
UndoRedoHistory
Layer: 1
Undoes
EndUndoes
Redoes
EndRedoes
EndUndoRedoHistory
Fore
SplineSet
80 -582 m 1,0,-1
 230 -106 l 1,1,-1
 446 -106 l 1,2,-1
 236 -582 l 1,3,-1
 80 -582 l 1,0,-1
EndSplineSet
EndChar

StartChar: partialdiff
Encoding: 8706 8706 438
Width: 1167
GlyphClass: 2
Flags: W
LayerCount: 2
UndoRedoHistory
Layer: 1
Undoes
EndUndoes
Redoes
EndRedoes
EndUndoRedoHistory
Fore
SplineSet
490 -24 m 0,0,1
 357 -24 357 -24 266.5 36 c 128,-1,2
 176 96 176 96 139 196 c 0,3,4
 110 273 110 273 110 366 c 0,5,6
 110 394 110 394 113 423 c 0,7,8
 124 543 124 543 173.5 650.5 c 128,-1,9
 223 758 223 758 298.5 835 c 128,-1,10
 374 912 374 912 472 957 c 128,-1,11
 570 1002 570 1002 674 1002 c 0,12,13
 839 1002 839 1002 953 869 c 1,14,15
 956 894 956 894 958 930 c 0,16,17
 961 966 961 966 961 1000 c 0,18,19
 961 1155 961 1155 900 1251 c 0,20,21
 826 1368 826 1368 683 1368 c 0,22,23
 557 1368 557 1368 391 1262 c 1,24,-1
 393 1426 l 1,25,26
 540 1521 540 1521 717 1521 c 0,27,28
 952 1521 952 1521 1066 1353 c 0,29,30
 1156 1220 1156 1220 1155 978 c 0,31,32
 1155 914 1155 914 1149 843 c 0,33,34
 1137 712 1137 712 1104 588 c 128,-1,35
 1071 464 1071 464 1014 352.5 c 128,-1,36
 957 241 957 241 882 157.5 c 128,-1,37
 807 74 807 74 706 25 c 128,-1,38
 605 -24 605 -24 490 -24 c 0,0,1
506 132 m 0,39,40
 650 132 650 132 765 283 c 128,-1,41
 880 434 880 434 921 681 c 1,42,43
 898 752 898 752 833 801 c 128,-1,44
 768 850 768 850 680 850 c 0,45,46
 540 850 540 850 431 722 c 128,-1,47
 322 594 322 594 307 419 c 0,48,49
 305 397 305 397 305 376 c 0,50,51
 305 274 305 274 350 210 c 0,52,53
 404 132 404 132 506 132 c 0,39,40
EndSplineSet
EndChar

StartChar: pi
Encoding: 960 960 439
Width: 1288
GlyphClass: 2
Flags: W
LayerCount: 2
UndoRedoHistory
Layer: 1
Undoes
EndUndoes
Redoes
EndRedoes
EndUndoRedoHistory
Fore
SplineSet
1015 -8 m 0,0,1
 900 -8 900 -8 858 58 c 0,2,3
 827 107 827 107 826 206 c 0,4,5
 826 240 826 240 830 279 c 2,6,-1
 885 907 l 1,7,-1
 514 907 l 1,8,9
 510 877 510 877 501.5 826 c 128,-1,10
 493 775 493 775 468.5 639 c 128,-1,11
 444 503 444 503 419.5 389.5 c 128,-1,12
 395 276 395 276 360.5 161.5 c 128,-1,13
 326 47 326 47 296 0 c 1,14,-1
 127 0 l 1,15,16
 204 119 204 119 258 372 c 128,-1,17
 312 625 312 625 345 907 c 1,18,19
 175 903 175 903 63 846 c 1,20,-1
 57 977 l 1,21,22
 108 1014 108 1014 189.5 1027 c 128,-1,23
 271 1040 271 1040 415 1040 c 2,24,-1
 1260 1040 l 1,25,-1
 1248 907 l 1,26,-1
 1044 907 l 1,27,-1
 990 288 l 1,28,29
 989 256 989 256 988.5 224.5 c 128,-1,30
 988 193 988 193 1009.5 170 c 128,-1,31
 1031 147 1031 147 1076 147 c 0,32,33
 1109 147 1109 147 1157 160 c 1,34,35
 1151 120 1151 120 1149 100 c 0,36,37
 1147 81 1147 81 1147 64 c 0,38,39
 1147 33 1147 33 1153 6 c 1,40,41
 1071 -8 1071 -8 1015 -8 c 0,0,1
EndSplineSet
EndChar

StartChar: radical
Encoding: 8730 8730 440
Width: 1314
GlyphClass: 2
Flags: W
LayerCount: 2
UndoRedoHistory
Layer: 1
Undoes
EndUndoes
Redoes
EndRedoes
EndUndoRedoHistory
Fore
SplineSet
542 -150 m 1,0,-1
 290 673 l 1,1,2
 120 644 l 1,3,-1
 104 777 l 1,4,-1
 426 831 l 1,5,-1
 629 109 l 1,6,-1
 1152 1583 l 1,7,-1
 1312 1583 l 1,8,-1
 698 -150 l 1,9,-1
 542 -150 l 1,0,-1
EndSplineSet
EndChar

StartChar: summation
Encoding: 8721 8721 441
Width: 1264
GlyphClass: 2
Flags: W
LayerCount: 2
UndoRedoHistory
Layer: 1
Undoes
EndUndoes
Redoes
EndRedoes
EndUndoRedoHistory
Fore
SplineSet
51 -279 m 1,0,-1
 61 -175 l 1,1,-1
 751 595 l 1,2,-1
 216 1351 l 1,3,-1
 226 1456 l 1,4,-1
 1328 1456 l 1,5,-1
 1313 1295 l 1,6,-1
 493 1295 l 1,7,-1
 984 602 l 1,8,-1
 345 -111 l 1,9,-1
 1234 -111 l 1,10,-1
 1220 -279 l 1,11,-1
 51 -279 l 1,0,-1
EndSplineSet
EndChar

StartChar: uni007F
Encoding: 127 127 442
Width: 1521
GlyphClass: 2
Flags: W
LayerCount: 2
UndoRedoHistory
Layer: 1
Undoes
EndUndoes
Redoes
EndRedoes
EndUndoRedoHistory
Fore
SplineSet
187 0 m 1,0,-1
 315 1456 l 1,1,-1
 1460 1456 l 1,2,-1
 1332 0 l 1,3,-1
 187 0 l 1,0,-1
476 1330 m 1,4,-1
 370 124 l 1,5,-1
 1171 124 l 1,6,-1
 1277 1330 l 1,7,-1
 476 1330 l 1,4,-1
EndSplineSet
EndChar

StartChar: uni2015
Encoding: 8213 8213 443
Width: 4096
GlyphClass: 2
Flags: W
LayerCount: 2
UndoRedoHistory
Layer: 1
Undoes
EndUndoes
Redoes
EndRedoes
EndUndoRedoHistory
Fore
SplineSet
76 478 m 1,0,-1
 89 631 l 1,1,-1
 4063 631 l 1,2,-1
 4050 478 l 1,3,-1
 76 478 l 1,0,-1
EndSplineSet
EndChar

StartChar: middot
Encoding: 65540 -1 445
Width: 444
GlyphClass: 2
Flags: W
LayerCount: 2
UndoRedoHistory
Layer: 1
Undoes
EndUndoes
Redoes
EndRedoes
EndUndoRedoHistory
Fore
SplineSet
147 513 m 1,0,-1
 165 723 l 1,1,-1
 382 723 l 1,2,-1
 364 513 l 1,3,-1
 147 513 l 1,0,-1
EndSplineSet
EndChar

